<?xml version="1.0" encoding="UTF-8" standalone="no"?>
<!-- Created with Inkscape (http://www.inkscape.org/) -->

<svg
   xmlns:dc="http://purl.org/dc/elements/1.1/"
   xmlns:cc="http://creativecommons.org/ns#"
   xmlns:rdf="http://www.w3.org/1999/02/22-rdf-syntax-ns#"
   xmlns:svg="http://www.w3.org/2000/svg"
   xmlns="http://www.w3.org/2000/svg"
   xmlns:sodipodi="http://sodipodi.sourceforge.net/DTD/sodipodi-0.dtd"
   xmlns:inkscape="http://www.inkscape.org/namespaces/inkscape"
   id="svg2"
   version="1.1"
   inkscape:version="0.48.5 r10040"
   width="503.8875"
   height="102.9625"
   xml:space="preserve"
   sodipodi:docname="Logo_Instituto_TIM_RGB_Fundo_escuro.eps"><metadata
     id="metadata8"><rdf:RDF><cc:Work
         rdf:about=""><dc:format>image/svg+xml</dc:format><dc:type
           rdf:resource="http://purl.org/dc/dcmitype/StillImage" /><dc:title></dc:title></cc:Work></rdf:RDF></metadata><defs
     id="defs6"><clipPath
       clipPathUnits="userSpaceOnUse"
       id="clipPath18"><path
         d="m 0,0 4031,0 0,823.656 -4031,0 L 0,0 z"
         id="path20" /></clipPath></defs><sodipodi:namedview
     pagecolor="#ffffff"
     bordercolor="#666666"
     borderopacity="1"
     objecttolerance="10"
     gridtolerance="10"
     guidetolerance="10"
     inkscape:pageopacity="0"
     inkscape:pageshadow="2"
     inkscape:window-width="640"
     inkscape:window-height="480"
     id="namedview4"
     showgrid="false"
     inkscape:zoom="0.79978168"
     inkscape:cx="251.94376"
     inkscape:cy="51.481251"
     inkscape:window-x="0"
     inkscape:window-y="27"
     inkscape:window-maximized="0"
     inkscape:current-layer="g10" /><g
     id="g10"
     inkscape:groupmode="layer"
     inkscape:label="ink_ext_XXXXXX"
     transform="matrix(1.25,0,0,-1.25,0,102.9625)"><g
       id="g12"
       transform="scale(0.1,0.1)"><g
         id="g14"><g
           id="g16"
           clip-path="url(#clipPath18)"><path
             d="m 0,0 4031.14,0 0,823.656 L 0,823.656 0,0 z"
             style="fill:#004691;fill-opacity:1;fill-rule:nonzero;stroke:none"
             id="path22" /><path
             d="m 238.668,230.352 c -4.57,0.339 -7.453,0.925 -8.625,1.777 -1.199,0.848 -1.766,2.285 -1.766,4.305 l 0,352.121 c 0,2.039 0.567,3.476 1.766,4.336 1.172,0.808 4.055,1.414 8.625,1.746 4.559,0.343 10.391,0.5 17.5,0.5 l 5.586,0 c 12.84,0 20.887,-0.325 24.09,-0.989 3.222,-0.691 4.824,-2.539 4.824,-5.593 l 0,-352.121 c 0,-3.036 -1.602,-4.911 -4.824,-5.567 -3.203,-0.691 -11.25,-1.023 -24.09,-1.023 l -5.586,0 c -7.109,0 -12.941,0.156 -17.5,0.508"
             style="fill:#ffffff;fill-opacity:1;fill-rule:nonzero;stroke:none"
             id="path24" /><path
             d="m 372.105,231.355 c -3.214,1.016 -4.824,2.903 -4.824,5.61 l 0,155.23 c 0,36.543 -0.851,69.184 -2.519,97.942 -0.383,3.027 0.996,5.058 4.043,6.082 3.054,1.015 10.144,1.515 21.308,1.515 l 2.52,0 c 10.496,0 17.429,-0.41 20.801,-1.269 3.398,-0.852 5.261,-2.453 5.605,-4.817 1.336,-8.101 2.195,-16.074 2.527,-23.843 8.789,10.836 19.942,19.363 33.496,25.633 13.516,6.257 28.575,9.374 45.149,9.374 31.113,0 54.824,-8.972 71.043,-26.882 8.449,-9.485 14.621,-20.801 18.527,-33.996 3.875,-13.196 5.828,-29.59 5.828,-49.219 l 0,-155.75 c 0,-2.707 -1.707,-4.594 -5.066,-5.61 -3.398,-1.003 -10.84,-1.511 -22.363,-1.511 l -3.028,0 c -12.5,0 -20.304,0.508 -23.332,1.511 -3.054,1.016 -4.558,2.903 -4.558,5.61 l 0,135.457 c 0,19.609 -0.754,33.75 -2.297,42.375 -1.512,8.621 -4.832,15.613 -9.891,21.051 -8.789,9.457 -22.168,14.191 -40.07,14.191 -17.606,0 -32.149,-4.387 -43.652,-13.176 -8.797,-6.785 -13.68,-16.746 -14.707,-29.937 -0.665,-8.469 -1.004,-27.571 -1.004,-57.336 l 0,-112.625 c 0,-2.707 -1.7,-4.594 -5.098,-5.61 -3.379,-1.003 -10.84,-1.511 -22.305,-1.511 l -2.539,0 c -12.531,0 -20.39,0.508 -23.594,1.511"
             style="fill:#ffffff;fill-opacity:1;fill-rule:nonzero;stroke:none"
             id="path26" /><path
             d="m 693.012,232.371 c -15.907,5.078 -29.266,11.535 -40.086,19.301 -2.356,1.687 -3.555,3.562 -3.555,5.562 0,2.364 2.039,7.637 6.082,15.743 l 3.567,7.113 c 2.714,5.387 4.882,9.195 6.589,11.402 1.692,2.188 3.555,3.293 5.586,3.293 0.664,0 2.024,-0.332 4.055,-1.008 25.359,-14.199 48.887,-21.308 70.535,-21.308 13.86,0 24.856,2.785 32.981,8.379 8.113,5.57 12.168,13.254 12.168,23.058 0,9.481 -4.219,16.59 -12.688,21.336 -8.465,4.727 -24.18,10.141 -47.176,16.231 -26.047,7.433 -45.078,17.074 -57.101,28.91 -11.973,11.844 -17.996,28.426 -17.996,49.734 0,25.711 9.121,45.906 27.402,60.637 18.262,14.695 42.441,22.058 72.539,22.058 15.566,0 30.535,-2.218 44.91,-6.593 14.375,-4.403 27.141,-10.828 38.313,-19.278 2.039,-1.367 3.027,-3.023 3.027,-5.066 0,-2.383 -2.707,-7.793 -8.098,-16.23 l -3.562,-5.606 c -4.406,-7.078 -7.598,-11.34 -9.641,-12.668 -2.039,-1.355 -4.226,-1.199 -6.57,0.488 -18.273,11.848 -37.051,17.786 -56.328,17.786 -14.551,0 -25.703,-2.54 -33.477,-7.61 -7.804,-5.074 -11.699,-12.539 -11.699,-22.351 0,-6.758 2.305,-12.266 6.863,-16.465 4.563,-4.239 10.227,-7.547 16.973,-9.914 6.789,-2.371 17.082,-5.586 30.977,-9.625 27.726,-8.11 47.96,-17.688 60.625,-28.672 12.675,-10.996 19.023,-27.5 19.023,-49.465 0,-27.07 -9.473,-48.289 -28.426,-63.672 -18.937,-15.41 -43.781,-23.098 -74.551,-23.098 -18.273,0 -35.371,2.539 -51.261,7.598"
             style="fill:#ffffff;fill-opacity:1;fill-rule:nonzero;stroke:none"
             id="path28" /><path
             d="m 937.055,244.07 c -6.778,6.75 -11.766,15.528 -14.961,26.368 -3.211,10.832 -4.832,24.511 -4.832,41.105 l 0,140.039 -41.094,0 c -2.375,0 -3.977,1.191 -4.836,3.547 -0.84,2.34 -1.27,6.758 -1.27,13.172 l 0,3.574 c 0,6.086 0.333,10.293 1.028,12.676 0.652,2.363 2.195,3.711 4.57,4.062 14.531,4.055 25.613,9.043 33.231,14.961 7.617,5.93 13.254,13.621 16.992,23.098 3.73,9.441 6.437,22.476 8.117,39.043 0.32,2.371 1.688,3.828 4.062,4.324 2.352,0.496 7.274,0.762 14.708,0.762 l 4.082,0 c 7.761,0 12.832,-0.43 15.203,-1.258 2.375,-0.852 3.566,-2.453 3.566,-4.816 l 0,-66.993 63.929,0 c 2.34,0 3.87,-1.179 4.57,-3.546 0.65,-2.372 1.01,-8.301 1.01,-17.754 l 0,-3.543 c 0,-9.485 -0.36,-15.422 -1.01,-17.762 -0.7,-2.356 -2.23,-3.547 -4.57,-3.547 l -63.929,0 0,-135.977 c 0,-9.16 0.555,-16.23 1.766,-21.32 1.164,-5.074 3.457,-9.316 6.855,-12.683 5.754,-5.411 14.199,-8.106 25.378,-8.106 9.81,0 19.78,1.848 29.93,5.566 2.34,0.684 4.21,0.165 5.58,-1.523 1.35,-1.691 3.38,-6.777 6.08,-15.215 l 1.52,-4.562 c 2.38,-7.117 3.56,-12.008 3.56,-14.715 0,-3.059 -1.7,-5.242 -5.08,-6.613 -8.11,-3.719 -17.19,-6.59 -27.16,-8.622 -9.97,-2.011 -19.86,-3.039 -29.659,-3.039 -24.707,0 -43.809,6.418 -57.336,19.297"
             style="fill:#ffffff;fill-opacity:1;fill-rule:nonzero;stroke:none"
             id="path30" /><path
             d="m 1108.28,231.102 c -3.22,0.863 -4.81,2.628 -4.81,5.332 l 0,254.718 c 0,2.688 1.59,4.461 4.81,5.313 3.24,0.859 10.92,1.269 23.1,1.269 l 3.03,0 c 11.86,0 19.37,-0.41 22.61,-1.269 3.18,-0.852 4.77,-2.625 4.77,-5.313 l 0,-254.718 c 0,-2.364 -1.68,-4.063 -5.05,-5.079 -3.37,-1.003 -10.81,-1.511 -22.33,-1.511 l -3.03,0 c -12.18,0 -19.86,0.41 -23.1,1.258 z m -2.03,325.492 c -7.28,7.429 -10.89,16.25 -10.89,26.375 0,10.168 3.61,18.945 10.89,26.406 7.27,7.43 16.16,11.152 26.63,11.152 10.51,0 19.38,-3.722 26.68,-11.152 7.26,-7.461 10.88,-16.238 10.88,-26.406 0,-10.125 -3.62,-18.946 -10.88,-26.375 -7.3,-7.446 -16.17,-11.156 -26.68,-11.156 -10.47,0 -19.36,3.71 -26.63,11.156"
             style="fill:#ffffff;fill-opacity:1;fill-rule:nonzero;stroke:none"
             id="path32" /><path
             d="m 1279.02,244.07 c -6.78,6.75 -11.79,15.528 -14.96,26.368 -3.23,10.832 -4.84,24.511 -4.84,41.105 l 0,140.039 -41.09,0 c -2.37,0 -3.97,1.191 -4.83,3.547 -0.83,2.34 -1.27,6.758 -1.27,13.172 l 0,3.574 c 0,6.086 0.36,10.293 1.02,12.676 0.69,2.363 2.2,3.711 4.58,4.062 14.53,4.055 25.62,9.043 33.22,14.961 7.61,5.93 13.28,13.621 17,23.098 3.74,9.441 6.41,22.476 8.11,39.043 0.35,2.371 1.7,3.828 4.08,4.324 2.35,0.496 7.26,0.762 14.7,0.762 l 4.05,0 c 7.79,0 12.86,-0.43 15.22,-1.258 2.37,-0.852 3.55,-2.453 3.55,-4.816 l 0,-66.993 63.95,0 c 2.35,0 3.88,-1.179 4.56,-3.546 0.68,-2.372 1.01,-8.301 1.01,-17.754 l 0,-3.543 c 0,-9.485 -0.33,-15.422 -1.01,-17.762 -0.68,-2.356 -2.21,-3.547 -4.56,-3.547 l -63.95,0 0,-135.977 c 0,-9.16 0.6,-16.23 1.81,-21.32 1.16,-5.074 3.46,-9.316 6.83,-12.683 5.74,-5.411 14.21,-8.106 25.38,-8.106 9.79,0 19.79,1.848 29.93,5.566 2.35,0.684 4.22,0.165 5.57,-1.523 1.35,-1.691 3.4,-6.777 6.09,-15.215 l 1.51,-4.562 c 2.38,-7.117 3.57,-12.008 3.57,-14.715 0,-3.059 -1.69,-5.242 -5.08,-6.613 -8.13,-3.719 -17.16,-6.59 -27.15,-8.622 -9.97,-2.011 -19.84,-3.039 -29.67,-3.039 -24.7,0 -43.82,6.418 -57.33,19.297"
             style="fill:#ffffff;fill-opacity:1;fill-rule:nonzero;stroke:none"
             id="path34" /><path
             d="m 1466.73,251.672 c -8.44,9.469 -14.62,20.797 -18.5,33.973 -3.9,13.203 -5.83,29.617 -5.83,49.238 l 0,155.754 c 0,2.703 1.69,4.558 5.08,5.582 3.36,1.015 10.81,1.515 22.31,1.515 l 3.06,0 c 12.5,0 20.26,-0.5 23.32,-1.515 3.04,-1.024 4.56,-2.879 4.56,-5.582 l 0,-135.461 c 0,-19.621 0.78,-33.742 2.27,-42.364 1.54,-8.632 4.84,-15.644 9.91,-21.066 8.78,-9.473 21.82,-14.207 39.08,-14.207 8.78,0 16.99,1.199 24.6,3.563 7.58,2.355 13.95,5.558 19.03,9.64 8.44,6.746 13.19,16.719 14.21,29.934 0.66,8.445 1.02,27.547 1.02,57.332 l 0,112.629 c 0,2.703 1.66,4.558 5.06,5.582 3.38,1.015 10.83,1.515 22.31,1.515 l 2.54,0 c 12.54,0 20.4,-0.5 23.62,-1.515 3.19,-1.024 4.81,-2.879 4.81,-5.582 l 0,-155.254 c 0,-36.535 0.84,-69.184 2.54,-97.934 0.35,-3.035 -1.02,-5.078 -4.08,-6.094 -3.03,-1.003 -10.15,-1.511 -21.29,-1.511 l -2.53,0 c -10.5,0 -17.43,0.41 -20.82,1.258 -3.4,0.863 -5.22,2.46 -5.58,4.836 -1.35,8.132 -2.18,16.074 -2.54,23.828 -8.79,-10.801 -19.88,-19.344 -33.22,-25.606 -13.38,-6.262 -28.17,-9.387 -44.39,-9.387 -30.79,0 -54.29,8.957 -70.55,26.899"
             style="fill:#ffffff;fill-opacity:1;fill-rule:nonzero;stroke:none"
             id="path36" /><path
             d="m 1775.24,244.07 c -6.79,6.75 -11.77,15.528 -14.97,26.368 -3.24,10.832 -4.83,24.511 -4.83,41.105 l 0,140.039 -41.11,0 c -2.38,0 -3.97,1.191 -4.8,3.547 -0.84,2.34 -1.27,6.758 -1.27,13.172 l 0,3.574 c 0,6.086 0.35,10.293 1.01,12.676 0.69,2.363 2.19,3.711 4.56,4.062 14.54,4.055 25.63,9.043 33.25,14.961 7.6,5.93 13.27,13.621 17,23.098 3.71,9.441 6.42,22.476 8.1,39.043 0.35,2.371 1.71,3.828 4.06,4.324 2.37,0.496 7.29,0.762 14.72,0.762 l 4.04,0 c 7.79,0 12.87,-0.43 15.24,-1.258 2.35,-0.852 3.53,-2.453 3.53,-4.816 l 0,-66.993 63.94,0 c 2.37,0 3.89,-1.179 4.58,-3.546 0.68,-2.372 1.03,-8.301 1.03,-17.754 l 0,-3.543 c 0,-9.485 -0.35,-15.422 -1.03,-17.762 -0.69,-2.356 -2.21,-3.547 -4.58,-3.547 l -63.94,0 0,-135.977 c 0,-9.16 0.62,-16.23 1.79,-21.32 1.19,-5.074 3.47,-9.316 6.85,-12.683 5.76,-5.411 14.22,-8.106 25.39,-8.106 9.78,0 19.76,1.848 29.91,5.566 2.37,0.684 4.26,0.165 5.61,-1.523 1.32,-1.691 3.35,-6.777 6.07,-15.215 l 1.51,-4.562 c 2.37,-7.117 3.56,-12.008 3.56,-14.715 0,-3.059 -1.71,-5.242 -5.07,-6.613 -8.13,-3.719 -17.16,-6.59 -27.14,-8.622 -9.99,-2.011 -19.89,-3.039 -29.71,-3.039 -24.67,0 -43.79,6.418 -57.3,19.297"
             style="fill:#ffffff;fill-opacity:1;fill-rule:nonzero;stroke:none"
             id="path38" /><path
             d="m 2095.65,298.602 c 11.66,15.39 17.49,37.804 17.49,67.218 0,26.707 -4.9,47.782 -14.71,63.164 -9.81,15.411 -25.21,23.094 -46.18,23.094 -21.31,0 -37.7,-7.683 -49.23,-23.094 -11.47,-15.382 -17.23,-37.793 -17.23,-67.226 0,-26.707 4.81,-47.766 14.46,-63.156 9.66,-15.379 24.93,-23.086 45.92,-23.086 21.32,0 37.81,7.707 49.48,23.086 z m -139.04,-38.836 c -20.8,23.359 -31.2,56.164 -31.2,98.457 0,46.668 11.16,82.441 33.46,107.293 22.34,24.875 54.13,37.296 95.41,37.296 37.87,0 67.23,-11.66 88.04,-35.007 20.81,-23.332 31.21,-56.157 31.21,-98.43 0,-46.68 -11.17,-82.441 -33.51,-107.316 -22.3,-24.852 -53.94,-37.286 -94.87,-37.286 -38.23,0 -67.75,11.661 -88.54,34.993"
             style="fill:#ffffff;fill-opacity:1;fill-rule:nonzero;stroke:none"
             id="path40" /><path
             d="m 3759.66,595.469 -24.57,0 c -31.45,0 -33.41,-3.449 -35.88,-8.875 l -48.65,-116.957 c -16.21,-38.809 -32.91,-80.575 -39.31,-102.215 -5.88,21.64 -16.71,50.633 -39.3,104.211 l -48.64,114.961 c -2.96,6.89 -15.25,8.875 -41.77,8.875 l -27.55,0 c -27.03,0 -32.39,-2.473 -32.39,-7.891 l 0,-352.82 c 0,-6.399 5.36,-7.871 33.4,-7.871 l 15.2,0 c 27.54,0 35.4,1.472 35.4,7.871 l 0,209.336 1.98,0 c 0,0 2.45,-9.848 6.38,-18.672 L 3570,294.199 c 2.46,-5.871 5.39,-8.32 31.42,-8.32 l 16.71,0 c 26.53,0 28.52,1.933 30.98,8.32 l 51.1,126.309 c 4.93,11.804 8.35,23.586 8.35,23.586 l 1.97,0 0,-209.336 c 0,-6.399 5.39,-7.871 34.4,-7.871 l 14.73,0.027 c 27.05,0 34.89,1.445 34.89,7.844 l 0,352.82 c 0,5.418 -7.84,7.891 -34.89,7.891 m -407.87,-7.891 c 0,5.418 -7.86,7.891 -34.87,7.891 l -15.73,0 c -28.52,0 -33.43,-2.473 -33.43,-7.891 l 0,-352.82 c 0,-6.399 4.91,-7.871 33.43,-7.871 l 15.73,0 c 27.01,0 34.87,1.472 34.87,7.871 l 0,352.82 z m -149.89,7.891 c 7.36,0 8.85,-0.977 8.85,-27.051 l 0,-24.074 c 0,-25.047 -1.96,-28.004 -8.85,-28.004 l -83.55,0 0,-281.582 c 0,-6.399 -7.82,-7.871 -35.85,-7.871 l -14.75,0 c -28.49,0 -33.4,1.472 -33.4,7.871 l 0,281.582 -83.53,0 c -6.93,0 -8.88,1.98 -8.88,28.004 l 0,24.074 c -0.02,27.051 1.47,27.051 8.88,27.051 l 251.08,0"
             style="fill:#ffffff;fill-opacity:1;fill-rule:nonzero;stroke:none"
             id="path42" /><path
             d="m 2578.79,305.762 -155.23,0 c -5.87,0 -11.18,-2.375 -15.01,-6.211 -3.83,-3.848 -6.19,-9.141 -6.19,-14.981 l 0,-36.418 c 0,-5.847 2.36,-11.101 6.17,-14.961 3.81,-3.855 9.16,-6.238 15.03,-6.238 l 155.23,0 0,78.809 z m 258.5,-6.289 c -3.84,3.886 -9.16,6.289 -15.04,6.289 l -155.23,0 0,-78.809 155.23,0 c 5.88,0 11.2,2.41 15.04,6.289 3.78,3.817 6.14,9.094 6.14,14.91 l 0,36.418 c 0,5.801 -2.36,11.082 -6.14,14.903 m 0,144.843 c -3.84,3.875 -9.16,6.289 -15.04,6.289 l -155.23,0 0,-78.839 155.23,0 c 5.88,0 11.2,2.414 15.04,6.3 3.78,3.809 6.14,9.071 6.14,14.895 l 0,36.414 c 0,5.82 -2.36,11.113 -6.14,14.941 m -258.5,6.289 -155.23,0 c -5.87,0 -11.18,-2.414 -15.01,-6.242 -3.83,-3.828 -6.19,-9.148 -6.19,-14.988 l 0,-36.414 c 0,-5.824 2.36,-11.098 6.17,-14.926 3.81,-3.855 9.15,-6.269 15.03,-6.269 l 155.23,0 0,78.839 z m 243.46,65.977 -398.69,0 c -5.88,0 -11.22,2.391 -15.03,6.27 -3.81,3.828 -6.17,9.101 -6.17,14.929 l 0,36.418 c 0,5.852 2.36,11.133 6.19,14.989 3.83,3.839 9.14,6.21 15.01,6.21 l 398.69,0 c 5.88,0 11.2,-2.402 15.04,-6.289 3.78,-3.828 6.14,-9.097 6.14,-14.91 l 0,-36.394 c 0,-5.84 -2.36,-11.094 -6.14,-14.946 -3.84,-3.886 -9.16,-6.277 -15.04,-6.277"
             style="fill:#eb0028;fill-opacity:1;fill-rule:nonzero;stroke:none"
             id="path44" /></g></g></g></g></svg>