<?xml version="1.0" encoding="utf-8"?>
<!-- Generator: Adobe Illustrator 21.0.0, SVG Export Plug-In . SVG Version: 6.00 Build 0)  -->
<svg version="1.1"
	 id="svg2" inkscape:export-filename="/home/system/instituto_tim/headers_e_footers/instituto_tim_header_footer.png" inkscape:export-xdpi="90" inkscape:export-ydpi="90" inkscape:version="0.48.5 r10040" sodipodi:docname="instituto_tim_header_footer.svg" xmlns:cc="http://creativecommons.org/ns#" xmlns:dc="http://purl.org/dc/elements/1.1/" xmlns:inkscape="http://www.inkscape.org/namespaces/inkscape" xmlns:rdf="http://www.w3.org/1999/02/22-rdf-syntax-ns#" xmlns:sodipodi="http://sodipodi.sourceforge.net/DTD/sodipodi-0.dtd" xmlns:svg="http://www.w3.org/2000/svg"
	 xmlns="http://www.w3.org/2000/svg" xmlns:xlink="http://www.w3.org/1999/xlink" x="0px" y="0px" viewBox="0 0 1024 880.8"
	 style="enable-background:new 0 0 1024 880.8;" xml:space="preserve">
<style type="text/css">
	.st0{fill:#004691;}
	.st1{fill:#00427F;}
	.st2{fill:#00A4E4;}
	.st3{fill:#FFFFFF;}
	.st4{fill:#EB0028;}
	.st5{fill:#075AA5;}
	.st6{fill:#E6E6E6;}
	.st7{fill:none;stroke:#7BB6F4;stroke-miterlimit:10;}
	.st8{font-family:'TIMSans-Medium';}
	.st9{font-size:10.7687px;}
	.st10{fill:#C2C4C6;}
	.st11{font-size:10.77px;}
	.st12{fill:#004688;}
	.st13{clip-path:url(#SVGID_2_);fill-rule:evenodd;clip-rule:evenodd;fill:#FFFFFF;}
	.st14{clip-path:url(#SVGID_2_);}
	.st15{fill-rule:evenodd;clip-rule:evenodd;fill:#FFFFFF;}
	.st16{fill-rule:evenodd;clip-rule:evenodd;fill:#C3E0F5;}
	.st17{fill-rule:evenodd;clip-rule:evenodd;fill:#D17756;}
	.st18{fill-rule:evenodd;clip-rule:evenodd;fill:#87A0AB;}
	.st19{fill-rule:evenodd;clip-rule:evenodd;fill:#21A2DC;}
	.st20{fill-rule:evenodd;clip-rule:evenodd;fill:#E4C5A2;}
	.st21{fill-rule:evenodd;clip-rule:evenodd;fill:#5B863C;}
	.st22{fill-rule:evenodd;clip-rule:evenodd;fill:#214694;}
	.st23{fill-rule:evenodd;clip-rule:evenodd;fill:#CC9547;}
	.st24{font-size:8.6191px;}
	.st25{font-family:'TIMSans-Bold';}
	.st26{font-family:'TIMSans-Light';}
	.st27{fill:#89C3FF;}
	.st28{font-size:15.0072px;}
	.st29{font-size:13px;}
	.st30{fill:#6D6E71;}
	.st31{font-size:20px;}
	.st32{font-size:12.8224px;}
	.st33{font-size:26.8219px;}
	.st34{fill:none;stroke:#6D6E71;stroke-width:0.75;stroke-miterlimit:10;}
	.st35{fill:#1A589C;}
</style>
<sodipodi:namedview  bordercolor="#666666" borderopacity="1.0" id="base" inkscape:current-layer="layer1" inkscape:cx="540.70228" inkscape:cy="578.08178" inkscape:document-units="px" inkscape:guide-bbox="true" inkscape:pageopacity="1" inkscape:pageshadow="2" inkscape:window-height="1041" inkscape:window-maximized="1" inkscape:window-width="1920" inkscape:window-x="1920" inkscape:window-y="0" inkscape:zoom="1.1217037" pagecolor="#ffffff" showgrid="false" showguides="true">
	</sodipodi:namedview>
<rect id="rect3167" x="0" y="476.8" inkscape:export-filename="/home/system/instituto_tim/headers_e_footers/instituto_tim_header_footer.png" inkscape:export-xdpi="90" inkscape:export-ydpi="90" class="st0" width="1024" height="404">
</rect>
<rect id="rect2985" y="71.8" inkscape:export-filename="/home/system/instituto_tim/headers_e_footers/instituto_tim_header_footer.png" inkscape:export-xdpi="90" inkscape:export-ydpi="90" class="st1" width="1024" height="29">
</rect>
<rect id="rect3757" y="100.8" inkscape:export-filename="/home/system/instituto_tim/headers_e_footers/instituto_tim_header_footer.png" inkscape:export-xdpi="90" inkscape:export-ydpi="90" class="st2" width="1024" height="2">
</rect>
<g id="flowRoot2997" transform="matrix(0.72961972,0,0,0.72961972,220.76801,748.2609)" inkscape:export-filename="/home/system/instituto_tim/headers_e_footers/instituto_tim_header_footer.png" inkscape:export-xdpi="90" inkscape:export-ydpi="90">
</g>
<g id="flowRoot3777" transform="translate(245.41246,448.532)" inkscape:export-filename="/home/system/instituto_tim/headers_e_footers/instituto_tim_header_footer.png" inkscape:export-xdpi="90" inkscape:export-ydpi="90">
</g>
<g id="flowRoot3777-5" transform="translate(332.6688,448.55065)" inkscape:export-filename="/home/system/instituto_tim/headers_e_footers/instituto_tim_header_footer.png" inkscape:export-xdpi="90" inkscape:export-ydpi="90">
</g>
<g id="flowRoot3777-5-0" transform="translate(472.46528,447.96748)" inkscape:export-filename="/home/system/instituto_tim/headers_e_footers/instituto_tim_header_footer.png" inkscape:export-xdpi="90" inkscape:export-ydpi="90">
</g>
<g id="flowRoot3777-5-0-2" transform="translate(556.85615,447.52883)" inkscape:export-filename="/home/system/instituto_tim/headers_e_footers/instituto_tim_header_footer.png" inkscape:export-xdpi="90" inkscape:export-ydpi="90">
</g>
<g id="flowRoot3777-5-0-6" transform="translate(666.27931,448.74863)" inkscape:export-filename="/home/system/instituto_tim/headers_e_footers/instituto_tim_header_footer.png" inkscape:export-xdpi="90" inkscape:export-ydpi="90">
</g>
<g id="flowRoot3777-5-0-28" transform="translate(755.85266,448.11182)" inkscape:export-filename="/home/system/instituto_tim/headers_e_footers/instituto_tim_header_footer.png" inkscape:export-xdpi="90" inkscape:export-ydpi="90">
</g>
<g id="flowRoot3777-5-0-60" transform="translate(812.05087,448.0138)" inkscape:export-filename="/home/system/instituto_tim/headers_e_footers/instituto_tim_header_footer.png" inkscape:export-xdpi="90" inkscape:export-ydpi="90">
</g>
<g id="flowRoot3915" transform="translate(0,552.36218)" inkscape:export-filename="/home/system/instituto_tim/headers_e_footers/instituto_tim_header_footer.png" inkscape:export-xdpi="90" inkscape:export-ydpi="90">
</g>
<g id="flowRoot3923" transform="matrix(0.37096655,0,0,0.37096655,277.53913,633.97877)" inkscape:export-filename="/home/system/instituto_tim/headers_e_footers/instituto_tim_header_footer.png" inkscape:export-xdpi="90" inkscape:export-ydpi="90">
</g>
<path id="path44-3" inkscape:connector-curvature="0" inkscape:export-filename="/home/system/instituto_tim/headers_e_footers/instituto_tim_header_footer.png" inkscape:export-xdpi="90" inkscape:export-ydpi="90" class="st3" d="
	M21.8,90.8h-4.1c-0.2,0-0.3,0.1-0.4,0.2s-0.2,0.2-0.2,0.4v1c0,0.2,0.1,0.3,0.2,0.4c0.1,0.1,0.2,0.2,0.4,0.2h4.1V90.8L21.8,90.8z
	 M28.7,91c-0.1-0.1-0.2-0.2-0.4-0.2h-4.1v2.1h4.1c0.2,0,0.3-0.1,0.4-0.2s0.2-0.2,0.2-0.4v-1C28.8,91.2,28.8,91.1,28.7,91 M28.7,87.1
	c-0.1-0.1-0.2-0.2-0.4-0.2h-4.1V89h4.1c0.2,0,0.3-0.1,0.4-0.2c0.1-0.1,0.2-0.2,0.2-0.4v-1C28.8,87.4,28.8,87.2,28.7,87.1 M21.8,87
	h-4.1c-0.2,0-0.3,0.1-0.4,0.2s-0.2,0.2-0.2,0.4v1c0,0.2,0.1,0.3,0.2,0.4c0.1,0.1,0.2,0.2,0.4,0.2h4.1V87z M28.3,85.2H17.7
	c-0.2,0-0.3-0.1-0.4-0.2c-0.1-0.1-0.2-0.2-0.2-0.4v-1c0-0.2,0.1-0.3,0.2-0.4s0.2-0.2,0.4-0.2h10.5c0.2,0,0.3,0.1,0.4,0.2
	s0.2,0.2,0.2,0.4v1c0,0.2-0.1,0.3-0.2,0.4C28.6,85.2,28.4,85.2,28.3,85.2"/>
<g id="flowRoot3777-6" transform="matrix(0.81015194,0,0,0.81015194,-81.872726,401.61389)" inkscape:export-filename="/home/system/instituto_tim/headers_e_footers/instituto_tim_header_footer.png" inkscape:export-xdpi="90" inkscape:export-ydpi="90">
</g>
<g id="flowRoot2997-1" transform="matrix(0.72961972,0,0,0.72961972,220.76801,859.05483)" inkscape:export-filename="/home/system/instituto_tim/headers_e_footers/instituto_tim_header_footer.png" inkscape:export-xdpi="90" inkscape:export-ydpi="90">
</g>
<g id="flowRoot3777-2" transform="translate(245.41246,559.32593)" inkscape:export-filename="/home/system/instituto_tim/headers_e_footers/instituto_tim_header_footer.png" inkscape:export-xdpi="90" inkscape:export-ydpi="90">
</g>
<g id="flowRoot3777-5-5" transform="translate(332.6688,559.34458)" inkscape:export-filename="/home/system/instituto_tim/headers_e_footers/instituto_tim_header_footer.png" inkscape:export-xdpi="90" inkscape:export-ydpi="90">
</g>
<g id="flowRoot3777-5-0-8" transform="translate(472.46528,558.76141)" inkscape:export-filename="/home/system/instituto_tim/headers_e_footers/instituto_tim_header_footer.png" inkscape:export-xdpi="90" inkscape:export-ydpi="90">
</g>
<g id="flowRoot3777-5-0-2-1" transform="translate(556.85615,558.32276)" inkscape:export-filename="/home/system/instituto_tim/headers_e_footers/instituto_tim_header_footer.png" inkscape:export-xdpi="90" inkscape:export-ydpi="90">
</g>
<g id="flowRoot3777-5-0-6-1" transform="translate(666.27931,559.54256)" inkscape:export-filename="/home/system/instituto_tim/headers_e_footers/instituto_tim_header_footer.png" inkscape:export-xdpi="90" inkscape:export-ydpi="90">
</g>
<g id="flowRoot3777-5-0-28-8" transform="translate(755.85266,558.90575)" inkscape:export-filename="/home/system/instituto_tim/headers_e_footers/instituto_tim_header_footer.png" inkscape:export-xdpi="90" inkscape:export-ydpi="90">
</g>
<g id="flowRoot3777-5-0-60-3" transform="translate(812.05087,558.80773)" inkscape:export-filename="/home/system/instituto_tim/headers_e_footers/instituto_tim_header_footer.png" inkscape:export-xdpi="90" inkscape:export-ydpi="90">
</g>
<g id="flowRoot3923-3" transform="matrix(0.37096655,0,0,0.37096655,277.53913,744.7727)" inkscape:export-filename="/home/system/instituto_tim/headers_e_footers/instituto_tim_header_footer.png" inkscape:export-xdpi="90" inkscape:export-ydpi="90">
</g>
<g id="flowRoot3777-6-5" transform="matrix(0.81015194,0,0,0.81015194,831.39088,551.41319)" inkscape:export-filename="/home/system/instituto_tim/headers_e_footers/instituto_tim_header_footer.png" inkscape:export-xdpi="90" inkscape:export-ydpi="90">
</g>
<g id="flowRoot3777-2-4" transform="translate(245.41245,674.89241)" inkscape:export-filename="/home/system/instituto_tim/headers_e_footers/instituto_tim_header_footer.png" inkscape:export-xdpi="90" inkscape:export-ydpi="90">
</g>
<g id="flowRoot3777-5-5-6" transform="translate(332.66879,674.91106)" inkscape:export-filename="/home/system/instituto_tim/headers_e_footers/instituto_tim_header_footer.png" inkscape:export-xdpi="90" inkscape:export-ydpi="90">
</g>
<g id="flowRoot3777-5-0-8-6" transform="translate(463.79703,674.32789)" inkscape:export-filename="/home/system/instituto_tim/headers_e_footers/instituto_tim_header_footer.png" inkscape:export-xdpi="90" inkscape:export-ydpi="90">
</g>
<g id="flowRoot3777-5-0-6-1-7" transform="translate(578.2793,675.10904)" inkscape:export-filename="/home/system/instituto_tim/headers_e_footers/instituto_tim_header_footer.png" inkscape:export-xdpi="90" inkscape:export-ydpi="90">
</g>
<g id="flowRoot3777-5-0-28-8-7" transform="translate(671.85265,674.47223)" inkscape:export-filename="/home/system/instituto_tim/headers_e_footers/instituto_tim_header_footer.png" inkscape:export-xdpi="90" inkscape:export-ydpi="90">
</g>
<g id="flowRoot3777-5-0-60-3-1" transform="translate(796.05086,674.37421)" inkscape:export-filename="/home/system/instituto_tim/headers_e_footers/instituto_tim_header_footer.png" inkscape:export-xdpi="90" inkscape:export-ydpi="90">
</g>
<g id="flowRoot3923-3-9" transform="matrix(0.37096655,0,0,0.37096655,277.53912,860.33918)" inkscape:export-filename="/home/system/instituto_tim/headers_e_footers/instituto_tim_header_footer.png" inkscape:export-xdpi="90" inkscape:export-ydpi="90">
</g>
<g id="flowRoot3777-6-5-1" transform="matrix(0.81015194,0,0,0.81015194,831.39087,666.97967)" inkscape:export-filename="/home/system/instituto_tim/headers_e_footers/instituto_tim_header_footer.png" inkscape:export-xdpi="90" inkscape:export-ydpi="90">
</g>
<g id="flowRoot3991" transform="translate(-37.443043,586.23922)" inkscape:export-filename="/home/system/instituto_tim/headers_e_footers/instituto_tim_header_footer.png" inkscape:export-xdpi="90" inkscape:export-ydpi="90">
</g>
<path id="path24-7" inkscape:connector-curvature="0" inkscape:export-filename="/home/system/instituto_tim/headers_e_footers/instituto_tim_header_footer.png" inkscape:export-xdpi="90" inkscape:export-ydpi="90" class="st3" d="
	M871.4,549.2c-0.2,0-0.3,0-0.3-0.1c0,0-0.1-0.1-0.1-0.2v-13c0-0.1,0-0.1,0.1-0.2c0,0,0.2-0.1,0.3-0.1c0.2,0,0.4,0,0.7,0h0.2
	c0.5,0,0.8,0,0.9,0c0.1,0,0.2,0.1,0.2,0.2v13.1c0,0.1-0.1,0.2-0.2,0.2c-0.1,0-0.4,0-0.9,0h-0.2C871.8,549.3,871.5,549.2,871.4,549.2
	"/>
<path id="path26-5" inkscape:connector-curvature="0" inkscape:export-filename="/home/system/instituto_tim/headers_e_footers/instituto_tim_header_footer.png" inkscape:export-xdpi="90" inkscape:export-ydpi="90" class="st3" d="
	M876.3,549.2c-0.1,0-0.2-0.1-0.2-0.2v-5.8c0-1.4,0-2.6-0.1-3.6c0-0.1,0-0.2,0.2-0.2c0.1,0,0.4-0.1,0.8-0.1h0.1c0.4,0,0.6,0,0.8,0
	c0.1,0,0.2,0.1,0.2,0.2c0,0.3,0.1,0.6,0.1,0.9c0.3-0.4,0.7-0.7,1.2-1c0.5-0.2,1.1-0.3,1.7-0.3c1.2,0,2,0.3,2.6,1
	c0.3,0.4,0.5,0.8,0.7,1.3c0.1,0.5,0.2,1.1,0.2,1.8v5.8c0,0.1-0.1,0.2-0.2,0.2c-0.1,0-0.4,0.1-0.8,0.1h-0.1c-0.5,0-0.8,0-0.9-0.1
	c-0.1,0-0.2-0.1-0.2-0.2v-5c0-0.7,0-1.3-0.1-1.6s-0.2-0.6-0.4-0.8c-0.3-0.4-0.8-0.5-1.5-0.5s-1.2,0.2-1.6,0.5
	c-0.3,0.3-0.5,0.6-0.5,1.1c0,0.3,0,1,0,2.1v4.2c0,0.1-0.1,0.2-0.2,0.2c-0.1,0-0.4,0.1-0.8,0.1h-0.1
	C876.7,549.3,876.5,549.2,876.3,549.2"/>
<path id="path28-3" inkscape:connector-curvature="0" inkscape:export-filename="/home/system/instituto_tim/headers_e_footers/instituto_tim_header_footer.png" inkscape:export-xdpi="90" inkscape:export-ydpi="90" class="st3" d="
	M888.3,549.2c-0.6-0.2-1.1-0.4-1.5-0.7c-0.1-0.1-0.1-0.1-0.1-0.2c0-0.1,0.1-0.3,0.2-0.6l0.1-0.3c0.1-0.2,0.2-0.3,0.2-0.4
	c0.1-0.1,0.1-0.1,0.2-0.1c0,0,0.1,0,0.2,0c0.9,0.5,1.8,0.8,2.6,0.8c0.5,0,0.9-0.1,1.2-0.3s0.5-0.5,0.5-0.9s-0.2-0.6-0.5-0.8
	s-0.9-0.4-1.8-0.6c-1-0.3-1.7-0.6-2.1-1.1c-0.4-0.4-0.7-1.1-0.7-1.8c0-1,0.3-1.7,1-2.3c0.7-0.5,1.6-0.8,2.7-0.8
	c0.6,0,1.1,0.1,1.7,0.2c0.5,0.2,1,0.4,1.4,0.7c0.1,0.1,0.1,0.1,0.1,0.2c0,0.1-0.1,0.3-0.3,0.6l-0.1,0.2c-0.2,0.3-0.3,0.4-0.4,0.5
	c-0.1,0.1-0.2,0-0.2,0c-0.7-0.4-1.4-0.7-2.1-0.7c-0.5,0-1,0.1-1.2,0.3c-0.3,0.2-0.4,0.5-0.4,0.8s0.1,0.5,0.3,0.6
	c0.2,0.2,0.4,0.3,0.6,0.4c0.3,0.1,0.6,0.2,1.2,0.4c1,0.3,1.8,0.7,2.3,1.1c0.5,0.4,0.7,1,0.7,1.8c0,1-0.4,1.8-1.1,2.4
	c-0.7,0.6-1.6,0.9-2.8,0.9C889.5,549.4,888.9,549.3,888.3,549.2"/>
<path id="path30-5" inkscape:connector-curvature="0" inkscape:export-filename="/home/system/instituto_tim/headers_e_footers/instituto_tim_header_footer.png" inkscape:export-xdpi="90" inkscape:export-ydpi="90" class="st3" d="
	M897.3,548.7c-0.3-0.3-0.4-0.6-0.6-1c-0.1-0.4-0.2-0.9-0.2-1.5V541h-1.4c-0.1,0-0.1,0-0.2-0.1c0-0.1,0-0.3,0-0.5v-0.1
	c0-0.2,0-0.4,0-0.5s0.1-0.1,0.2-0.2c0.5-0.2,1-0.3,1.2-0.6c0.3-0.2,0.5-0.5,0.6-0.9s0.2-0.8,0.3-1.5c0-0.1,0.1-0.1,0.2-0.2
	c0.1,0,0.3,0,0.5,0h0.2c0.3,0,0.5,0,0.6,0s0.1,0.1,0.1,0.2v2.5h2.4c0.1,0,0.1,0,0.2,0.1c0,0.1,0,0.3,0,0.7v0.1c0,0.4,0,0.6,0,0.7
	c0,0.1-0.1,0.1-0.2,0.1h-2.4v5.1c0,0.3,0,0.6,0.1,0.8c0,0.2,0.1,0.3,0.3,0.5s0.5,0.3,0.9,0.3s0.7-0.1,1.1-0.2c0.1,0,0.2,0,0.2,0.1
	c0.1,0.1,0.1,0.3,0.2,0.6l0.1,0.2c0.1,0.3,0.1,0.4,0.1,0.5s-0.1,0.2-0.2,0.2c-0.3,0.1-0.6,0.2-1,0.3s-0.7,0.1-1.1,0.1
	C898.6,549.4,897.8,549.2,897.3,548.7"/>
<path id="path32-6" inkscape:connector-curvature="0" inkscape:export-filename="/home/system/instituto_tim/headers_e_footers/instituto_tim_header_footer.png" inkscape:export-xdpi="90" inkscape:export-ydpi="90" class="st3" d="
	M903.7,549.2c-0.1,0-0.2-0.1-0.2-0.2v-9.5c0-0.1,0.1-0.2,0.2-0.2c0.1,0,0.4,0,0.9,0h0.1c0.4,0,0.7,0,0.8,0s0.2,0.1,0.2,0.2v9.5
	c0,0.1-0.1,0.2-0.2,0.2c-0.1,0-0.4,0.1-0.8,0.1h-0.1C904.1,549.3,903.8,549.2,903.7,549.2L903.7,549.2z M903.6,537.1
	c-0.3-0.3-0.4-0.6-0.4-1s0.1-0.7,0.4-1c0.3-0.3,0.6-0.4,1-0.4s0.7,0.1,1,0.4c0.3,0.3,0.4,0.6,0.4,1s-0.1,0.7-0.4,1
	c-0.3,0.3-0.6,0.4-1,0.4C904.2,537.5,903.9,537.4,903.6,537.1"/>
<path id="path34-2" inkscape:connector-curvature="0" inkscape:export-filename="/home/system/instituto_tim/headers_e_footers/instituto_tim_header_footer.png" inkscape:export-xdpi="90" inkscape:export-ydpi="90" class="st3" d="
	M910.1,548.7c-0.3-0.3-0.4-0.6-0.6-1c-0.1-0.4-0.2-0.9-0.2-1.5V541h-1.5c-0.1,0-0.1,0-0.2-0.1c0-0.1,0-0.3,0-0.5v-0.1
	c0-0.2,0-0.4,0-0.5s0.1-0.1,0.2-0.2c0.5-0.2,1-0.3,1.2-0.6c0.3-0.2,0.5-0.5,0.6-0.9s0.2-0.8,0.3-1.5c0-0.1,0.1-0.1,0.2-0.2
	c0.1,0,0.3,0,0.5,0h0.2c0.3,0,0.5,0,0.6,0s0.1,0.1,0.1,0.2v2.5h2.4c0.1,0,0.1,0,0.2,0.1s0,0.3,0,0.7v0.1c0,0.4,0,0.6,0,0.7
	c0,0.1-0.1,0.1-0.2,0.1h-2.4v5.1c0,0.3,0,0.6,0.1,0.8c0,0.2,0.1,0.3,0.3,0.5s0.5,0.3,0.9,0.3s0.7-0.1,1.1-0.2c0.1,0,0.2,0,0.2,0.1
	c0.1,0.1,0.1,0.3,0.2,0.6l0.1,0.2c0.1,0.3,0.1,0.4,0.1,0.5s-0.1,0.2-0.2,0.2c-0.3,0.1-0.6,0.2-1,0.3s-0.7,0.1-1.1,0.1
	C911.3,549.4,910.6,549.2,910.1,548.7"/>
<path id="path36-9" inkscape:connector-curvature="0" inkscape:export-filename="/home/system/instituto_tim/headers_e_footers/instituto_tim_header_footer.png" inkscape:export-xdpi="90" inkscape:export-ydpi="90" class="st3" d="
	M917,548.4c-0.3-0.4-0.5-0.8-0.7-1.3c-0.1-0.5-0.2-1.1-0.2-1.8v-5.8c0-0.1,0.1-0.2,0.2-0.2c0.1,0,0.4-0.1,0.8-0.1h0.1
	c0.5,0,0.8,0,0.9,0.1c0.1,0,0.2,0.1,0.2,0.2v5c0,0.7,0,1.3,0.1,1.6s0.2,0.6,0.4,0.8c0.3,0.4,0.8,0.5,1.5,0.5c0.3,0,0.6,0,0.9-0.1
	c0.3-0.1,0.5-0.2,0.7-0.4c0.3-0.3,0.5-0.6,0.5-1.1c0-0.3,0-1,0-2.1v-4.2c0-0.1,0.1-0.2,0.2-0.2c0.1,0,0.4-0.1,0.8-0.1h0.1
	c0.5,0,0.8,0,0.9,0.1c0.1,0,0.2,0.1,0.2,0.2v5.8c0,1.4,0,2.6,0.1,3.6c0,0.1,0,0.2-0.2,0.2c-0.1,0-0.4,0.1-0.8,0.1h-0.1
	c-0.4,0-0.6,0-0.8,0c-0.1,0-0.2-0.1-0.2-0.2c-0.1-0.3-0.1-0.6-0.1-0.9c-0.3,0.4-0.7,0.7-1.2,1c-0.5,0.2-1,0.3-1.7,0.3
	C918.5,549.4,917.6,549.1,917,548.4"/>
<path id="path38-1" inkscape:connector-curvature="0" inkscape:export-filename="/home/system/instituto_tim/headers_e_footers/instituto_tim_header_footer.png" inkscape:export-xdpi="90" inkscape:export-ydpi="90" class="st3" d="
	M928.5,548.7c-0.3-0.3-0.4-0.6-0.6-1c-0.1-0.4-0.2-0.9-0.2-1.5V541h-1.5c-0.1,0-0.1,0-0.2-0.1c0-0.1,0-0.3,0-0.5v-0.1
	c0-0.2,0-0.4,0-0.5s0.1-0.1,0.2-0.2c0.5-0.2,1-0.3,1.2-0.6c0.3-0.2,0.5-0.5,0.6-0.9s0.2-0.8,0.3-1.5c0-0.1,0.1-0.1,0.2-0.2
	c0.1,0,0.3,0,0.5,0h0.2c0.3,0,0.5,0,0.6,0s0.1,0.1,0.1,0.2v2.5h2.4c0.1,0,0.1,0,0.2,0.1c0,0.1,0,0.3,0,0.7v0.1c0,0.4,0,0.6,0,0.7
	c0,0.1-0.1,0.1-0.2,0.1h-2.4v5.1c0,0.3,0,0.6,0.1,0.8c0,0.2,0.1,0.3,0.3,0.5s0.5,0.3,0.9,0.3s0.7-0.1,1.1-0.2c0.1,0,0.2,0,0.2,0.1
	s0.1,0.3,0.2,0.6l0.1,0.2c0.1,0.3,0.1,0.4,0.1,0.5s-0.1,0.2-0.2,0.2c-0.3,0.1-0.6,0.2-1,0.3s-0.7,0.1-1.1,0.1
	C929.7,549.4,929,549.2,928.5,548.7"/>
<path id="path40-2" inkscape:connector-curvature="0" inkscape:export-filename="/home/system/instituto_tim/headers_e_footers/instituto_tim_header_footer.png" inkscape:export-xdpi="90" inkscape:export-ydpi="90" class="st3" d="
	M940.4,546.7c0.4-0.6,0.7-1.4,0.7-2.5c0-1-0.2-1.8-0.5-2.3c-0.4-0.6-0.9-0.9-1.7-0.9s-1.4,0.3-1.8,0.9c-0.4,0.6-0.6,1.4-0.6,2.5
	c0,1,0.2,1.8,0.5,2.3c0.4,0.6,0.9,0.9,1.7,0.9C939.4,547.6,940,547.3,940.4,546.7z M935.3,548.1c-0.8-0.9-1.2-2.1-1.2-3.7
	c0-1.7,0.4-3.1,1.2-4s2-1.4,3.5-1.4c1.4,0,2.5,0.4,3.3,1.3c0.8,0.9,1.2,2.1,1.2,3.7c0,1.7-0.4,3.1-1.2,4s-2,1.4-3.5,1.4
	S936,549,935.3,548.1"/>
<path id="path42-7" inkscape:connector-curvature="0" inkscape:export-filename="/home/system/instituto_tim/headers_e_footers/instituto_tim_header_footer.png" inkscape:export-xdpi="90" inkscape:export-ydpi="90" class="st3" d="
	M1002.3,535.7h-0.9c-1.2,0-1.2,0.1-1.3,0.3l-1.8,4.3c-0.6,1.4-1.2,3-1.5,3.8c-0.2-0.8-0.6-1.9-1.5-3.9l-1.8-4.3
	c-0.1-0.3-0.6-0.3-1.6-0.3h-1c-1,0-1.2,0.1-1.2,0.3V549c0,0.2,0.2,0.3,1.2,0.3h0.6c1,0,1.3-0.1,1.3-0.3v-7.8h0.1
	c0,0,0.1,0.4,0.2,0.7l2.1,4.9c0.1,0.2,0.2,0.3,1.2,0.3h0.6c1,0,1.1-0.1,1.2-0.3l1.9-4.7c0.2-0.4,0.3-0.9,0.3-0.9h0.1v7.8
	c0,0.2,0.2,0.3,1.3,0.3h0.5c1,0,1.3-0.1,1.3-0.3v-13.1C1003.6,535.7,1003.3,535.7,1002.3,535.7 M987.1,536c0-0.2-0.3-0.3-1.3-0.3
	h-0.6c-1.1,0-1.2,0.1-1.2,0.3v13.1c0,0.2,0.2,0.3,1.2,0.3h0.6c1,0,1.3-0.1,1.3-0.3V536z M981.6,535.7c0.3,0,0.3,0,0.3,1v0.9
	c0,0.9-0.1,1-0.3,1h-3.1v10.5c0,0.2-0.3,0.3-1.3,0.3h-0.5c-1.1,0-1.2-0.1-1.2-0.3v-10.5h-3.1c-0.3,0-0.3-0.1-0.3-1v-0.9
	c0-1,0.1-1,0.3-1H981.6"/>
<path id="path44-0" inkscape:connector-curvature="0" inkscape:export-filename="/home/system/instituto_tim/headers_e_footers/instituto_tim_header_footer.png" inkscape:export-xdpi="90" inkscape:export-ydpi="90" class="st4" d="
	M958.4,546.4h-5.8c-0.2,0-0.4,0.1-0.6,0.2c-0.1,0.1-0.2,0.3-0.2,0.6v1.4c0,0.2,0.1,0.4,0.2,0.6c0.1,0.1,0.3,0.2,0.6,0.2h5.8V546.4
	L958.4,546.4z M968,546.7c-0.1-0.1-0.3-0.2-0.6-0.2h-5.8v2.9h5.8c0.2,0,0.4-0.1,0.6-0.2c0.1-0.1,0.2-0.3,0.2-0.6v-1.4
	C968.2,547,968.2,546.8,968,546.7 M968,541.3c-0.1-0.1-0.3-0.2-0.6-0.2h-5.8v2.9h5.8c0.2,0,0.4-0.1,0.6-0.2c0.1-0.1,0.2-0.3,0.2-0.6
	v-1.4C968.2,541.6,968.2,541.4,968,541.3 M958.4,541h-5.8c-0.2,0-0.4,0.1-0.6,0.2c-0.1,0.1-0.2,0.3-0.2,0.6v1.4
	c0,0.2,0.1,0.4,0.2,0.6c0.1,0.1,0.3,0.2,0.6,0.2h5.8V541L958.4,541z M967.5,538.6h-14.8c-0.2,0-0.4-0.1-0.6-0.2
	c-0.1-0.1-0.2-0.3-0.2-0.6v-1.4c0-0.2,0.1-0.4,0.2-0.6c0.1-0.1,0.3-0.2,0.6-0.2h14.8c0.2,0,0.4,0.1,0.6,0.2c0.1,0.1,0.2,0.3,0.2,0.6
	v1.4c0,0.2-0.1,0.4-0.2,0.6C967.9,538.5,967.7,538.6,967.5,538.6"/>
<g id="flowRoot3777-2-4-8" transform="translate(-90.010744,806.22559)" inkscape:export-filename="/home/system/instituto_tim/headers_e_footers/instituto_tim_header_footer.png" inkscape:export-xdpi="90" inkscape:export-ydpi="90">
</g>
<rect id="rect3755-6-5_8_" y="102.5" inkscape:export-filename="/home/system/instituto_tim/headers_e_footers/instituto_tim_header_footer.png" inkscape:export-xdpi="90" inkscape:export-ydpi="90" class="st5" width="1024" height="90">
</rect>
<rect id="rect3755-6-5_1_" x="4.4" y="102.5" inkscape:export-filename="/home/system/instituto_tim/headers_e_footers/instituto_tim_header_footer.png" inkscape:export-xdpi="90" inkscape:export-ydpi="90" class="st5" width="1019.3" height="90">
</rect>
<path id="path24-9-2_4_" inkscape:connector-curvature="0" inkscape:export-filename="/home/system/instituto_tim/headers_e_footers/instituto_tim_header_footer.png" inkscape:export-xdpi="90" inkscape:export-ydpi="90" class="st3" d="
	M21.3,155.1c-0.3,0-0.4-0.1-0.5-0.1s-0.1-0.1-0.1-0.2v-18.7c0-0.1,0-0.2,0.1-0.2s0.2-0.1,0.5-0.1c0.3,0,0.6,0,0.9,0h0.3
	c0.6,0,1.1,0,1.3,0.1c0.2,0,0.3,0.1,0.3,0.3v18.7c0,0.2-0.1,0.3-0.3,0.3s-0.6,0.1-1.3,0.1h-0.3C21.9,155.1,21.6,155.1,21.3,155.1"/>
<path id="path26-1-5_4_" inkscape:connector-curvature="0" inkscape:export-filename="/home/system/instituto_tim/headers_e_footers/instituto_tim_header_footer.png" inkscape:export-xdpi="90" inkscape:export-ydpi="90" class="st3" d="
	M28.4,155c-0.2-0.1-0.3-0.2-0.3-0.3v-8.2c0-1.9,0-3.7-0.1-5.1c0-0.2,0.1-0.3,0.2-0.4c0.2-0.1,0.6-0.1,1.1-0.1h0.2
	c0.6,0,0.9,0,1.1,0.1c0.2,0,0.3,0.1,0.3,0.3c0.1,0.5,0.1,0.8,0.1,1.3c0.5-0.6,1-1,1.7-1.4c0.7-0.4,1.5-0.5,2.4-0.5
	c1.7,0,2.9,0.5,3.8,1.4c0.5,0.5,0.7,1.1,1,1.8c0.2,0.7,0.3,1.6,0.3,2.6v8.3c0,0.2-0.1,0.3-0.3,0.3c-0.2,0.1-0.6,0.1-1.2,0.1h-0.2
	c-0.6,0-1.1,0-1.2-0.1c-0.2-0.1-0.3-0.2-0.3-0.3v-7.2c0-1,0-1.7-0.1-2.2c-0.1-0.5-0.3-0.8-0.6-1.1c-0.5-0.5-1.2-0.7-2.1-0.7
	c-0.9,0-1.7,0.3-2.3,0.7c-0.5,0.4-0.7,0.9-0.7,1.6c0,0.5-0.1,1.5-0.1,3v6c0,0.2-0.1,0.3-0.3,0.3c-0.2,0.1-0.6,0.1-1.2,0.1h-0.1
	C29,155.1,28.6,155.1,28.4,155"/>
<path id="path28-2-4_4_" inkscape:connector-curvature="0" inkscape:export-filename="/home/system/instituto_tim/headers_e_footers/instituto_tim_header_footer.png" inkscape:export-xdpi="90" inkscape:export-ydpi="90" class="st3" d="
	M45.4,155c-0.8-0.3-1.6-0.6-2.1-1c-0.1-0.1-0.2-0.2-0.2-0.3c0-0.1,0.1-0.4,0.4-0.8l0.2-0.4c0.2-0.3,0.3-0.5,0.4-0.6
	c0.1-0.1,0.2-0.2,0.3-0.2c0,0,0.1,0,0.2,0.1c1.4,0.7,2.6,1.1,3.8,1.1c0.7,0,1.3-0.2,1.7-0.5c0.5-0.3,0.6-0.7,0.6-1.2
	c0-0.5-0.2-0.9-0.6-1.1c-0.5-0.3-1.3-0.6-2.5-0.8c-1.4-0.4-2.4-0.9-3-1.6c-0.6-0.6-0.9-1.5-0.9-2.7c0-1.4,0.5-2.4,1.5-3.2
	c1-0.7,2.2-1.2,3.9-1.2c0.8,0,1.7,0.1,2.4,0.4c0.7,0.3,1.5,0.6,2,1c0.1,0.1,0.2,0.2,0.2,0.3c0,0.1-0.2,0.4-0.5,0.8l-0.2,0.3
	c-0.3,0.4-0.4,0.6-0.6,0.6c-0.1,0.1-0.2,0.1-0.4,0c-1-0.6-1.9-0.9-2.9-0.9c-0.7,0-1.4,0.1-1.7,0.4c-0.4,0.3-0.6,0.6-0.6,1.2
	c0,0.4,0.1,0.6,0.4,0.8c0.3,0.2,0.6,0.4,0.9,0.6c0.4,0.1,0.9,0.3,1.7,0.6c1.5,0.5,2.6,0.9,3.2,1.6c0.6,0.6,1,1.5,1,2.6
	c0,1.5-0.5,2.6-1.5,3.4c-1,0.8-2.3,1.2-4,1.2C47.1,155.3,46.2,155.3,45.4,155"/>
<path id="path30-7-7_4_" inkscape:connector-curvature="0" inkscape:export-filename="/home/system/instituto_tim/headers_e_footers/instituto_tim_header_footer.png" inkscape:export-xdpi="90" inkscape:export-ydpi="90" class="st3" d="
	M58.3,154.3c-0.4-0.4-0.6-0.8-0.8-1.4c-0.2-0.6-0.3-1.3-0.3-2.2v-7.4H55c-0.1,0-0.2-0.1-0.3-0.2c0-0.1-0.1-0.4-0.1-0.7v-0.2
	c0-0.4,0-0.6,0.1-0.6c0-0.1,0.1-0.2,0.3-0.2c0.7-0.2,1.4-0.5,1.7-0.8c0.4-0.3,0.7-0.7,0.9-1.2c0.2-0.5,0.4-1.2,0.5-2
	c0-0.1,0.1-0.2,0.2-0.2c0.1,0,0.4,0,0.7,0h0.2c0.4,0,0.6,0,0.8,0.1c0.1,0,0.2,0.1,0.2,0.3v3.6h3.4c0.1,0,0.2,0.1,0.3,0.2
	c0,0.1,0.1,0.5,0.1,0.9v0.2c0,0.5,0,0.8-0.1,0.9c0,0.1-0.1,0.2-0.3,0.2h-3.4v7.2c0,0.5,0,0.8,0.1,1.1c0.1,0.3,0.2,0.5,0.4,0.6
	c0.3,0.3,0.7,0.5,1.4,0.5c0.6,0,1-0.1,1.6-0.3c0.1,0,0.2,0,0.3,0.1c0.1,0.1,0.2,0.4,0.4,0.8l0.2,0.1c0.1,0.4,0.2,0.6,0.2,0.7
	c0,0.2-0.1,0.3-0.3,0.4c-0.5,0.2-0.9,0.4-1.5,0.5c-0.6,0.1-1,0.2-1.6,0.2C60,155.3,59,155,58.3,154.3"/>
<path id="path32-0-4_4_" inkscape:connector-curvature="0" inkscape:export-filename="/home/system/instituto_tim/headers_e_footers/instituto_tim_header_footer.png" inkscape:export-xdpi="90" inkscape:export-ydpi="90" class="st3" d="
	M67.4,155c-0.2,0-0.3-0.2-0.3-0.3v-13.5c0-0.2,0.1-0.3,0.3-0.3s0.6-0.1,1.2-0.1h0.2c0.6,0,1,0,1.2,0.1c0.2,0,0.3,0.2,0.3,0.3v13.5
	c0,0.1-0.1,0.2-0.3,0.3c-0.2,0.1-0.6,0.1-1.2,0.1h-0.2C67.9,155.1,67.5,155.1,67.4,155L67.4,155z M67.3,137.8
	c-0.4-0.4-0.6-0.8-0.6-1.4s0.2-1,0.6-1.4c0.4-0.4,0.8-0.6,1.4-0.6c0.6,0,1,0.2,1.4,0.6c0.4,0.4,0.6,0.8,0.6,1.4s-0.2,1-0.6,1.4
	c-0.4,0.4-0.8,0.6-1.4,0.6C68.1,138.4,67.6,138.2,67.3,137.8"/>
<path id="path34-9-4_4_" inkscape:connector-curvature="0" inkscape:export-filename="/home/system/instituto_tim/headers_e_footers/instituto_tim_header_footer.png" inkscape:export-xdpi="90" inkscape:export-ydpi="90" class="st3" d="
	M76.4,154.3c-0.4-0.4-0.6-0.8-0.8-1.4s-0.3-1.3-0.3-2.2v-7.4h-2.2c-0.1,0-0.2-0.1-0.3-0.2c0-0.1-0.1-0.4-0.1-0.7v-0.2
	c0-0.4,0-0.6,0.1-0.6c0-0.1,0.1-0.2,0.3-0.2c0.7-0.2,1.4-0.5,1.7-0.8c0.4-0.3,0.7-0.7,0.9-1.2c0.2-0.5,0.4-1.2,0.5-2
	c0-0.1,0.1-0.2,0.2-0.2s0.4,0,0.7,0h0.2c0.4,0,0.6,0,0.8,0.1c0.1,0,0.2,0.1,0.2,0.3v3.6h3.4c0.1,0,0.2,0.1,0.3,0.2
	c0,0.1,0.1,0.5,0.1,0.9v0.2c0,0.5,0,0.8-0.1,0.9c0,0.1-0.1,0.2-0.3,0.2h-3.4v7.2c0,0.5,0,0.8,0.1,1.1c0.1,0.3,0.2,0.5,0.4,0.6
	c0.3,0.3,0.7,0.5,1.4,0.5c0.6,0,1-0.1,1.6-0.3c0.1,0,0.2,0,0.3,0.1c0.1,0.1,0.2,0.4,0.4,0.8l0.1,0.3c0.1,0.4,0.2,0.6,0.2,0.7
	c0,0.2-0.1,0.3-0.3,0.4c-0.5,0.2-0.9,0.4-1.5,0.5s-1,0.2-1.6,0.2C78.1,155.3,77.1,155,76.4,154.3"/>
<path id="path36-3-3_4_" inkscape:connector-curvature="0" inkscape:export-filename="/home/system/instituto_tim/headers_e_footers/instituto_tim_header_footer.png" inkscape:export-xdpi="90" inkscape:export-ydpi="90" class="st3" d="
	M86.3,154c-0.5-0.5-0.7-1.1-1-1.8c-0.2-0.7-0.3-1.6-0.3-2.6v-8.3c0-0.2,0.1-0.3,0.3-0.3c0.2-0.1,0.6-0.1,1.2-0.1h0.2
	c0.6,0,1.1,0,1.2,0.1c0.2,0.1,0.3,0.2,0.3,0.3v7.2c0,1,0,1.7,0.1,2.2c0.1,0.5,0.3,0.8,0.6,1.1c0.5,0.5,1.2,0.7,2,0.7
	c0.5,0,0.9-0.1,1.3-0.2c0.4-0.1,0.7-0.3,1-0.6c0.5-0.4,0.7-0.9,0.7-1.6c0-0.5,0.1-1.5,0.1-3v-6c0-0.2,0.1-0.3,0.3-0.3
	c0.2-0.1,0.6-0.1,1.2-0.1h0.1c0.6,0,1.1,0,1.3,0.1s0.3,0.2,0.3,0.3v8.2c0,1.9,0,3.7,0.1,5.1c0,0.2-0.1,0.3-0.2,0.4
	c-0.2,0.1-0.6,0.1-1.1,0.1h-0.2c-0.6,0-0.9,0-1.1-0.1c-0.2,0-0.3-0.1-0.3-0.3c-0.1-0.5-0.1-0.8-0.1-1.3c-0.5,0.6-1,1-1.7,1.4
	c-0.7,0.4-1.5,0.5-2.4,0.5C88.4,155.3,87.2,154.9,86.3,154"/>
<path id="path38-6-0_4_" inkscape:connector-curvature="0" inkscape:export-filename="/home/system/instituto_tim/headers_e_footers/instituto_tim_header_footer.png" inkscape:export-xdpi="90" inkscape:export-ydpi="90" class="st3" d="
	M102.6,154.3c-0.4-0.4-0.6-0.8-0.8-1.4c-0.2-0.6-0.3-1.3-0.3-2.2v-7.4h-2.2c-0.1,0-0.2-0.1-0.3-0.2c0-0.1-0.1-0.4-0.1-0.7v-0.2
	c0-0.4,0-0.6,0.1-0.6c0-0.1,0.1-0.2,0.3-0.2c0.7-0.2,1.4-0.5,1.7-0.8c0.4-0.3,0.7-0.7,0.9-1.2s0.4-1.2,0.5-2c0-0.1,0.1-0.2,0.2-0.2
	c0.1,0,0.4,0,0.7,0h0.2c0.4,0,0.6,0,0.8,0.1c0.1,0,0.2,0.1,0.2,0.3v3.6h3.4c0.1,0,0.2,0.1,0.3,0.2c0,0.1,0.1,0.5,0.1,0.9v0.2
	c0,0.5,0,0.8-0.1,0.9c0,0.1-0.1,0.2-0.3,0.2h-3.4v7.2c0,0.5,0,0.8,0.1,1.1c0.1,0.3,0.2,0.5,0.4,0.6c0.3,0.3,0.7,0.5,1.4,0.5
	c0.6,0,1-0.1,1.6-0.3c0.1,0,0.2,0,0.3,0.1c0.1,0.1,0.2,0.4,0.3,0.8l0.1,0.3c0.1,0.4,0.2,0.6,0.2,0.7c0,0.2-0.1,0.3-0.3,0.4
	c-0.5,0.2-0.9,0.4-1.5,0.5s-1,0.2-1.6,0.2C104.4,155.3,103.4,155,102.6,154.3"/>
<path id="path40-0-7_4_" inkscape:connector-curvature="0" inkscape:export-filename="/home/system/instituto_tim/headers_e_footers/instituto_tim_header_footer.png" inkscape:export-xdpi="90" inkscape:export-ydpi="90" class="st3" d="
	M119.6,151.5c0.6-0.8,0.9-2,0.9-3.6c0-1.4-0.3-2.6-0.7-3.3c-0.6-0.8-1.4-1.2-2.5-1.2c-1.1,0-2,0.4-2.6,1.2c-0.6,0.8-0.9,2-0.9,3.6
	c0,1.4,0.3,2.5,0.7,3.3c0.6,0.8,1.3,1.2,2.4,1.2C118.1,152.7,119,152.2,119.6,151.5L119.6,151.5z M112.2,153.5
	c-1.1-1.2-1.7-2.9-1.7-5.2c0-2.5,0.6-4.3,1.7-5.7c1.2-1.3,2.8-1.9,5.1-1.9c2,0,3.6,0.6,4.7,1.8c1.1,1.2,1.7,2.9,1.7,5.2
	c0,2.5-0.6,4.3-1.7,5.7c-1.2,1.3-2.8,1.9-5.1,1.9C114.9,155.3,113.3,154.7,112.2,153.5"/>
<path id="path42-6-8_4_" inkscape:connector-curvature="0" inkscape:export-filename="/home/system/instituto_tim/headers_e_footers/instituto_tim_header_footer.png" inkscape:export-xdpi="90" inkscape:export-ydpi="90" class="st3" d="
	M207.6,135.8h-1.3c-1.7,0-1.7,0.2-1.9,0.5l-2.6,6.2c-0.8,2-1.7,4.2-2.1,5.4c-0.3-1.1-0.9-2.7-2.1-5.5l-2.6-6.1
	c-0.2-0.4-0.8-0.5-2.2-0.5h-1.5c-1.5,0-1.7,0.1-1.7,0.5v18.7c0,0.4,0.3,0.5,1.7,0.5h0.8c1.5,0,1.8-0.1,1.8-0.5v-11.1h0.1
	c0,0,0.1,0.6,0.4,1l2.9,7c0.1,0.3,0.3,0.5,1.7,0.5h0.9c1.4,0,1.5-0.1,1.7-0.5l2.7-6.7c0.3-0.6,0.5-1.3,0.5-1.3h0.1v11.1
	c0,0.4,0.3,0.5,1.8,0.5h0.7c1.5,0,1.8-0.1,1.8-0.5v-18.7C209.4,135.9,209,135.8,207.6,135.8 M186.1,136.1c0-0.3-0.5-0.5-1.8-0.5
	h-0.8c-1.5,0-1.7,0.1-1.7,0.5v18.7c0,0.4,0.3,0.5,1.7,0.5h0.8c1.5,0,1.8-0.1,1.8-0.5V136.1z M178.1,135.8c0.4,0,0.5,0.1,0.5,1.5v1.3
	c0,1.3-0.1,1.5-0.5,1.5h-4.4v14.9c0,0.4-0.5,0.5-1.9,0.5H171c-1.5,0-1.7-0.1-1.7-0.5V140h-4.4c-0.4,0-0.5-0.1-0.5-1.5v-1.3
	c0-1.5,0.1-1.5,0.5-1.5H178.1"/>
<path id="path44-2-6_4_" inkscape:connector-curvature="0" inkscape:export-filename="/home/system/instituto_tim/headers_e_footers/instituto_tim_header_footer.png" inkscape:export-xdpi="90" inkscape:export-ydpi="90" class="st4" d="
	M145.2,151.1H137c-0.3,0-0.6,0.1-0.8,0.4c-0.2,0.2-0.4,0.5-0.4,0.8v1.9c0,0.3,0.1,0.6,0.4,0.8c0.2,0.2,0.5,0.4,0.8,0.4h8.2V151.1
	L145.2,151.1z M158.8,151.4c-0.2-0.2-0.5-0.4-0.8-0.4h-8.2v4.1h8.2c0.3,0,0.6-0.1,0.8-0.4c0.2-0.2,0.4-0.5,0.4-0.8V152
	C159.2,151.9,159.1,151.6,158.8,151.4 M158.8,143.8c-0.2-0.2-0.5-0.4-0.8-0.4h-8.2v4.1h8.2c0.3,0,0.6-0.1,0.8-0.4
	c0.2-0.2,0.4-0.5,0.4-0.8v-1.9C159.2,144.2,159.1,143.9,158.8,143.8 M145.2,143.4H137c-0.3,0-0.6,0.1-0.8,0.4
	c-0.2,0.2-0.4,0.5-0.4,0.8v1.9c0,0.3,0.1,0.6,0.4,0.8c0.2,0.2,0.5,0.4,0.8,0.4h8.2V143.4L145.2,143.4z M158.1,139.9h-21.1
	c-0.3,0-0.6-0.1-0.8-0.4c-0.2-0.2-0.4-0.5-0.4-0.8v-1.9c0-0.3,0.1-0.6,0.4-0.8c0.2-0.2,0.5-0.4,0.8-0.4h21.1c0.3,0,0.6,0.1,0.8,0.4
	c0.2,0.2,0.4,0.5,0.4,0.8v1.9c0,0.3-0.1,0.6-0.4,0.8C158.6,139.8,158.3,139.9,158.1,139.9"/>
<rect id="rect3039-6-8_7_" x="368.7" y="150.7" inkscape:export-filename="/home/system/instituto_tim/headers_e_footers/instituto_tim_header_footer.png" inkscape:export-xdpi="90" inkscape:export-ydpi="90" class="st2" width="634.4" height="1">
</rect>
<path id="rect3913-6-5_4_" inkscape:export-filename="/home/system/instituto_tim/headers_e_footers/instituto_tim_header_footer.png" inkscape:export-xdpi="90" inkscape:export-ydpi="90" class="st3" d="
	M379.8,114h309.8c1.6,0,2.8,1.3,2.8,2.8v21.6c0,1.6-1.3,2.8-2.8,2.8H379.8c-1.6,0-2.8-1.3-2.8-2.8v-21.6
	C376.9,115.3,378.2,114,379.8,114z"/>
<g id="g3083-6-1_4_" transform="matrix(0.02322948,0,0,0.02322948,737.75606,819.54814)" inkscape:export-filename="/home/system/instituto_tim/headers_e_footers/instituto_tim_header_footer.png" inkscape:export-xdpi="90" inkscape:export-ydpi="90">
	<path id="path3085-5-5_4_" inkscape:connector-curvature="0" class="st6" d="M-2352.7-29504.1c-1.7-0.5-6.3-1.8-10.3-2.8
		c-15.8-4.2-13.1-1.8-93.4-81.9c-40.6-40.4-73.7-74-73.7-74.6s3.7-3.6,8.3-6.7c23-15.8,50.4-43.3,65.7-66.1c2.5-3.7,5-6.7,5.5-6.7
		c0.6,0,34.1,33.2,74.6,73.7c78.6,78.8,77.4,77.5,81.2,91.3c0.9,3,2.2,8,3.1,11c1.5,5.3,1.4,8.1-0.4,12.5c-0.5,1.1-1.4,4.3-2.1,7
		c-4.6,18.9-20.4,35.1-39,40c-3.6,0.9-7.4,2.1-8.5,2.5C-2345.2-29503.5-2349.6-29503.2-2352.7-29504.1z M-2696.7-29662.1
		c-54.9-3-109.5-27.8-149.4-67.9c-36.2-36.4-59.6-83.5-65.7-132.5c-0.9-7.2-2.1-14.8-2.8-17c-1.5-5-1.4-25.1,0.1-30.2
		c0.6-2.1,1.9-9.7,2.8-16.8c4.8-38.2,20.6-76.2,45.1-108.8c9.9-13.1,30.9-34.2,44-44c32.6-24.6,70.8-40.4,108.9-45.2
		c7.2-0.9,14.6-2.1,16.5-2.8c4.4-1.4,29.2-1.5,32.3-0.1c1.2,0.6,8.3,1.8,15.7,2.8c84,10.7,158.1,70.9,186.8,151.5
		c9.4,26.5,13.3,49.3,13.4,78c0,23-1.7,37.8-7.1,59c-14.7,58.4-53.3,110-105.5,141.2C-2602.6-29670.3-2647.6-29659.4-2696.7-29662.1
		z M-2656.9-29718c29.5-4.4,57.4-16,81.7-33.8c9.5-7,28.9-26.3,36.1-36.1c17.5-23.5,29.1-51.8,33.8-82c1.6-10.1,1.3-40-0.5-51
		c-6.2-38.4-22.6-70.7-49.6-98.1c-45.2-45.7-110.9-63.4-172.9-46.5c-66.9,18.3-116.6,73.6-128.6,143.1c-2.6,14.8-2.3,44.2,0.5,59.5
		c11.3,61.9,54.7,113.6,113.5,135.4c20.6,7.6,36.4,10.4,60.6,10.5C-2672.4-29717-2660.9-29717.4-2656.9-29718z M-2816.2-29901.3
		c0-10.1,3.9-28.5,8.7-41.1c16.2-42.8,54.3-74.8,99.9-84c6.7-1.4,15-2.5,18.3-2.5h6.1v17.4v17.4l-3.8,0.5c-2.1,0.3-6.5,0.8-9.8,1.2
		c-7.9,0.9-20.2,4.8-29.5,9.5c-18.8,9.4-34.6,25.3-44,44c-6.4,12.8-8.3,19.5-10.6,38.3l-0.6,4.8h-17.4h-17.4
		C-2816.2-29896-2816.2-29901.3-2816.2-29901.3z"/>
</g>
<g>
	<polyline class="st7" points="438,170.4 442,175.2 446.4,170.4 	"/>
	<text transform="matrix(1 0 0 1 384.4144 176.3062)" class="st3 st8 st9">o QUE É?</text>
</g>
<text transform="matrix(1 0 0 1 384.4144 132.0218)" class="st10 st8 st11">O que você procura?</text>
<g>
	<polyline class="st7" points="570,170.4 574,175.2 578.4,170.4 	"/>
	<text transform="matrix(1 0 0 1 476.2641 176.3062)" class="st3 st8 st9">As 7 operações</text>
</g>
<g>
	<polyline class="st7" points="682.6,170.4 686.7,175.2 691,170.4 	"/>
	<text transform="matrix(1 0 0 1 607.5066 176.3062)" class="st3 st8 st9">Pensadores</text>
</g>
<g>
	<polyline class="st7" points="775.6,170.4 779.7,175.2 784,170.4 	"/>
	<text transform="matrix(1 0 0 1 720.3462 176.3062)" class="st3 st8 st9">notícias</text>
</g>
<g>
	<polyline class="st7" points="899.5,170.4 903.5,175.2 907.9,170.4 	"/>
	<text transform="matrix(1 0 0 1 812.6909 176.3062)" class="st3 st8 st9">fale conosco</text>
</g>
<g>
	<polyline class="st7" points="994.7,170.4 998.7,175.2 1003.1,170.4 	"/>
	<text transform="matrix(1 0 0 1 935.5548 176.3062)" class="st3 st8 st9">Participe</text>
</g>
<rect id="rect3039-6-8_6_" x="223.2" y="133.7" inkscape:export-filename="/home/system/instituto_tim/headers_e_footers/instituto_tim_header_footer.png" inkscape:export-xdpi="90" inkscape:export-ydpi="90" class="st12" width="1" height="23.8">
</rect>
<g>
	<defs>
		<polygon id="SVGID_1_" points="351.8,192.5 246.3,192.5 245.9,130.6 351.5,130.6 		"/>
	</defs>
	<clipPath id="SVGID_2_">
		<use xlink:href="#SVGID_1_"  style="overflow:visible;"/>
	</clipPath>
	<path class="st13" d="M260,134.3c-0.8,0.7-2,3.6-2,3.6l3.5,1.3c0,0,0.8-2.8,1-3.6C262.3,135.1,260.7,133.6,260,134.3z"/>
	<g class="st14">
		<path class="st15" d="M351.3,189.4c0-0.1,0-0.3,0-0.4c0-0.1,0-0.2-0.1-0.3c0-0.1,0-0.1-0.1-0.2c0-0.1-0.1-0.1-0.1-0.2
			c-0.1-0.2-0.1-0.4-0.2-0.6c0-0.1-0.1-0.2-0.1-0.3c0,0,0-0.1,0-0.1c0,0,0-0.1-0.1-0.1c-0.1-0.3-0.2-0.6-0.4-1c0,0-0.1-0.1-0.1-0.1
			c-0.1-0.3-0.2-0.6-0.3-0.9c0,0,0-0.1-0.1-0.1c-0.1-0.2-0.2-0.4-0.2-0.6c0,0,0-0.1-0.1-0.1c0-0.1,0-0.1-0.1-0.2
			c-0.1,0-0.1-0.1,0-0.1c-0.1-0.3-0.3-0.6-0.4-0.9c0,0,0-0.1-0.1-0.1c-0.2-0.5-0.4-1-0.6-1.4c-0.1,0-0.1-0.1,0-0.1
			c-0.2-0.5-0.4-1-0.7-1.4l0,0l0-0.1c-0.1-0.1-0.2-0.3-0.2-0.4c-0.8-1.5-1.5-3-2.3-4.6c-0.4-0.7-0.8-1.5-1.2-2.2
			c0,0-0.1-0.1-0.1-0.1c-0.8-1.4-1.7-2.7-2.7-4c0-0.1-0.1-0.1-0.1-0.2c0,0,0,0,0,0c0,0-0.1-0.1-0.1-0.1c-0.2-0.3-0.5-0.5-0.7-0.8
			c0-0.1-0.1-0.1-0.1-0.2l0,0c0,0-0.1-0.1-0.1-0.1l0,0c0,0-0.1-0.1-0.1-0.1l0,0c0,0-0.1-0.1-0.1-0.1l0,0c0,0-0.1-0.1-0.1-0.1
			c-0.4-0.4-0.9-0.9-1.3-1.3c0,0-0.1-0.1-0.1-0.1l0,0c0,0-0.1-0.1-0.1-0.1c-0.9-0.8-1.8-1.6-2.7-2.4c0,0-0.1-0.1-0.1-0.1l0,0
			c0,0-0.1-0.1-0.1-0.1l0,0c-0.1,0-0.1-0.1-0.2-0.1c-0.7-0.6-1.5-1.2-2.2-1.7c0,0-0.1-0.1-0.1-0.1l0,0c-0.1,0-0.4-0.2-0.5-0.2
			c-0.1,0-1.4-0.7-1.5-0.8c-0.4-0.3-0.9-0.5-1.3-0.7c-0.6-0.2-1.2-0.4-1.8-0.6c-1.3-0.4-2.6-0.6-4-0.6c-1,0-1.9,0.2-2.8,0.6
			c-0.5,0.2-0.8,0.5-1.5,0.7c0-1,0-2.3-0.1-3.3c0-0.2-0.2-1.9-0.2-2.6c-0.1-1.6-0.2-3.2-0.3-4.7c-0.1-1.2-0.2-2.4-0.3-3.6
			c-0.1-0.8-0.1-1.5-0.2-2.3c-0.1-1.5-0.3-3.1-0.4-4.6c-0.1-1.1-0.2-2.2-0.3-3.3c0-0.4-0.2-0.5-0.5-0.5c-0.8,0-1.5,0-2.3-0.1
			c-2.8,0-5.5-0.1-8.3,0.1c-1.9,0.1-3.7,0.1-5.6,0.2c-1.3,0-2.6,0.1-3.8,0.2c-0.8,0-1.7,0.1-2.5,0.1c-1.8,0.1-3.5,0.2-5.3,0.4
			c-1.1,0.1-2.2,0.1-3.3,0.2c-0.2,0-0.3,0-0.5,0c-0.9,0.1-1.8,0.1-2.6,0.1c-0.6,0-1.1,0-1.7,0c-0.1,0-0.1-0.1-0.2-0.1
			c-0.4-0.1-0.7-0.3-1-0.6c-0.4-0.3-0.8-0.6-1.2-0.8c-1.4-0.8-2.8-1.5-4.3-2.2c-0.4-0.2-0.8-0.4-1.3-0.5c-0.5-0.2-0.9-0.3-1.4-0.4
			c-0.2-0.1-0.5-0.1-0.7-0.2c-0.3,0-0.5-0.1-0.8-0.1c-0.5,0-1,0-1.5,0c-0.8-0.1-1.7-0.1-2.5,0.1c-0.9,0.2-1.8,0.4-2.7,0.8
			c-0.8,0.4-1.6,1-2.2,1.6c-0.4,0.4-0.8,0.8-1.1,1.1c-0.1,0.1-0.5,0.6-0.7,1.1c-0.1,0.2-0.3,0.5-0.3,0.7c0.5,0.2,0.9,0.3,1.4,0.5
			c0.6,0.2,1.2,0.3,1.8,0.2c0.1-0.2,0.3-0.8,0.4-1.1c1-1.5,2.5-2,4.3-1.7c0.9,0.2,1.8,0.6,2.7,1c0.7,0.4,1.3,0.8,1.9,1.2
			c0.1,0.1,0.3,0.2,0.5,0.4c-0.2,0-0.7,0.1-0.9,0.2c-1.2,0.3-2.4,0.5-3.6,0.6c-0.4,0.1-0.8,0.1-1.1,0.3c0,0.4,0.1,0.7,0.1,1.1
			c0,0.7,0,1.5,0,2.2c0,1.3,0,2.6,0.1,3.8c0,1.2,0.2,2.3,0.2,3.5c0.1,3,0.1,6,0.3,9c0.1,1.9,0.2,3.7,0.3,5.6
			c0.1,1.6,0.1,3.3,0.2,4.9c0.1,1.9,0.1,3.9,0.1,5.8c0,1.2,0.1,2.4,0.2,3.6c0,0.3,0.1,0.5,0.1,0.8c0.2,0.1,0.4,0.1,0.5,0.2
			c0.2,0,0.5,0,0.7,0c3.1,0,6.3,0,9.4-0.1c1.8-0.1,3.7-0.1,5.5-0.1c1.8,0,3.5-0.1,5.3-0.1c0.9,0,1.8,0,2.6,0c0,0.1,0,0.1,0.1,0.2
			c0.3,0.3,0.4,0.7,0.5,1.1c0.2,0.8,0,1.6-0.6,2.2c-0.4,0.5-0.9,0.7-1.5,1c-0.1,0-0.2,0.1-0.3,0.1c-0.2,0.1-0.6,0.2-1.3,0.4
			c-0.1,0-0.1,0-0.2,0c-0.2,0.1-0.5,0.1-0.7,0.2c0,0,0,0,0,0l0,0c-0.4,0.1-0.7,0.2-1.1,0.2c-0.1,0-0.2,0-0.3,0
			c-0.2,0-0.4-0.1-0.5,0.1c-0.3,0-0.7,0.1-1,0.1c-0.5,0.1-1,0.2-1.5,0.3c-2,0.3-4.1,0.6-6.2,0.6c-0.9,0-1.7,0.1-2.6,0.1
			c-1.7,0.1-3.4-0.1-5.1-0.7c-0.4-0.1-0.7-0.2-1.1-0.4c-1.6-0.6-3.3-1.2-4.9-1.7c-1-0.3-1.9-0.6-2.9-0.9c-2-0.7-4.1-1.4-6.2-1.7
			c-0.8-0.1-1.5-0.4-2.2-0.8c-1.4-0.8-2-2.4-1.7-3.6c0.1-0.4,0.2-0.8,0.3-1.2c0.5-1.5,0.9-3.1,1.4-4.6c0.8-2.6,1.6-5.2,2.5-7.8
			c0.7-2.3,1.4-4.6,2-7c0.3-1.4,0.6-2.8,1.1-4.2c0.7-1.9,1.4-3.8,2.1-5.7c0.7-2,1.4-4,2-6c0-0.1,0.1-0.2,0-0.3
			c-0.7,0.2-1.9,0-2.3-0.1c0,0-0.1,0-0.1,0c-0.1,0-0.2-0.1-0.3-0.1c-0.2-0.1-0.5-0.2-0.7-0.3c0,0-0.1,0.1-0.1,0.1c0,0,0,0,0,0
			c0,0.1-0.2,0.4-0.3,0.6c0,0.1-0.1,0.2-0.1,0.2c-0.2,0.5-0.5,1-0.7,1.4c0,0.1-0.1,0.1-0.1,0.2c-0.1,0.2-0.1,0.3-0.2,0.5
			c0,0.1-0.1,0.1-0.1,0.2c0,0.1,0,0.1-0.1,0.2c0,0.1-0.1,0.1-0.1,0.2c-0.1,0.2-0.1,0.3-0.2,0.5c0,0.1-0.1,0.1-0.1,0.2
			c0,0.1-0.1,0.3-0.1,0.4l0,0.1l0,0c-0.1,0.2-0.2,0.4-0.2,0.6c0,0,0,0.1,0,0.1c-0.1,0.3-0.2,0.7-0.4,1c0,0,0,0.1-0.1,0.1
			c0,0.1-0.1,0.2-0.1,0.3l0,0.1l0,0c-0.1,0.2-0.1,0.4-0.2,0.6c0,0,0,0.1-0.1,0.1c0,0.1-0.1,0.2-0.1,0.3c0,0,0,0.1,0,0.1
			c-0.1,0.2-0.1,0.4-0.2,0.6c0,0.1-0.1,0.1-0.1,0.2c0,0.1-0.1,0.2-0.1,0.3c0,0,0,0.1-0.1,0.1c0,0.1-0.1,0.2-0.1,0.3c0,0,0,0.1,0,0.1
			c-0.1,0.2-0.1,0.4-0.2,0.6c0,0,0,0.1-0.1,0.1c0,0.1,0,0.2-0.1,0.3c0,0,0,0.1-0.1,0.1c0,0.1-0.1,0.2-0.1,0.3c0,0,0,0.1,0,0.1
			c-0.1,0.3-0.2,0.7-0.3,1c0,0,0,0.1-0.1,0.1c0,0.1-0.1,0.2-0.1,0.3c0,0,0,0.1-0.1,0.1c0,0,0,0.1,0,0.1c0,0.1-0.1,0.2-0.1,0.3
			c-0.1,0.3-0.2,0.7-0.3,1c0,0.1-0.1,0.1-0.1,0.2c0,0.1,0,0.2-0.1,0.3c0,0,0,0.1-0.1,0.1c0,0.1-0.1,0.2-0.1,0.3c0,0,0,0.1-0.1,0.1
			c0,0,0,0.1,0,0.1c0,0.1-0.1,0.2-0.1,0.3c-0.1,0.4-0.3,0.8-0.4,1.3c0,0.1-0.1,0.2-0.1,0.3c0,0,0,0.1,0,0.1c0,0.1-0.1,0.2-0.1,0.3
			c0,0,0,0.1,0,0.1c0,0.1-0.1,0.2-0.1,0.3c0,0,0,0.1,0,0.1c0,0.1-0.1,0.2-0.1,0.3c0,0,0,0.1,0,0.1c0,0.1-0.1,0.2-0.1,0.3
			c0,0,0,0.1,0,0.1c0,0.1-0.1,0.1-0.1,0.2c0,0.1,0,0.2-0.1,0.2c0,0.1-0.1,0.1-0.1,0.2c0,0.1-0.1,0.2-0.1,0.2c0,0.1,0,0.1-0.1,0.2
			c-0.1,0.2-0.2,0.4-0.2,0.7c0,0,0,0.1-0.1,0.1c0,0,0,0.1,0,0.1c0,0.1-0.1,0.1-0.1,0.2c0,0.1,0,0.2-0.1,0.2c0,0.1-0.1,0.1-0.1,0.2
			c0,0.1,0,0.2-0.1,0.2c0,0.1-0.1,0.1-0.1,0.2c0,0.1,0,0.1-0.1,0.2c0,0.1,0,0.1-0.1,0.2c0,0.1,0,0.2-0.1,0.2c0,0.1,0,0.1-0.1,0.2
			c0,0.1,0,0.2-0.1,0.2c0,0.1,0,0.1-0.1,0.2c0,0.1,0,0.2-0.1,0.2c0,0.1,0,0.1-0.1,0.2c0,0.1,0,0.2-0.1,0.2c0,0.1,0,0.1-0.1,0.2
			c0,0.1,0,0.2-0.1,0.2c0,0.1-0.1,0.1-0.1,0.2c-0.1,0.2-0.1,0.4-0.2,0.7c0,0.1,0,0.1-0.1,0.2c-0.1,0.2-0.1,0.3-0.2,0.5
			c0,0,0,0.1,0,0.1c-0.1,0.2-0.1,0.4-0.2,0.6c0,0.1,0,0.1-0.1,0.2c0,0.2-0.1,0.3-0.1,0.5c0,0,0,0.1,0,0.1c0,0,0,0.1,0,0.1
			c0,0.1-0.1,0.3-0.1,0.4c-0.1,0.3-0.1,0.6-0.2,0.9c0,0,0,0.1-0.1,0.1c0,0.1-0.1,0.3-0.1,0.4c0,0,0,0.1-0.1,0.1
			c-0.1,0.6-0.2,1.1-0.4,1.7c0,0.1,0,0.1-0.1,0.2c-0.1,0.5-0.2,0.9-0.3,1.4c0,0,0,0.1,0,0.1c0,0.2-0.1,0.5-0.1,0.7c0,0,0,0.1,0,0.1
			c0,0.2-0.1,0.5-0.1,0.7c0,0,0,0.1,0,0.1c-0.1,0.5-0.1,0.9-0.2,1.4c0,0.1,0,0.1-0.1,0.2c0,0.3-0.1,0.5-0.1,0.8c0,0,0,0.1,0,0.1
			c-0.1,0.6-0.2,1.2-0.2,1.8c0,0.1,0,0.1,0,0.2c0,0.5-0.1,0.9-0.1,1.4c0,0.1-0.1,0.7,0,1c0,0.2,0.1,0.5,0.1,0.7
			c0.1,0.1,0.1,0.2,0.2,0.2c0,0,0.1,0.1,0.2,0.1c0,0,1.4,0.8,2.3,1.2c0.1,0,0.2,0.1,0.3,0.1c0.1,0.1,0.3,0.1,0.4,0.2
			c0.1,0,0.2,0.1,0.3,0.1c0.1,0.1,0.3,0.1,0.4,0.2c0.1,0,0.2,0.1,0.3,0.1c0,0,0.1,0,0.1,0c0.1,0,0.2,0.1,0.3,0.1l0,0
			c0.1,0,0.3,0.1,0.4,0.1l0.4,0.1c0.3,0.1,2.8,0.8,3.1,1c0,0,0.5,0.2,0.6,0.2c0.3,0,0.8,0.3,0.8,0.3c0.2,0,1.4,0.4,1.4,0.4
			c0.1,0,0.4,0.1,0.4,0.1c0.1,0,0.3,0.1,0.4,0.1l0.4,0.1c0.1,0,0.4,0.1,0.4,0.1c0.1,0,0.8,0.3,0.8,0.3c0.1,0,0.2,0.1,0.3,0.1l0,0
			c0.1,0,0.3,0.1,0.4,0.1c0.1,0.1,0.3,0.1,0.4,0.2c0.1,0,0.2,0.1,0.3,0.1c0.1,0,0.1,0,0.2,0c0.1,0,0.2,0.1,0.2,0.1l0,0
			c0.1,0,0.2,0.1,0.3,0.1c0,0,0.1,0,0.1,0c0.1,0,0.2,0.1,0.3,0.1c0.1,0.1,0.3,0.1,0.4,0.2c0.1,0,0.2,0.1,0.3,0.1c0,0,0,0,0,0
			c0.1,0,0.3,0.1,0.4,0.1c0.2,0.1,0.3,0.1,0.5,0.2c0.1,0,0.2,0.1,0.2,0.1c0.1,0.1,0.3,0.1,0.4,0.2c0.1,0,0.2,0.1,0.3,0.1
			c0.1,0.1,0.3,0.1,0.4,0.2c0.1,0,0.2,0.1,0.3,0.1l0,0c1.8,0.8,5.8,1.1,6.3,1.1c2.2,0,4.5,0,6.7,0c0.1,0,0.3,0,0.4,0
			c0.2,0,0.4,0,0.6,0c0.4-0.1,1.6,0.1,1.7,0.2l0,0c0,0,0.1,0.1,0.1,0.1c-0.1,0.5-0.3,1.1-0.4,1.6c0,0.2-0.1,0.4-0.1,0.5
			c-0.1,0.6-0.2,1.1-0.3,1.7c-0.1,0.7-0.3,1.3-0.4,2c0,0.2-0.1,0.5-0.1,0.7c0,0.7-0.2,1.4-0.2,2.1c0,0.1,0,0.2,0,0.3
			c0,0.2-0.1,0.5-0.1,0.7c0,0.6,0,1.2,0,1.7c0,0.2,0,0.3,0,0.5c-0.1,0.5-0.1,0.9-0.1,1.4c0,1.4,0.3,7.3,0.3,7.7
			c0,0.8-0.7,14.5-0.7,14.5h0l-10.2,61.2c0,0,7.3-0.9,16.4-1.6c0.1,4.1,0.3,10.3,0.3,11c-0.6,0.3-7.2,2.3-7.2,3.2
			c-0.1,0.9,8-0.3,9.1-1.2c0.8-0.7,0.9-8.8,0.9-13.1c3.3-0.2,6.8-0.4,10.2-0.5c-0.1,4.1-0.2,13.2,0.6,13.9c1.1,0.9,6.6,3.1,6.5,2.2
			c-0.1-0.9-2.6-4.1-4.4-4.4c0-0.7,0.1-7.7,0.1-11.8c8.2-0.1,15.3,0.4,17.6,2.4c2.3-0.9-5.6-43.4-9.1-61.8l0,0
			c0-0.4-1.6-23.2-1.6-23.6c0-0.1-0.4-3.6-0.5-4.2c-0.1-0.6-0.2-1.1-0.3-1.7c-0.2-0.7-0.2-1.5-0.5-2.2c-0.2-0.5-0.2-0.9-0.2-1.4
			c0-0.4,0-0.8-0.1-1.2l0,0c0.1-0.2,14,3.3,14.1,3.4c0,0,0.1,0,0.1,0c0.1,0,0.3,0.1,0.4,0.1c0.1,0,0.1,0,0.2,0
			c0.1,0,0.2,0.1,0.3,0.1c0,0,0.1,0,0.1,0c0.1,0,0.3,0.1,0.4,0.1c0,0,0.1,0,0.1,0c0.1,0,0.3,0.1,0.4,0.1l0,0c0.1,0,0.3,0.1,0.4,0.1
			c0,0,0.1,0,0.1,0c0.1,0,0.3,0.1,0.4,0.1l0,0c0.1,0,0.3,0.1,0.4,0.1c0,0,0.1,0,0.1,0c0.1,0,0.3,0.1,0.4,0.1l0,0
			c0.2,0,0.4,0.1,0.5,0.1l0,0c0.1,0,0.3,0.1,0.4,0.1l0,0c0.1,0,0.3,0.1,0.4,0.1c0,0,0.1,0,0.1,0c0.1,0,0.3,0.1,0.4,0.1l0,0
			c0.1,0,0.3,0.1,0.4,0.1c0,0,0.1,0,0.1,0c0.1,0,0.2,0.1,0.3,0.1c0,0,0.1,0,0.1,0c0.1,0,0.3,0.1,0.4,0.1l0,0c0.1,0,0.3,0.1,0.4,0.1
			c0,0,0.1,0,0.1,0c0.1,0,0.3,0.1,0.4,0.1l0,0c0.1,0,0.5,0.1,0.6,0.2c0.1,0,0.4,0.1,0.4,0.1c0.1,0,0.8,0.2,0.9,0.3
			c0,0,12.8,3.2,13.6,3.2c0.1,0,0.3,0,0.4,0c0.1,0,0.3,0,0.4,0c0.4,0.1,1.7-0.4,1.8-0.4c0.1,0,0.2-0.1,0.3-0.1
			c0.1,0,0.2-0.1,0.3-0.1l0,0c0,0,0.1-0.1,0.1-0.1c0.4-0.3,0.7-0.5,1.1-0.8c0,0,0.1-0.1,0.1-0.1l0,0c0,0,0.1-0.1,0.1-0.1l0,0
			c0,0,0.1-0.1,0.1-0.1l0,0c0,0,0.1-0.1,0.1-0.1c0.1-0.1,0.2-0.3,0.3-0.4c0,0,0.1-0.1,0.1-0.1c0,0,0,0,0,0c0-0.1,0.1-0.1,0.1-0.2
			c0.2-0.4,0.4-0.8,0.6-1.3c0,0,0-0.1,0.1-0.1c0.1-0.2,0.3-0.9,0.3-1.4C351.6,191.4,351.3,189.7,351.3,189.4z M272.1,134.8
			c-0.8-0.2-1.1-0.9-1.8-1.3c0.1-0.1,0.2-0.2,0.2-0.3c0.3-0.1,0.6-0.1,0.8,0.1c0.3,0.3,0.5,0.6,0.7,1
			C272.2,134.4,272.1,134.6,272.1,134.8z M274.7,136.3L274.7,136.3c-0.3,0-0.6,0-0.8,0c0-0.2-0.1-0.3-0.2-0.4
			c-0.2-0.2-0.4-0.3-0.6-0.5c0.1-0.6,0.2-1.2,0-1.8c0.6,0.3,0.9,0.8,1.2,1.2C274.7,135.2,274.7,135.7,274.7,136.3z M275.8,136.2
			c0-0.6,0-1.2-0.3-1.7c-0.1-0.1-0.1-0.2-0.2-0.3c0.1-0.2,0.2-0.1,0.3-0.1c0.1,0.1,0.3,0.1,0.4,0.2c0.4,0.3,0.9,0.5,1.3,0.9
			c0.3,0.2,0.6,0.5,0.9,0.8C277.5,136.1,276.7,136.2,275.8,136.2z M291.9,177.7c0.1,0,0.1,0,0.2,0C292,177.7,292,177.7,291.9,177.7z
			 M281.7,188.3c0,0,0.1,0,0.1,0.1C281.8,188.3,281.7,188.3,281.7,188.3z M320.8,161.2c0.2,0.2,0.3,0.3,0.4,0.4
			c0.3,0.3,0.7,0.5,1.1,0.7c0.3,0.1,0.5,0,0.8-0.1c0.2-0.1,0.4-0.2,0.4-0.5l-1-0.9c-0.1-0.1-0.2-0.2-0.3-0.3
			c0.1-0.1,0.2-0.1,0.3-0.1c0.6,0,1.2,0.1,1.7,0.4c0.3,0.2,0.3,0.5,0.1,0.7c-0.4,0.5-1,0.8-1.5,1c-0.2,0.1-0.4,0.1-0.5,0
			c-0.6-0.2-1.1-0.4-1.6-0.8C320.6,161.6,320.7,161.5,320.8,161.2z M320.3,163.4c-0.3,0.1-0.7,0.3-1.1,0.3c0-0.4,0-0.8-0.1-1.2
			C319.6,162.8,319.9,163.1,320.3,163.4z M347,191.4c0,0.1,0,0.1-0.1,0.2c0,0.1,0,0.2,0,0.3c0,0.1-0.1,0.2-0.1,0.3c0,0,0,0.1,0,0.1
			c0,0.1-0.1,0.2-0.1,0.3c-0.3,0.6-0.8,1-1.3,1.5c-0.1,0.1-0.2,0.1-0.3,0.1c0,0-0.1,0.1-0.1,0.1c-0.1,0-0.2,0-0.3,0.1
			c-0.5,0.1-1.4,0.1-2,0.1c-0.1,0-0.3-0.1-0.4-0.1c-0.1,0-0.2,0-0.3,0c-0.1,0-0.3-0.1-0.4-0.1c0,0-0.1,0-0.1,0
			c-0.1,0-0.3-0.1-0.4-0.1c-0.1,0-0.1,0-0.2,0c-0.1,0-0.2-0.1-0.3-0.1c0,0-0.1,0-0.1,0c-0.1,0-0.2-0.1-0.3-0.1c0,0-0.1,0-0.1,0
			c-0.1,0-0.2-0.1-0.3-0.1c0,0-0.1,0-0.1,0c-0.1,0-0.2-0.1-0.3-0.1c-0.5-0.2-1-0.3-1.5-0.5c-0.1,0-0.2-0.1-0.3-0.1
			c-0.1,0-0.1,0-0.2,0c-0.1,0-0.2-0.1-0.3-0.1c0,0-0.1,0-0.1,0c-0.1,0-0.2-0.1-0.3-0.1c0,0-0.1,0-0.1,0c-0.1,0-0.2-0.1-0.3-0.1
			c-0.1,0-0.2,0-0.3-0.1c-0.1,0-0.2-0.1-0.3-0.1c-0.1,0-0.1,0-0.2,0c-0.1,0-0.2-0.1-0.3-0.1c0,0-0.1,0-0.1,0c-0.1,0-0.2-0.1-0.3-0.1
			c0,0-0.1,0-0.1,0c-0.1,0-0.3-0.1-0.4-0.1c-0.1,0-0.1,0-0.2,0c-0.1,0-0.2-0.1-0.3-0.1c0,0-0.1,0-0.1,0c-0.1,0-0.2-0.1-0.3-0.1
			c0,0-0.1,0-0.1,0c-0.1,0-0.3-0.1-0.4-0.1c-0.1,0-0.1,0-0.2,0c-0.1,0-0.2-0.1-0.3-0.1c0,0-0.1,0-0.1,0c-0.1,0-0.2-0.1-0.3-0.1
			c-0.1,0-0.2,0-0.3-0.1c-0.1,0-0.2-0.1-0.3-0.1c0,0-0.1,0-0.1,0c-0.1,0-0.2-0.1-0.3-0.1c0,0-0.1,0-0.1,0c-0.1,0-0.3-0.1-0.4-0.1
			c-0.1,0-0.1,0-0.2,0c-0.1,0-0.2-0.1-0.3-0.1c0,0-0.1,0-0.1,0c-0.1,0-0.2-0.1-0.3-0.1c-0.1,0-0.2,0-0.3-0.1c-0.1,0-0.2-0.1-0.3-0.1
			c-0.1,0-0.1,0-0.2,0c-0.1,0-0.2-0.1-0.3-0.1c0,0-0.1,0-0.1,0c-0.1,0-0.3-0.1-0.4-0.1c-0.1,0-0.1,0-0.2,0c-0.1,0-0.2-0.1-0.3-0.1
			c0,0-0.1,0-0.1,0c-0.1,0-0.2-0.1-0.3-0.1c-0.1,0-0.2,0-0.3-0.1c-0.1,0-0.2-0.1-0.3-0.1c0,0-0.1,0-0.1,0c-0.1,0-0.3-0.1-0.4-0.1
			c-0.1,0-0.1,0-0.2,0c-0.1,0-0.2-0.1-0.3-0.1c0,0-0.1,0-0.1,0c-0.1,0-0.3-0.1-0.4-0.1c0,0-0.1,0-0.1,0c-0.1,0-0.2-0.1-0.3-0.1
			c-0.1,0-0.2,0-0.3-0.1c-0.1,0-0.2-0.1-0.3-0.1c0,0-0.1,0-0.1,0c-0.2,0-0.3,0-0.4-0.1c0,0-0.1,0-0.1,0c-0.2,0-0.3,0-0.4-0.1
			c0,0-0.1,0-0.1,0c-0.1,0-0.3-0.1-0.4-0.1c0,0-0.1,0-0.1,0c-0.1,0-0.2-0.1-0.3-0.1c-0.1,0-0.2,0-0.3,0c-0.1,0-0.2-0.1-0.3-0.1
			c-0.1,0-0.2,0-0.3,0c-0.1,0-0.2-0.1-0.3-0.1c-0.1,0-0.2,0-0.3,0c-0.1,0-0.2-0.1-0.3-0.1c-0.1,0-0.2,0-0.3-0.1
			c-0.1,0-0.2-0.1-0.3-0.1c0,0-0.1,0-0.1,0c-0.1,0-0.2-0.1-0.3-0.1c-0.1,0-0.2,0-0.3,0c-0.1,0-0.2-0.1-0.3-0.1c-0.1,0-0.2,0-0.3,0
			c-0.1,0-0.2-0.1-0.3-0.1c-0.1,0-0.1,0-0.2,0c-0.1,0-0.2-0.1-0.3-0.1c-0.1,0-0.2,0-0.3,0c-0.1,0-0.2-0.1-0.3-0.1c0,0-0.1,0-0.1,0
			c-0.1,0-0.2-0.1-0.3-0.1c-0.1,0-0.2,0-0.3-0.1c-0.1,0-0.1,0-0.2-0.1c-0.1,0-0.2,0-0.3-0.1c-0.1,0-0.2-0.1-0.3-0.1c0,0-0.1,0-0.1,0
			c-0.1,0-0.2-0.1-0.3-0.1c-0.1,0-0.2,0-0.3-0.1c-0.1,0-0.2-0.1-0.3-0.1c-0.1,0-0.1,0-0.2,0c-0.1,0-0.2-0.1-0.3-0.1
			c-0.1,0-0.2,0-0.3-0.1c-0.1,0-0.2-0.1-0.3-0.1c0,0-0.1,0-0.1,0c-0.1,0-0.3-0.1-0.4-0.1c-0.1,0-0.2,0-0.3,0c-0.1,0-0.2-0.1-0.3-0.1
			c-0.1,0-0.3,0-0.4,0c-0.1,0-0.3-0.1-0.4-0.1c-0.1,0-0.3,0-0.4,0c-0.1,0-0.3-0.1-0.4-0.1c-0.1,0-0.2,0-0.3,0
			c-0.1,0-0.3-0.1-0.4-0.1c-0.1,0-0.2,0-0.3,0c-0.1,0-0.2-0.1-0.3-0.1c-0.1,0-0.2,0-0.3-0.1c-0.1,0-0.2-0.1-0.3-0.1c0,0-0.1,0-0.1,0
			c-0.1,0-0.2-0.1-0.3-0.1c-0.1,0-0.2,0-0.3-0.1c-0.1,0-0.2-0.1-0.3-0.1c-0.1,0-0.1,0-0.2,0c-0.1,0-0.2-0.1-0.3-0.1
			c-0.1,0-0.2,0-0.3-0.1c-0.1,0-0.2-0.1-0.3-0.1c0,0-0.1,0-0.1,0c-0.1,0-0.3-0.1-0.4-0.1c-0.1,0-0.2,0-0.3-0.1
			c-0.1,0-0.3-0.1-0.4-0.1c0,0-0.1,0-0.1,0c-0.2,0-0.4-0.1-0.6-0.1c-0.1,0-0.2,0-0.3,0c-0.2,0-0.4-0.1-0.6-0.1c-0.1,0-0.2,0-0.3,0
			c-0.2,0-0.4-0.1-0.6-0.1c-0.1,0-0.2,0-0.3,0c-0.1,0-0.2-0.1-0.3-0.1c-0.1,0-0.3,0-0.4,0c-0.2,0-0.5-0.1-0.7-0.1
			c-0.1,0-0.3,0-0.4,0c-0.2,0-0.4-0.1-0.6-0.1c0,0-1.5-0.5-1.6-0.4l0,0c-0.6-0.3-1.3-0.5-1.9-0.9c-0.6-0.3-1.1-0.9-1.4-1.6
			c-0.1-0.3-0.1-0.7-0.2-1.1c0-0.6,0-1.3,0.1-1.9c0.2,0,0.4-0.1,0.6-0.1c0.4,0,1.4,0,1.5,0c0.6,0,1.1,0,1.7,0l2.2,0
			c1.3,0,2.6,0,3.9-0.1c0.1-0.1,0.7-0.1,0.8-0.1c0,0,0.1,0,0.1,0c0.4,0,2.8-0.2,3.2-0.2c0.5-0.2,5.5-0.2,5.6-0.2c0.2,0,0.5,0,0.7,0
			c0.1,0,2.3-0.1,2.5-0.1c0.2,0,0.5,0,0.7,0c0.2-0.1,0.2-0.3,0.1-0.5c-0.1-1-0.1-2-0.2-3.1c0-0.6-0.1-1.2-0.1-1.7
			c-0.1-0.9-0.2-1.9-0.2-2.8c-0.1-0.9,0-1.8-0.1-2.6c0-0.1,0-0.2,0-0.3h0c0,0,0.1,0,0.1,0c1.5-0.9,2.9-1.7,4.7-1.8
			c1-0.1,1.9-0.1,2.8,0c0.6,0.1,1.1,0.1,1.7,0.2c0.2,0,0.4,0,0.6,0.2c0.2,0.1,0.4,0.1,0.6,0.1c0.1,0.1,0.9,0.5,1,0.6
			c0.1,0,0.3,0.1,0.4,0.2l0,0c0.1,0,0.2,0.1,0.2,0.1c0.1,0,0.1,0.1,0.2,0.1c0,0,0.1,0,0.1,0l0,0c0.1,0,0.1,0.1,0.2,0.1
			c0.5,0.3,1.5,1,1.5,1c0,0,7,6.2,9.1,12.6l0,0l0,0.1c0,0.1,0.1,0.1,0.1,0.2c0,0.1,0.1,0.2,0.1,0.2c0.6,1.1,1.3,2.3,1.9,3.4
			c0,0,0,0,0,0.1c0,0.1,0.1,0.1,0.1,0.2c0.2,0.4,0.4,0.8,0.6,1.2c0,0.1,0.1,0.1,0.1,0.2c0.2,0.4,0.3,0.7,0.5,1.1
			c0,0.1,0.1,0.1,0.1,0.2c0.1,0.3,0.2,0.6,0.3,0.8c0,0,0,0.1,0.1,0.1c0,0.1,0,0.2,0.1,0.3c0,0,0,0.1,0.1,0.1c0,0.1,0.1,0.3,0.1,0.4
			c0,0.1,0.1,0.1,0.1,0.2c0.2,0.8,0.4,1.5,0.3,2.3C347.1,190.5,347.2,191,347,191.4z"/>
		<path class="st16" d="M280.4,217.1l-11.3,67.7c0,0,43.7-5.5,50.1,0c3-1.2-10.7-69.5-10.7-70.2
			C308.5,213.9,280.4,217.1,280.4,217.1z"/>
		<path class="st15" d="M254.7,146c0.1-0.2,0.1-0.4,0.2-0.6c0,0,0-0.1,0-0.1c0-0.1,0.1-0.2,0.1-0.3c0,0,0-0.1,0.1-0.1
			c0.1-0.2,0.1-0.4,0.2-0.6l0,0l0-0.1c0-0.1,0.1-0.2,0.1-0.3c0,0,0-0.1,0.1-0.1c0.1-0.3,0.2-0.7,0.4-1c0,0,0-0.1,0-0.1
			c0.1-0.2,0.2-0.4,0.2-0.6l0,0l0-0.1c0-0.1,0.1-0.3,0.1-0.4c0-0.1,0.1-0.1,0.1-0.2c0.1-0.2,0.1-0.3,0.2-0.5c0-0.1,0.1-0.1,0.1-0.2
			c0-0.1,0-0.1,0.1-0.2c0-0.1,0.1-0.1,0.1-0.2c0.1-0.2,0.1-0.3,0.2-0.5c0-0.1,0.1-0.1,0.1-0.2c0.2-0.5,0.5-1,0.7-1.4
			c0-0.1,0.1-0.2,0.1-0.2c0.1-0.1,0.1-0.3,0.2-0.4c0-0.1,0.1-0.1,0.1-0.2c0,0,0,0,0,0c0,0,0.1-0.1,0.1-0.1c0.2,0.1,0.5,0.2,0.7,0.3
			c0.1,0,0.2,0.1,0.3,0.1c0,0,0.1,0,0.1,0c0.4,0.1,1.6,0.2,2.3,0.1c0.1,0.1,0.1,0.2,0,0.3c-0.6,2-1.3,4-2,6
			c-0.7,1.9-1.4,3.8-2.1,5.7c-0.5,1.4-0.8,2.8-1.1,4.2c-0.5,2.4-1.2,4.7-2,7c-0.8,2.6-1.7,5.2-2.5,7.8c-0.5,1.5-0.9,3.1-1.4,4.6
			c-0.1,0.4-0.2,0.8-0.3,1.2c-0.3,1.2,0.3,2.8,1.7,3.6c0.7,0.4,1.4,0.7,2.2,0.8c2.1,0.3,4.2,1,6.2,1.7c0.9,0.3,1.9,0.6,2.9,0.9
			c1.7,0.5,3.3,1.1,4.9,1.7c0.3,0.1,0.7,0.2,1.1,0.4c1.6,0.6,3.3,0.8,5.1,0.7c0.9,0,1.7-0.1,2.6-0.1c2.1,0,4.1-0.3,6.2-0.6
			c0.5-0.1,1-0.2,1.5-0.3c0.3-0.1,0.7-0.1,1-0.1c0.2,0,0.4,0.1,0.5-0.1c0.1,0,0.2,0,0.3,0c0.7,0.3,1.4,0.6,1.8,1.2c0,0,0,0,0.1,0
			c0.8,0.6,1.7,1.1,2.6,1.6c0.3,0.2,0.7,0.2,1.1,0.3c0.6,0.2,1.2,0.3,1.7,0.5c0.9,0.2,1.9,0.2,2.8-0.1c1.1-0.4,2.1-0.7,3.1-1.4
			c0.6-0.5,1.3-0.9,1.9-1.5c0.1,0,0.3,0,0.4,0c0.2,0,0.5,0.1,0.7,0.1c0.1,0,0.3,0,0.4,0c0.1,0,0.2,0.1,0.3,0.1c0.1,0,0.2,0,0.3,0
			c0.2,0,0.4,0.1,0.6,0.1c0.1,0,0.2,0,0.3,0c0.2,0,0.4,0.1,0.6,0.1c0.1,0,0.2,0,0.3,0c0.2,0,0.4,0.1,0.6,0.1c0,0,0.1,0,0.1,0
			c0.1,0,0.3,0.1,0.4,0.1c0.1,0,0.2,0,0.3,0.1c0.1,0,0.3,0.1,0.4,0.1c0,0,0.1,0,0.1,0c0.1,0,0.2,0.1,0.3,0.1c0.1,0,0.2,0,0.3,0.1
			c0.1,0,0.2,0.1,0.3,0.1c0.1,0,0.1,0,0.2,0c0.1,0,0.2,0.1,0.3,0.1c0.1,0,0.2,0,0.3,0.1c0.1,0,0.2,0.1,0.3,0.1c0,0,0.1,0,0.1,0
			c0.1,0,0.2,0.1,0.3,0.1c0.1,0,0.2,0,0.3,0.1c0.1,0,0.2,0.1,0.3,0.1c0.1,0,0.2,0,0.3,0c0.1,0,0.3,0.1,0.4,0.1c0.1,0,0.2,0,0.3,0
			c0.1,0,0.3,0.1,0.4,0.1c0.1,0,0.3,0,0.4,0c0.1,0,0.3,0.1,0.4,0.1c0.1,0,0.3,0,0.4,0c0.1,0,0.2,0.1,0.3,0.1c0.1,0,0.2,0,0.3,0
			c0.1,0,0.3,0.1,0.4,0.1c0,0,0.1,0,0.1,0c0.1,0,0.2,0.1,0.3,0.1c0.1,0,0.2,0,0.3,0.1c0.1,0,0.2,0.1,0.3,0.1c0.1,0,0.1,0,0.2,0
			c0.1,0,0.2,0.1,0.3,0.1c0.1,0,0.2,0,0.3,0.1c0.1,0,0.2,0.1,0.3,0.1c0,0,0.1,0,0.1,0c0.1,0,0.2,0.1,0.3,0.1c0.1,0,0.2,0,0.3,0.1
			c0.1,0,0.1,0,0.2,0.1c0.1,0,0.2,0,0.3,0.1c0.1,0,0.2,0.1,0.3,0.1c0,0,0.1,0,0.1,0c0.1,0,0.2,0.1,0.3,0.1c0.1,0,0.2,0,0.3,0
			c0.1,0,0.2,0.1,0.3,0.1c0.1,0,0.1,0,0.2,0c0.1,0,0.2,0.1,0.3,0.1c0.1,0,0.2,0,0.3,0c0.1,0,0.2,0.1,0.3,0.1c0.1,0,0.2,0,0.3,0
			c0.1,0,0.2,0.1,0.3,0.1c0,0,0.1,0,0.1,0c0.1,0,0.2,0.1,0.3,0.1c0.1,0,0.2,0,0.3,0.1c0.1,0,0.2,0.1,0.3,0.1c0.1,0,0.2,0,0.3,0
			c0.1,0,0.2,0.1,0.3,0.1c0.1,0,0.2,0,0.3,0c0.1,0,0.2,0.1,0.3,0.1c0.1,0,0.2,0,0.3,0c0.1,0,0.2,0.1,0.3,0.1c0,0,0.1,0,0.1,0
			c0.1,0,0.3,0.1,0.4,0.1c0,0,0.1,0,0.1,0c0.1,0.1,0.3,0.1,0.4,0.1c0,0,0.1,0,0.1,0c0.1,0.1,0.3,0.1,0.4,0.1c0,0,0.1,0,0.1,0
			c0.1,0,0.2,0.1,0.3,0.1c0.1,0,0.2,0,0.3,0.1c0.1,0,0.2,0.1,0.3,0.1c0,0,0.1,0,0.1,0c0.1,0,0.3,0.1,0.4,0.1c0,0,0.1,0,0.1,0
			c0.1,0,0.2,0.1,0.3,0.1c0.1,0,0.1,0,0.2,0c0.1,0,0.3,0.1,0.4,0.1c0,0,0.1,0,0.1,0c0.1,0,0.2,0.1,0.3,0.1c0.1,0,0.2,0,0.3,0.1
			c0.1,0,0.2,0.1,0.3,0.1c0,0,0.1,0,0.1,0c0.1,0,0.2,0.1,0.3,0.1c0.1,0,0.1,0,0.2,0c0.1,0,0.3,0.1,0.4,0.1c0,0,0.1,0,0.1,0
			c0.1,0,0.2,0.1,0.3,0.1c0.1,0,0.1,0,0.2,0c0.1,0,0.2,0.1,0.3,0.1c0.1,0,0.2,0,0.3,0.1c0.1,0,0.2,0.1,0.3,0.1c0,0,0.1,0,0.1,0
			c0.1,0,0.2,0.1,0.3,0.1c0.1,0,0.1,0,0.2,0c0.1,0,0.3,0.1,0.4,0.1c0,0,0.1,0,0.1,0c0.1,0,0.2,0.1,0.3,0.1c0,0,0.1,0,0.1,0
			c0.1,0,0.2,0.1,0.3,0.1c0.1,0,0.2,0,0.3,0.1c0.1,0,0.2,0.1,0.3,0.1c0,0,0.1,0,0.1,0c0.1,0,0.2,0.1,0.3,0.1c0.1,0,0.1,0,0.2,0
			c0.1,0,0.3,0.1,0.4,0.1c0,0,0.1,0,0.1,0c0.1,0,0.2,0.1,0.3,0.1c0,0,0.1,0,0.1,0c0.1,0,0.2,0.1,0.3,0.1c0.1,0,0.1,0,0.2,0
			c0.1,0,0.3,0.1,0.4,0.1c0,0,0.1,0,0.1,0c0.1,0,0.2,0.1,0.3,0.1c0,0,0.1,0,0.1,0c0.1,0,0.2,0.1,0.3,0.1c0.1,0,0.1,0,0.2,0
			c0.1,0,0.2,0.1,0.3,0.1c0.1,0,0.2,0,0.3,0.1c0.1,0,0.2,0.1,0.3,0.1c0,0,0.1,0,0.1,0c0.1,0,0.2,0.1,0.3,0.1c0,0,0.1,0,0.1,0
			c0.1,0,0.2,0.1,0.3,0.1c0.1,0,0.1,0,0.2,0c0.1,0,0.2,0.1,0.3,0.1c0.5,0.2,1,0.3,1.5,0.5c0.1,0,0.2,0.1,0.3,0.1c0,0,0.1,0,0.1,0
			c0.1,0,0.2,0.1,0.3,0.1c0,0,0.1,0,0.1,0c0.1,0,0.2,0.1,0.3,0.1c0,0,0.1,0,0.1,0c0.1,0,0.2,0.1,0.3,0.1c0.1,0,0.1,0,0.2,0
			c0.1,0,0.3,0.1,0.4,0.1c0,0,0.1,0,0.1,0c0.1,0,0.3,0.1,0.4,0.1c0.1,0,0.2,0,0.3,0c0.1,0,0.3,0.1,0.4,0.1c0.5,0,1.5,0,2-0.1
			c0.1,0,0.2,0,0.3-0.1c0,0,0.1-0.1,0.1-0.1c0.1,0,0.2,0,0.3-0.1c0.5-0.4,1-0.8,1.3-1.5c0-0.1,0.1-0.2,0.1-0.3c0,0,0-0.1,0-0.1
			c0-0.1,0.1-0.2,0.1-0.3c0-0.1,0-0.2,0-0.3c0-0.1,0-0.1,0.1-0.2c0.1-0.4,0.1-0.9,0.1-1.3c0-0.8-0.1-1.6-0.3-2.3
			c0-0.1-0.1-0.1-0.1-0.2c0-0.1-0.1-0.3-0.1-0.4c0,0,0-0.1-0.1-0.1c0-0.1,0-0.2-0.1-0.3c0,0,0-0.1-0.1-0.1c-0.1-0.3-0.2-0.6-0.3-0.8
			c0-0.1-0.1-0.1-0.1-0.2c-0.2-0.4-0.3-0.7-0.5-1.1c0-0.1-0.1-0.1-0.1-0.2c-0.2-0.4-0.4-0.8-0.6-1.2c0-0.1-0.1-0.1-0.1-0.2
			c0,0,0,0,0-0.1c-0.6-1.1-1.3-2.3-1.9-3.4c0-0.1-0.1-0.2-0.1-0.2c0-0.1-0.1-0.1-0.1-0.2l0-0.1l0,0c-2.1-6.4-9-12.5-9.1-12.6
			c0,0-1-0.7-1.5-1c-0.1,0-0.1-0.1-0.2-0.1l0,0c0,0-0.1,0-0.1,0c-0.1,0-0.1-0.1-0.2-0.1c-0.1,0-0.2-0.1-0.2-0.1l0,0
			c-0.1,0-0.2-0.1-0.2-0.1c-0.1,0-0.2,0-0.3-0.1c-0.1-0.1-0.1-0.2,0-0.3c0,0,0-0.1,0-0.2c0-0.1,0-0.1,0-0.2c0-0.2,0.1-0.5,0.1-0.7
			c0-0.1,0.1-0.3,0.1-0.4c0,0,0-0.1,0-0.1c0-0.1,0.1-0.2,0.1-0.3c0-0.1,0-0.2,0-0.2c0-0.1,0-0.1,0.1-0.2c0.1-0.2,0.1-0.3,0.2-0.5
			c0-0.1,0.1-0.1,0.1-0.2c0.1-0.3,0.3-0.5,0.4-0.8c0.1,0,0.2,0.1,0.3,0.1c0.1,0,0.1,0.1,0.2,0.1l0,0c0,0,0.1,0.1,0.1,0.1
			c0.7,0.6,1.5,1.2,2.2,1.7c0.1,0,0.1,0.1,0.2,0.1l0,0c0,0,0.1,0.1,0.1,0.1l0,0c0,0,0.1,0.1,0.1,0.1c0.9,0.8,1.8,1.6,2.7,2.4
			c0,0,0.1,0.1,0.1,0.1l0,0c0,0,0.1,0.1,0.1,0.1c0.4,0.4,0.9,0.9,1.3,1.3c0,0,0.1,0.1,0.1,0.1l0,0c0,0,0.1,0.1,0.1,0.1l0,0
			c0,0,0.1,0.1,0.1,0.1l0,0c0,0,0.1,0.1,0.1,0.1l0,0c0,0.1,0.1,0.1,0.1,0.2c0.2,0.3,0.5,0.5,0.7,0.8c0,0,0.1,0.1,0.1,0.1
			c0,0,0,0,0,0c0,0.1,0.1,0.1,0.1,0.2c1,1.3,1.9,2.6,2.7,4c0,0,0.1,0.1,0.1,0.1c0.4,0.7,0.8,1.5,1.2,2.2c0.8,1.5,1.5,3,2.3,4.6
			c0.1,0.1,0.2,0.3,0.2,0.4l0,0.1l0,0c0.2,0.5,0.4,1,0.7,1.4c0,0,0,0.1,0,0.1c0.2,0.5,0.4,1,0.6,1.4c0,0,0,0.1,0.1,0.1
			c0.1,0.3,0.3,0.6,0.4,0.9c0,0,0,0.1,0,0.1c0,0.1,0,0.1,0.1,0.2c0,0,0,0.1,0.1,0.1c0.1,0.2,0.2,0.4,0.2,0.6c0,0,0,0.1,0.1,0.1
			c0.1,0.3,0.2,0.6,0.3,0.9c0,0,0.1,0.1,0.1,0.1c0.1,0.3,0.2,0.7,0.4,1c0,0,0,0.1,0.1,0.1c0,0,0,0.1,0,0.1c0,0.1,0.1,0.2,0.1,0.3
			c0.1,0.2,0.1,0.4,0.2,0.6c0,0.1,0.1,0.1,0.1,0.2c0,0.1,0,0.1,0.1,0.2c0,0.1,0,0.2,0.1,0.3c0,0.1,0,0.3,0,0.4c0,0.2,0.3,2,0.1,3.2
			c0,0.5-0.2,1.2-0.3,1.4c0,0,0,0.1-0.1,0.1c-0.2,0.4-0.4,0.8-0.6,1.3c0,0.1-0.1,0.1-0.1,0.2c0,0,0,0,0,0c0,0-0.1,0.1-0.1,0.1
			c-0.1,0.1-0.2,0.3-0.3,0.4c0,0-0.1,0.1-0.1,0.1l0,0c0,0-0.1,0.1-0.1,0.1l0,0c0,0-0.1,0.1-0.1,0.1l0,0c0,0-0.1,0.1-0.1,0.1
			c-0.4,0.3-0.7,0.5-1.1,0.8c0,0-0.1,0.1-0.1,0.1l0,0c-0.1,0-0.2,0.1-0.3,0.1c-0.1,0-0.2,0.1-0.3,0.1c-0.1,0-1.4,0.5-1.8,0.4
			c-0.1,0-0.3,0-0.4,0c-0.1,0-0.3,0-0.4,0c-0.8,0-13.6-3.2-13.6-3.2c-0.1,0-0.8-0.2-0.9-0.3c0,0-0.3-0.1-0.4-0.1
			c0,0-0.4-0.1-0.6-0.2l0,0c-0.1,0-0.3-0.1-0.4-0.1c0,0-0.1,0-0.1,0c-0.1,0-0.3-0.1-0.4-0.1l0,0c-0.1,0-0.3-0.1-0.4-0.1
			c0,0-0.1,0-0.1,0c-0.1,0-0.2-0.1-0.3-0.1c0,0-0.1,0-0.1,0c-0.1,0-0.3-0.1-0.4-0.1l0,0c-0.1,0-0.3-0.1-0.4-0.1c0,0-0.1,0-0.1,0
			c-0.1,0-0.3-0.1-0.4-0.1l0,0c-0.1,0-0.3-0.1-0.4-0.1l0,0c-0.2,0-0.4-0.1-0.5-0.1l0,0c-0.1,0-0.3-0.1-0.4-0.1c0,0-0.1,0-0.1,0
			c-0.1,0-0.3-0.1-0.4-0.1l0,0c-0.1,0-0.3-0.1-0.4-0.1c0,0-0.1,0-0.1,0c-0.1,0-0.3-0.1-0.4-0.1l0,0c-0.1,0-0.3-0.1-0.4-0.1
			c0,0-0.1,0-0.1,0c-0.1,0-0.3-0.1-0.4-0.1c0,0-0.1,0-0.1,0c-0.1,0-0.2-0.1-0.3-0.1c-0.1,0-0.1,0-0.2,0c-0.1,0-0.3-0.1-0.4-0.1
			c0,0-0.1,0-0.1,0c-0.1,0-14-3.5-14.1-3.4l0,0c-0.3,0-0.7,0-1,0c-0.4,0-0.8,0.1-1.2,0.3c-0.4,0.2-0.6,0.5-0.5,1
			c0,0.2,0.1,0.4,0.1,0.6c0,0.9,0.1,1.9,0.1,2.8c0,0.2,0,0.4,0,0.6c0.1,0.9,0.2,1.8,0.3,2.7c0.1,0.8,0.1,1.6,0.2,2.4
			c0.1,1.2,0.2,2.5,0.2,3.7c0.1,1.2,0.1,2.3,0.2,3.5c0.1,1,0.1,2,0.1,3.1c0,1.4,0,2.7,0,4.1c0,0.1-0.2,0.5-0.2,0.6
			c-0.1,0-0.2,0-0.3,0c-0.4,0-0.8,0.1-1.1,0.1c-1.2,0.1-2.4,0.2-3.6,0.1c-0.6,0-1.2,0-1.7,0c-0.1-0.1-0.1-0.3-0.2-0.4
			c-0.1-0.3-0.1-0.6-0.3-0.9c-0.5-0.9-1.2-1.7-2.2-2.1c-0.4-0.2-0.9-0.3-1.3-0.2c-1.4,0.2-2.4,1.1-2.7,2.4c-0.1,0.3-0.2,0.7-0.3,1
			c-0.8-0.1-1.7-0.3-2.5-0.4c-1.7-0.1-3.4-0.3-5.1-0.6c0-0.1-0.1-0.3-0.1-0.4c0-1.4,0-2.8,0-4.3c0-1.7,0.2-3.5,0.2-5.2
			c0-2.5,0-5.1,0-7.6c0-0.7,0-1.3-0.2-2c0-0.2-0.1-0.4-0.1-0.6c-0.2-1-0.4-2.1-0.7-3.1c-0.1-0.4-0.3-0.7-0.4-1.1
			c-0.1-0.3-0.3-0.5-0.6-0.6c-0.1,0-0.2-0.1-0.2-0.1c0,0-0.1-0.1-0.1-0.1l0,0c-0.1,0-1.2-0.3-1.7-0.2c-0.2,0-0.4,0-0.6,0
			c-0.1,0-0.3,0-0.4,0c-2.2,0-4.5,0-6.7,0c-0.5,0-4.5-0.3-6.3-1.1l0,0c-0.1,0-0.2-0.1-0.3-0.1c-0.1-0.1-0.3-0.1-0.4-0.2
			c-0.1,0-0.2-0.1-0.3-0.1c-0.1-0.1-0.3-0.1-0.4-0.2c-0.1,0-0.2-0.1-0.2-0.1c-0.2-0.1-0.3-0.1-0.5-0.2c-0.1,0-0.3-0.1-0.4-0.1
			c0,0,0,0,0,0c-0.1,0-0.2-0.1-0.3-0.1c-0.1-0.1-0.3-0.1-0.4-0.2c-0.1,0-0.2-0.1-0.3-0.1c0,0-0.1,0-0.1,0c-0.1,0-0.2-0.1-0.3-0.1
			l0,0c-0.1,0-0.2-0.1-0.2-0.1c-0.1,0-0.1,0-0.2,0c-0.1,0-0.2-0.1-0.3-0.1c-0.1-0.1-0.3-0.1-0.4-0.2c-0.1,0-0.3-0.1-0.4-0.1l0,0
			c-0.1,0-0.2-0.1-0.3-0.1c0,0-0.7-0.3-0.8-0.3c0,0-0.3-0.1-0.4-0.1l-0.4-0.1c-0.1,0-0.3-0.1-0.4-0.1c0,0-0.3-0.1-0.4-0.1
			c0,0-1.2-0.4-1.4-0.4c0,0-0.5-0.2-0.8-0.3c0,0-0.6-0.2-0.6-0.2c-0.3-0.1-2.8-0.9-3.1-1l-0.4-0.1c-0.1,0-0.3-0.1-0.4-0.1l0,0
			c-0.1,0-0.2-0.1-0.3-0.1c0,0-0.1,0-0.1,0c-0.1,0-0.2-0.1-0.3-0.1c-0.1-0.1-0.3-0.1-0.4-0.2c-0.1,0-0.2-0.1-0.3-0.1
			c-0.1-0.1-0.3-0.1-0.4-0.2c-0.1,0-0.2-0.1-0.3-0.1c-1-0.4-2.3-1.2-2.3-1.2c0,0-0.1-0.1-0.2-0.1c-0.1-0.1-0.1-0.2-0.2-0.2
			c0-0.2-0.1-0.5-0.1-0.7c0-0.3,0-0.9,0-1c0-0.5,0.1-0.9,0.1-1.4c0-0.1,0-0.1,0-0.2c0.1-0.6,0.2-1.2,0.2-1.8c0,0,0-0.1,0-0.1
			c0-0.3,0.1-0.5,0.1-0.8c0-0.1,0-0.1,0.1-0.2c0.1-0.5,0.1-0.9,0.2-1.4c0,0,0-0.1,0-0.1c0-0.2,0.1-0.5,0.1-0.7c0,0,0-0.1,0-0.1
			c0-0.2,0.1-0.5,0.1-0.7c0,0,0-0.1,0-0.1c0.1-0.5,0.2-0.9,0.3-1.4c0-0.1,0-0.1,0.1-0.2c0.1-0.6,0.2-1.1,0.4-1.7c0,0,0-0.1,0.1-0.1
			c0-0.1,0.1-0.3,0.1-0.4c0,0,0-0.1,0.1-0.1c0.1-0.3,0.1-0.6,0.2-0.9c0-0.1,0.1-0.3,0.1-0.4c0,0,0-0.1,0-0.1c0,0,0-0.1,0-0.1
			c0-0.2,0.1-0.3,0.1-0.5c0-0.1,0-0.1,0.1-0.2c0.1-0.2,0.1-0.4,0.2-0.6c0,0,0-0.1,0-0.1c0.1-0.2,0.1-0.3,0.2-0.5
			c0-0.1,0-0.1,0.1-0.2c0.1-0.2,0.1-0.4,0.2-0.7c0-0.1,0.1-0.1,0.1-0.2c0-0.1,0-0.2,0.1-0.2c0-0.1,0-0.1,0.1-0.2
			c0-0.1,0-0.2,0.1-0.2c0-0.1,0-0.1,0.1-0.2c0-0.1,0-0.2,0.1-0.2c0-0.1,0-0.1,0.1-0.2c0-0.1,0-0.2,0.1-0.2c0-0.1,0-0.1,0.1-0.2
			c0-0.1,0-0.2,0.1-0.2c0-0.1,0-0.1,0.1-0.2c0-0.1,0-0.1,0.1-0.2c0-0.1,0.1-0.1,0.1-0.2c0-0.1,0-0.2,0.1-0.2c0-0.1,0.1-0.1,0.1-0.2
			c0-0.1,0-0.2,0.1-0.2c0-0.1,0.1-0.1,0.1-0.2c0,0,0-0.1,0-0.1c0,0,0-0.1,0.1-0.1c0.1-0.2,0.2-0.4,0.2-0.7c0-0.1,0-0.1,0.1-0.2
			c0-0.1,0.1-0.2,0.1-0.2c0-0.1,0.1-0.1,0.1-0.2c0-0.1,0-0.2,0.1-0.2c0-0.1,0.1-0.1,0.1-0.2c0,0,0-0.1,0-0.1c0-0.1,0.1-0.2,0.1-0.3
			c0,0,0-0.1,0-0.1c0-0.1,0.1-0.2,0.1-0.3c0,0,0-0.1,0-0.1c0-0.1,0.1-0.2,0.1-0.3c0,0,0-0.1,0-0.1c0-0.1,0.1-0.2,0.1-0.3
			c0,0,0-0.1,0-0.1c0-0.1,0.1-0.2,0.1-0.3c0.1-0.4,0.3-0.8,0.4-1.3c0-0.1,0.1-0.2,0.1-0.3c0,0,0-0.1,0-0.1c0,0,0-0.1,0.1-0.1
			c0-0.1,0.1-0.2,0.1-0.3c0,0,0-0.1,0.1-0.1c0-0.1,0-0.2,0.1-0.3c0-0.1,0.1-0.1,0.1-0.2c0.1-0.3,0.2-0.7,0.3-1
			c0-0.1,0.1-0.2,0.1-0.3c0,0,0-0.1,0-0.1c0,0,0-0.1,0.1-0.1c0-0.1,0.1-0.2,0.1-0.3c0,0,0-0.1,0.1-0.1c0.1-0.3,0.2-0.7,0.3-1
			c0,0,0-0.1,0-0.1c0-0.1,0.1-0.2,0.1-0.3c0,0,0-0.1,0.1-0.1c0-0.1,0-0.2,0.1-0.3c0-0.1,0-0.1,0.1-0.1c0.1-0.2,0.1-0.4,0.2-0.6
			c0.1,0,0.1-0.1,0-0.1c0-0.1,0.1-0.2,0.1-0.3c0,0,0-0.1,0.1-0.1c0-0.1,0.1-0.2,0.1-0.3C254.6,146.1,254.7,146,254.7,146z"/>
		<path class="st17" d="M300.2,177.5c-0.6,0-1.1,0-1.7,0c-0.1,0-1.1,0-1.5,0c-0.2,0-0.4,0.1-0.6,0.1c-0.1-0.1-0.1-0.1-0.2-0.1
			c-0.6,0-1.1,0.1-1.7,0.1c-0.4,0-0.6,0.1-1,0.1c-0.5,0-1.2-0.2-1.7-0.1c-0.9,0-1.8,0-2.6,0c-1.8,0-3.5,0.1-5.3,0.1
			c-1.8,0-3.7,0.1-5.5,0.1c-3.1,0.1-6.3,0.1-9.4,0.1c-0.2,0-0.5,0-0.7,0c-0.2,0-0.4-0.1-0.5-0.2c0-0.3-0.1-0.6-0.1-0.8
			c-0.1-1.2-0.2-2.4-0.2-3.6c0-1.9-0.1-3.9-0.1-5.8c0-1.6-0.1-3.3-0.2-4.9c-0.1-1.9-0.2-3.7-0.3-5.6c-0.2-3-0.2-6-0.3-9
			c0-1.2-0.1-2.3-0.2-3.5c0-1.3-0.1-2.6-0.1-3.8c0-0.7,0-1.5,0-2.2c0-0.3-0.1-0.7-0.1-1.1c0.3-0.2,0.7-0.3,1.1-0.3
			c1.2-0.2,2.4-0.4,3.6-0.6c0.2-0.1,0.7-0.1,0.9-0.2c0.2,0,0.2,0.2,0.3,0.3c0.3,0.2,0.5,0.4,0.8,0.5c0.4,0.2,0.8-0.1,0.8-0.5
			c0-0.1,0-0.3,0-0.4c0.3,0,0.6,0,0.8,0c0,0.2,0,0.4,0.1,0.5c0.2,0.2,0.4,0.2,0.5,0c0.2-0.2,0.3-0.5,0.5-0.7c0.8,0,1.7-0.1,2.5-0.3
			c0.3,0,0.5,0,0.8,0.2c0.2,0.1,0.4,0.2,0.6,0.2c0.3,0.2,0.6,0,0.9-0.1c0.3-0.1,0.4-0.3,0.4-0.6c0.6,0,1.1,0,1.7,0
			c0.9,0,1.8-0.1,2.6-0.1c0.2,0,0.3,0,0.5,0c1.1-0.1,2.2-0.1,3.3-0.2c1.8-0.1,3.5-0.2,5.3-0.4c0.8-0.1,1.7-0.1,2.5-0.1
			c1.3-0.1,2.6-0.1,3.8-0.2c1.9-0.1,3.7-0.1,5.6-0.2c2.8-0.1,5.5-0.1,8.3-0.1c0.8,0,1.5,0,2.3,0.1c0.4,0,0.5,0.1,0.5,0.5
			c0.1,1.1,0.2,2.2,0.3,3.3c0.1,1.5,0.3,3.1,0.4,4.6c0.1,0.8,0.1,1.5,0.2,2.3c0.1,1.2,0.2,2.4,0.3,3.6c0.1,1.6,0.2,3.2,0.3,4.7
			c0,0.7,0.2,2.4,0.2,2.6c0,1,0,2.3,0.1,3.3c-0.1,0.1-0.1,0.1-0.2,0.2c-0.4,0.3-0.9,0.7-1.3,1c-0.1,0-0.1,0.2-0.2,0.2
			c-0.1-0.8-0.1-1.9-0.2-2.7c-0.1-0.6-0.1-1.2-0.1-1.7c-0.1-1-0.1-2.1-0.2-3.1c0-0.5,0-1.1,0-1.6c-0.2-1.1-0.1-2.2-0.2-3.3
			c-0.1-0.7-0.1-1.4-0.2-2.2c0-0.5-0.1-0.9-0.2-1.4c-0.1-0.6-0.2-1.2-0.2-1.9c-0.1-0.6-0.1-1.2-0.2-1.8c-0.1-1.2-0.3-2.5-0.3-3.8
			c0-0.1,0-0.3,0-0.4c0-0.2,0-0.3-0.1-0.4c-0.3-0.2-0.7-0.2-1-0.2c-0.8,0-2.9-0.1-3.1-0.1c-0.2,0-0.5,0.1-0.7,0.1
			c-2,0.1-4-0.1-6.1,0.1c-0.7,0.1-1.3,0.1-2,0.1c-1.1,0.1-2.1,0.1-3.2,0.2c-1.5,0.1-3.1,0-4.6,0.1c-1.4,0.1-2.9,0-4.3,0.2
			c-0.5,0-1.1,0-1.6,0.1c-0.5,0.1-1.1,0.1-1.6,0.1c-0.5,0-1.1,0.1-1.6,0.1c-1,0.1-1.9,0.1-2.9,0.2c-0.1,0-0.1,0-0.2,0
			c-0.8,0.1-1.7,0.2-2.5,0.2c-0.7,0-1.4,0.1-2.1,0.2c-0.6,0.1-1.3,0.2-1.9,0.2c-0.5,0-1,0-1.5,0c-1,0.1-2,0.3-3,0.5
			c-0.7,0.1-1.3,0.2-2,0.2c-0.2,0-0.4,0-0.6,0c-0.1,0-0.3,0-0.4,0.1c-0.1,0.5-0.2,1-0.2,1.5c0,2.7,0,5.3,0,8c0,0.3,0,0.6,0.1,0.8
			c0.1,0.8,0.2,1.6,0.2,2.4c0,0.3,0,0.5,0,0.8c0,1.4,0,2.7,0.1,4.1c0.1,1.1,0.1,2.3,0.2,3.4c0.1,1,0.1,2,0.2,3c0,0,0,0,0,0.1
			c0.1,0.6,0.1,1.2,0.1,1.7c0,0.6,0.1,1.2,0.1,1.7c0,0.8,0,1.6,0,2.4c0,2.1,0,4.2,0,6.3c0,0.7,0.2,1,1.1,1.1c0,0,0,0,0.1,0
			c0.5,0,1,0,1.5,0c0.3,0,0.7,0,1,0c0.8-0.1,1.5-0.2,2.3-0.2c1.5,0,2.9-0.2,4.4-0.2c0.6,0,1.1,0,1.7,0c1.4,0,2.9-0.1,4.3-0.1
			c7.9-0.1,15.7,0,23.6-0.2c0.4,0,0.7,0,1.1,0c0.8,0,1.7-0.1,2.5-0.1c1,0,1.9,0,2.9,0c0.6,0,1.2-0.1,1.8-0.1c0.2,0,0.3-0.2,0.3-0.4
			c0-0.1,0.1-1.1,0.1-1.4c0-1-0.1-2-0.1-3c-0.1-1.3-0.1-2.6-0.2-3.8c0.6-0.3,1.2-0.6,1.7-0.8c0,0.1,0,0.2,0,0.3
			c0.2,0.9,0.1,1.8,0.1,2.6c0.1,0.9,0.1,1.9,0.2,2.8c0,0.6,0.1,1.2,0.1,1.7c0.1,1,0.1,2,0.2,3.1c0,0.2,0.1,0.4-0.1,0.5
			c-0.2,0-0.5,0-0.7,0c-0.2,0-2.4,0.1-2.5,0.1c-0.2,0-0.5,0-0.7,0c-0.1,0-5.2,0-5.6,0.2c-0.4,0-2.8,0.2-3.2,0.2c0,0-0.1,0-0.1,0
			c-0.1,0-0.6,0-0.8,0.1c-1.3,0-2.6,0-3.9,0.1"/>
		<path class="st18" d="M281.8,188.3c0.4,0,0.5,0.3,0.6,0.6c0.2,0.4,0.3,0.7,0.4,1.1c0.3,1,0.5,2,0.7,3.1c0,0.2,0.1,0.4,0.1,0.6
			c0.1,0.7,0.2,1.3,0.2,2c0,2.5,0,5.1,0,7.6c0,1.7-0.1,3.5-0.2,5.2c0,1.4,0,2.8,0,4.3c0,0.1,0.1,0.3,0.1,0.4c0,0.1,0,0.3,0,0.4
			c0.1,0.4,0.1,0.7,0.1,1.1c0,0.7,0,1.5,0,2.2c-0.2,0.1-0.1,0.3-0.1,0.5c0,0.5-0.1,0.9-0.1,1.4c0,0.2-0.1,0.5-0.1,0.7
			c0,1.2,0,2.3,0,3.5c-1,0-3.1,0.6-4.2,0.6c0,0,0.7-13.7,0.7-14.5c0-0.4-0.3-6.3-0.3-7.7c0-0.5,0-0.9,0.1-1.4c0-0.1,0-0.3,0-0.5
			c0-0.6,0-1.2,0-1.7c0-0.2,0-0.5,0.1-0.7c0-0.1,0.1-0.2,0-0.3c-0.1-0.7,0.1-1.4,0.2-2.1c0-0.2,0.1-0.5,0.1-0.7
			c0.1-0.7,0.3-1.3,0.4-2c0.1-0.6,0.2-1.1,0.3-1.7c0-0.2,0.1-0.4,0.1-0.5c0.1-0.5,0.3-1.1,0.4-1.6
			C281.6,188.2,281.7,188.3,281.8,188.3z"/>
		<path class="st18" d="M305.1,214c0-0.1,0.2-0.5,0.2-0.6c0-1.4,0-2.7,0-4.1c0-1,0-2-0.1-3.1c-0.1-1.2-0.1-2.3-0.2-3.5
			c-0.1-1.2-0.2-2.5-0.2-3.7c-0.1-0.8-0.1-1.6-0.2-2.4c-0.1-0.9-0.2-1.8-0.3-2.7c0-0.2,0-0.4,0-0.6c0-0.9-0.1-1.9-0.1-2.8
			c0-0.2,0-0.4-0.1-0.6c-0.1-0.5,0.1-0.8,0.5-1c0.4-0.2,0.8-0.3,1.2-0.3c0.3,0,0.7,0,1,0c0.1,0.4,0.2,0.8,0.1,1.2c0,0.5,0,1,0.2,1.4
			c0.2,0.7,0.3,1.4,0.5,2.2c0.1,0.6,0.2,1.1,0.3,1.7c0.1,0.5,0.5,4.1,0.5,4.2c0,0.4,1.5,23.2,1.6,23.6c-0.1,0-1.2,0-1.3,0
			c-1.1,0-2.2,0-3.3,0c0-0.7-0.1-1.3-0.1-2c0-0.9,0-1.9,0-2.8c0-0.2-0.1-0.3-0.1-0.4c0-0.4,0-0.8,0-1.2c0-0.4-0.1-0.8-0.1-1.2
			C305.2,214.9,305.3,214.5,305.1,214L305.1,214z"/>
		<path class="st19" d="M305.3,217.7c0,0.1,0.1,0.3,0.1,0.4c0,0.9,0,1.9,0,2.8c0,0.7,0,1.3,0.1,2c-0.3,0-0.6,0-0.9,0c-7,0-14,0-21,0
			c0-0.1-0.1-0.3-0.1-0.4c0-0.8,0-1.6,0-2.4c0-0.5,0-0.9,0-1.4c0-0.5,0.1-0.9,0.1-1.4c0-0.2,0-0.4,0.1-0.5c0.5,0.4,1.1,0.7,1.8,0.7
			c1.2,0.4,2.5,0.6,3.8,0.8c2.4,0.4,4.8,0.6,7.3,0.6c1,0,2.1,0,3.1-0.1c1.3,0,2.6-0.2,3.9-0.5C304.3,218.3,304.9,218.1,305.3,217.7z
			"/>
		<path class="st20" d="M330.4,159.9c-0.4-0.3-0.9-0.5-1.3-0.7c-0.6-0.2-1.2-0.4-1.8-0.6c-1.3-0.4-2.6-0.6-4-0.6
			c-1,0-1.9,0.2-2.8,0.6c-0.5,0.2-0.8,0.5-1.5,0.7c-0.1,0.1-0.1,0.1-0.2,0.2c-0.4,0.3-0.9,0.7-1.3,1c-0.1,0-0.3,0.3-0.5,0.5
			c-0.6,0.5-1.2,0.9-1.8,1.4c-0.7,0.5-1.4,1.1-2.1,1.6c-0.1,0-0.1,0.1-0.2,0.1c-0.2,0.1-0.2,0.3-0.2,0.5c0,0.2,0.2,0.3,0.4,0.4
			c0.2,0,0.4,0,0.6,0.1c0.7-0.4,1.5-0.8,2.2-1.3c0.2-0.1,0.3-0.2,0.5-0.3c0.4-0.3,0.8-0.5,1.1-0.8c0.4-0.4,0.8-0.8,1.3-1
			c0.1,0.3,0.1,0.6,0.2,0.9c0.4,0.3,0.7,0.6,1.1,1c-0.3,0.1-0.7,0.3-1.1,0.3c-0.2,0.3-0.5,0.3-0.8,0.3c-0.2,0.2-0.4,0.4-0.7,0.5
			c-0.2,0-0.3,0.2-0.5,0.3c0,0.1,0.1,0.1,0,0.2c-0.1,0.1-0.2,0.2-0.3,0.3c-0.1,0.2-0.2,0.4-0.3,0.6c-0.1,0.2,0,0.4,0.2,0.5
			c0.2,0.1,0.5,0.2,0.7,0.1c0.6-0.3,1.2-0.6,1.7-0.8c0,0,0.1,0,0.1,0c1.5-0.9,2.9-1.7,4.7-1.8c1-0.1,1.9-0.1,2.8,0
			c0.6,0.1,1.1,0.1,1.7,0.2c0.2,0,0.4,0,0.6,0.2c0.2,0.2,0.4,0.1,0.7,0.1c0.1-0.1,0.1-0.3,0.1-0.5c0-0.7,0.1-1.3,0.2-2
			c0-0.3,0.1-0.6,0.1-1C330.5,160.5,330.5,160.2,330.4,159.9z M324.3,161.5c-0.4,0.5-1,0.8-1.5,1c-0.2,0.1-0.4,0.1-0.5,0
			c-0.6-0.2-1.1-0.4-1.6-0.8c0.1-0.2,0.1-0.4,0.2-0.6c0.2,0.2,0.3,0.3,0.4,0.4c0.3,0.3,0.7,0.5,1.1,0.7c0.3,0.1,0.5,0,0.8-0.1
			c0.2-0.1,0.4-0.2,0.4-0.5c0-0.3-0.2-0.5-0.4-0.7c-0.2-0.1-0.4-0.1-0.6-0.2c-0.1-0.1-0.2-0.2-0.3-0.3c0.1-0.1,0.2-0.1,0.3-0.1
			c0.6,0,1.2,0.1,1.7,0.4C324.5,161,324.5,161.3,324.3,161.5z"/>
		<path class="st20" d="M273.9,136.3c0,0.1,0,0.3,0,0.4c-0.1,0.5-0.4,0.7-0.8,0.5c-0.3-0.1-0.6-0.3-0.8-0.5
			c-0.2-0.1-0.7-0.6-0.8-0.7c-0.6-0.4-1.3-0.9-1.9-1.2c-0.8-0.4-1.7-0.9-2.7-1c-1.7-0.3-3.3,0.2-4.3,1.7c-0.1,0.3-0.4,0.9-0.4,1.1
			c-0.6,0.1-1.3,0-1.8-0.2c-0.4-0.2-0.9-0.3-1.4-0.5c0.2-0.6,0.9-1.6,1.1-1.7c0.4-0.4,0.7-0.8,1.1-1.1c0.7-0.6,1.4-1.2,2.2-1.6
			c0.9-0.4,1.8-0.6,2.7-0.8c0.8-0.2,1.6-0.2,2.5-0.1c0.5,0.1,1,0,1.5,0c0.3,0,0.5,0.1,0.8,0.1c0.2,0,0.5,0.1,0.7,0.2
			c0.5,0.1,0.9,0.3,1.4,0.4c0.4,0.2,0.9,0.3,1.3,0.5c1.4,0.7,2.9,1.5,4.3,2.2c0.4,0.2,0.8,0.5,1.2,0.8c0.3,0.3,0.6,0.5,1,0.6
			c0.1,0,0.1,0.1,0.2,0.1c0,0.3-0.1,0.5-0.4,0.6c-0.3,0.1-0.9,0.4-2.2-0.4c-0.3-0.3-0.6-0.6-0.9-0.8c-0.4-0.3-0.9-0.6-1.3-0.9
			c-0.1-0.1-0.3-0.2-0.4-0.2c-0.1,0-0.2-0.1-0.3,0.1c0.1,0.1,0.1,0.2,0.2,0.3c0.3,0.5,0.4,1.1,0.3,1.7c-0.2,0.2-0.3,0.5-0.5,0.7
			c-0.2,0.2-0.4,0.2-0.5,0c-0.1-0.2-0.1-0.3-0.1-0.5c0-0.6,0-1.1-0.4-1.6c-0.4-0.4-0.6-0.9-1.2-1.2c0.2,0.7,0.1,1.3,0,1.8
			c0.2,0.2,0.4,0.3,0.6,0.5C273.8,136,273.9,136.2,273.9,136.3z M272.1,134.8c0-0.2,0-0.4,0-0.5c-0.1-0.4-0.4-0.7-0.7-1
			c-0.3-0.2-0.5-0.2-0.8-0.1c-0.1,0-0.1,0.2-0.2,0.3C271,133.9,271.4,134.5,272.1,134.8z"/>
		<path class="st20" d="M291.9,177.7c0.5-0.2,3.8-0.2,4.3-0.2c0.1,0,0.1,0,0.2,0.1c-0.1,0.6-0.2,1.3-0.1,1.9c0,0.4,0.1,0.7,0.2,1.1
			c0.2,0.7,0.7,1.2,1.4,1.6c0.6,0.3,1.3,0.6,2,0.9c0,0,0,0.1,0,0.1c-0.3,0.4-0.7,0.7-1.1,0.9c-0.2,0.1-0.4,0.2-0.6,0.3
			c-1,0.6-2,0.6-3,0.4c-0.8-0.2-1.7-0.3-2.5-0.5c-0.8-0.2-1.5-0.5-2.2-0.9c-0.5-0.3-0.5-0.4-0.8-1c0.2-0.1,0.5-0.2,0.7-0.3
			c0.6-0.2,1.1-0.5,1.5-1c0.6-0.6,0.7-1.4,0.6-2.2c-0.1-0.4-0.2-0.8-0.5-1.1C291.9,177.9,291.9,177.8,291.9,177.7z"/>
		<path class="st18" d="M301.8,183.6c-0.6,0.5-1.3,1-1.9,1.5c-0.9,0.7-2,1-3.1,1.4c-0.9,0.4-1.9,0.4-2.8,0.1
			c-0.6-0.1-1.2-0.2-1.7-0.5c-0.3-0.1-0.7-0.1-1.1-0.3c-0.9-0.5-1.8-1-2.6-1.6c0,0,0,0-0.1,0c-0.5-0.6-1.2-0.8-1.8-1.2
			c0.6-0.1,1.2-0.3,1.8-0.4c0.2,0,0.3,0,0.4,0.2c0.1,0.1,0.1,0.2,0.1,0.2c0.2,0.5,0.6,0.9,1.1,1.2c0.6,0.3,1.1,0.6,1.8,0.8
			c0.1,0,0.2,0.1,0.3,0.1l0,0c0.4,0.3,0.9,0.3,1.4,0.4c0.6,0.1,1.1,0.2,1.7,0.3c0.2,0,0.4,0.1,0.6-0.1c1.2,0.1,2.3-0.4,3.3-0.9
			c0.4-0.2,0.7-0.4,0.9-0.8c0-0.1,0.1-0.1,0.1-0.2c0.3-0.4,0.7-0.5,1.1-0.3C301.4,183.5,301.6,183.6,301.8,183.6z"/>
		<path class="st16" d="M286.4,183c-0.2,0.2-0.3,0.1-0.5,0.1C286.1,183,286.3,183,286.4,183z"/>
		<path class="st15" d="M305.3,217.7c-0.5,0.4-1,0.6-1.6,0.8c-1.3,0.3-2.6,0.5-3.9,0.5c-1,0-2.1,0.1-3.1,0.1
			c-2.4-0.1-4.9-0.2-7.3-0.6c-1.3-0.2-2.6-0.4-3.8-0.8c-0.7,0-1.2-0.4-1.8-0.7c0-0.7,0-1.5,0-2.2c0-0.4,0-0.7-0.1-1.1
			c0-0.1,0-0.3,0-0.4c1.7,0.3,3.4,0.5,5.1,0.6c0.9,0,1.7,0.3,2.5,0.4c0,0.1,0,0.2,0,0.3c-0.1,0.9,0.2,1.7,0.7,2.4
			c0.7,1,1.6,1.6,2.9,1.6c0.3,0,0.6,0,0.8,0c0.5,0,0.9-0.2,1.3-0.5c0.8-0.8,1.3-1.8,1.3-3c0-0.2,0-0.4,0-0.6c0.6,0,1.2-0.1,1.7,0
			c1.2,0,2.4-0.1,3.6-0.1c0.4,0,0.8,0,1.1-0.1c0.1,0,0.2,0,0.3,0c0.2,0.4,0.1,0.8,0.1,1.2c0,0.4,0.1,0.8,0.1,1.2
			C305.3,216.9,305.3,217.3,305.3,217.7z"/>
		<path class="st21" d="M317.2,164.8c0,0.1,0.1,0.1,0,0.2c-0.1,0.1-0.2,0.2-0.3,0.3c-0.1,0.2-0.2,0.4-0.3,0.6
			c-0.1,0.2,0,0.4,0.2,0.5c0.2,0.1,0.5,0.2,0.7,0.1c0.1,1.3,0.1,2.6,0.2,3.8c0,1,0.1,2,0.1,3c0,0.4-0.1,1.3-0.1,1.4
			c0,0.2-0.1,0.4-0.3,0.4c-0.6,0.1-1.2,0.1-1.8,0.1c-1,0-1.9,0-2.9,0c-0.8,0-1.7,0.1-2.5,0.1c-0.4,0-0.7,0-1.1,0
			c-7.9,0.2-15.7,0.1-23.6,0.2c-1.4,0-2.9,0.1-4.3,0.1c-0.6,0-1.1,0-1.7,0c-1.5,0-2.9,0.1-4.4,0.2c-0.8,0-1.5,0.2-2.3,0.2
			c-0.3,0-0.7,0-1,0c-0.5,0-1,0-1.5,0c0,0,0,0-0.1,0c-0.9-0.1-1.1-0.4-1.1-1.1c0-2.1,0-4.2,0-6.3c0-0.8,0-1.6,0-2.4
			c0-0.6-0.1-1.2-0.1-1.7c0-0.6,0-1.2-0.1-1.7c0,0,0,0,0-0.1c-0.1-1-0.1-2-0.2-3c-0.1-1.1-0.1-2.3-0.2-3.4c-0.1-1.4-0.1-2.7-0.1-4.1
			c0-0.3,0-0.5,0-0.8c0-0.8-0.1-1.6-0.2-2.4c0-0.3-0.1-0.6-0.1-0.8c0-2.7,0-5.3,0-8c0-0.5,0.1-1,0.2-1.5c0.1,0,0.3-0.1,0.4-0.1
			c0.2,0,0.4,0,0.6,0c0.7,0,1.3-0.1,2-0.2c1-0.2,2-0.4,3-0.5c0.5-0.1,1,0,1.5,0c0.6,0,1.3-0.1,1.9-0.2c0.7-0.1,1.4-0.2,2.1-0.2
			c0.8,0,1.7-0.1,2.5-0.2c0.1,0,0.1,0,0.2,0c1-0.1,1.9-0.1,2.9-0.2c0.5,0,1.1-0.1,1.6-0.1c0.5,0,1.1,0,1.6-0.1
			c0.5-0.1,1.1,0,1.6-0.1c1.4-0.1,2.9-0.1,4.3-0.2c1.5-0.1,3.1-0.1,4.6-0.1c1.1,0,2.1-0.1,3.2-0.2c0.7-0.1,1.3-0.1,2-0.1
			c2-0.2,4-0.1,6.1-0.1c0.2,0,0.5,0,0.7-0.1c0.2,0,2.2,0.1,3.1,0.1c0.3,0,0.7,0,1,0.2c0,0.1,0,0.3,0.1,0.4c0,0.1,0,0.3,0,0.4
			c0,1.3,0.1,2.5,0.3,3.8c0.1,0.6,0.1,1.2,0.2,1.8c0.1,0.6,0.2,1.2,0.2,1.9c0.1,0.5,0.1,0.9,0.2,1.4c0.1,0.7,0.1,1.4,0.2,2.2
			c0.1,1.1,0.1,2.2,0.2,3.3c0.1,0.5,0,1.1,0,1.6c0,1,0.1,2.1,0.2,3.1c0.1,0.6,0,1.2,0.1,1.7c0.1,0.8,0.1,1.8,0.2,2.7
			c-0.1,0.1-0.1,0.1-0.2,0.3c-0.6,0.5-1.2,0.9-1.8,1.4c-0.7,0.5-1.4,1.1-2.1,1.6c-0.1,0-0.1,0.1-0.2,0.1c-0.2,0.1-0.2,0.3-0.2,0.5
			c0,0.2,0.2,0.3,0.4,0.4c0.2,0,0.4,0,0.6,0.1c-0.5,0.4-1,0.9-1.6,1.2c-0.4,0.3-0.7,0.6-1.1,0.9c-0.3,0.3-0.2,0.8,0.3,1
			c0.1,0,0.2,0,0.3,0c0.3,0,0.6-0.1,0.9-0.3c1-0.6,2-1.3,3-1.9C316,165.5,316.6,165.2,317.2,164.8z M310.2,167.5
			c-0.2,0.1-0.4,0.1-0.6,0.2c-2.4,0.8-4.7,1.5-7.2,2.1c-3.8,1-7.6,1.5-11.5,1.5c-2.9,0-5.8-0.3-8.7-0.6c-1.9-0.2-3.7-0.5-5.5-1.1
			c-0.1,0-0.1,0-0.2-0.1c-0.3,0-0.5,0.1-0.6,0.4c-0.1,0.4,0,0.7,0.4,0.9c0.1,0.1,0.3,0.1,0.5,0.2c1.3,0.4,2.7,0.7,4,0.8
			c1,0.1,2,0.2,3,0.3c1.4,0.1,2.7,0.3,4.1,0.3c2.2,0.1,4.5,0.1,6.7-0.1c2.1-0.2,4.1-0.5,6.1-0.9c3.2-0.7,6.3-1.6,9.4-2.6
			c0.1,0,0.3-0.1,0.4-0.2C310.5,168.3,310.4,167.9,310.2,167.5z"/>
		<path class="st15" d="M317.2,164.8c-0.6,0.4-1.1,0.7-1.7,1.1c-1,0.6-1.9,1.4-3,1.9c-0.3,0.2-0.6,0.3-0.9,0.3c-0.1,0-0.2,0-0.3,0
			c-0.5-0.1-0.6-0.7-0.3-1c0.4-0.3,0.7-0.6,1.1-0.9c0.6-0.4,1.1-0.8,1.6-1.2c0.7-0.4,1.5-0.8,2.2-1.3c0.2-0.1,0.3-0.2,0.5-0.3
			c0.4-0.3,0.8-0.5,1.1-0.8c0.2,0,0.4,0,0.6,0.2c0.1,0.2,0.2,0.4,0.2,0.5c0,0.2,0,0.4,0,0.7c-0.2,0.2-0.4,0.4-0.7,0.5
			C317.5,164.5,317.3,164.7,317.2,164.8z"/>
		<path class="st17" d="M318.4,164c0-0.2,0.1-0.5,0-0.7c0-0.2-0.1-0.4-0.2-0.5c-0.1-0.2-0.4-0.2-0.6-0.2c0.4-0.4,0.8-0.8,1.3-1
			c0.1,0.3,0.1,0.6,0.2,0.9c0,0.4,0,0.8,0.1,1.2C319,164,318.7,164,318.4,164z"/>
		<path class="st15" d="M310.2,167.5c0.1,0.4,0.3,0.8,0.4,1.1c-0.1,0.1-0.3,0.1-0.4,0.2c-3.1,1-6.2,2-9.4,2.6
			c-2,0.4-4.1,0.8-6.1,0.9c-2.2,0.2-4.5,0.2-6.7,0.1c-1.4-0.1-2.7-0.2-4.1-0.3c-1-0.1-2-0.2-3-0.3c-1.4-0.2-2.7-0.4-4-0.8
			c-0.2,0-0.3-0.1-0.5-0.2c-0.4-0.2-0.5-0.5-0.4-0.9c0.1-0.3,0.3-0.4,0.6-0.4c0.1,0,0.1,0,0.2,0.1c1.8,0.6,3.6,0.9,5.5,1.1
			c2.9,0.3,5.8,0.5,8.7,0.6c3.9,0,7.7-0.5,11.5-1.5c2.4-0.6,4.8-1.3,7.2-2.1C309.8,167.6,310,167.6,310.2,167.5z"/>
		<path class="st21" d="M292,152.2c0.2,0.8,0.4,1.5,0.5,2.2c-0.2,0.1-0.5,0.1-0.7,0C291.7,153.7,291.8,153,292,152.2z"/>
		<path class="st21" d="M306.1,162.6c-0.3,0.1-0.5,0.1-0.8,0c0.1-0.7,0.1-1.4,0.3-2.1C305.8,161.2,306,161.9,306.1,162.6z"/>
		<path class="st22" d="M283.8,222.9l2,71.2h1.6l4.9-62.4c0,0,4.2-1,5.1-0.5c1,0.5,1.5,62.9,1.5,62.9h1.6l4.9-71.7L283.8,222.9z"/>
		<path class="st19" d="M297.5,231.3l7.8-5.1c0,0,0.8-6.3,0-9.7c0,1.2-18.1,1.4-21.5,0.4c-0.3,5.3-0.1,5.4,0.1,10.3l8.4,4.5l0,0
			C292.3,231.7,296.6,230.6,297.5,231.3C297.6,231.8,297.5,231.3,297.5,231.3z"/>
		<path class="st19" d="M288.6,280.4l-2.2,1.9l-0.9-2.9c0,0,0.4,13.7,0.4,14.7c-0.6,0.3-7.2,2.3-7.2,3.2c-0.1,0.9,8-0.3,9.1-1.2
			C288.7,295.1,288.6,280.4,288.6,280.4z"/>
		<path class="st19" d="M298.8,280.4l2.2,1.9l0.6-2.9c0,0-0.1,13.7-0.1,14.7c1.8,0.3,4.4,3.5,4.4,4.4c0.1,0.9-5.5-1.3-6.5-2.2
			C298.3,295.4,298.8,280.4,298.8,280.4z"/>
		<path class="st23" d="M298.3,214.3c0,0.2,0,0.4,0,0.6c0,1.2-0.5,2.2-1.3,3c-0.3,0.3-0.8,0.5-1.3,0.5c-0.3,0-0.6,0-0.8,0
			c-1.3,0-4.1-1.8-3.6-4c0-0.1,0-0.2,0-0.3c0.1-0.3,0.2-0.7,0.3-1c0.3-1.4,1.3-2.2,2.7-2.4c0.4-0.1,0.9,0,1.3,0.2
			c1,0.4,1.7,1.2,2.2,2.1c0.1,0.3,0.2,0.6,0.3,0.9C298.2,214,298.3,214.2,298.3,214.3z M292.6,212.6c0.1-0.1,0.2-0.1,0.1-0.3
			c0.5-0.1,0.9-0.5,1.4-0.8c-0.4-0.1-0.6,0-0.8,0.2c-0.2,0.2-0.5,0.3-0.6,0.6C292.6,212.4,292.6,212.5,292.6,212.6
			C292.6,212.7,292.6,212.7,292.6,212.6C292.6,212.7,292.6,212.6,292.6,212.6z"/>
	</g>
	<g class="st14">
		<text transform="matrix(0.9991 -4.362000e-02 4.362000e-02 0.9991 299.2431 146.1281)" class="st3 st8 st24"> </text>
	</g>
	<g class="st14">
		<text transform="matrix(0.9991 -4.362000e-02 4.362000e-02 0.9991 300.7656 155.6987)" class="st3 st25 st24"> </text>
	</g>
</g>
<text transform="matrix(0.9991 -4.362000e-02 4.362000e-02 0.9991 285.3618 146.7341)" class="st3 st26 st24">TIM</text>
<text transform="matrix(0.9991 -4.362000e-02 4.362000e-02 0.9991 284.6891 156.4006)"><tspan x="0" y="0" class="st3 st25 st24">F</tspan><tspan x="4.5" y="0" class="st3 st25 st24">A</tspan><tspan x="10.8" y="0" class="st3 st25 st24">Z</tspan></text>
<text transform="matrix(0.9991 -4.362000e-02 4.362000e-02 0.9991 276.24 166.4057)" class="st3 st25 st24">CIÊNCIA</text>
<g>
	<text transform="matrix(1 0 0 1 70.578 546.6595)" class="st27 st25 st28">sobre</text>
</g>
<text transform="matrix(1 0 0 1 20.3094 579.9086)" class="st3 st8 st29">Conheça TIM Tec</text>
<text transform="matrix(1 0 0 1 434.0217 40.8044)" class="st30 st8 st31">Header - opção 1</text>
<g>
	<text transform="matrix(1 0 0 1 194.1883 546.6595)" class="st27 st25 st28">software</text>
</g>
<text transform="matrix(1 0 0 1 194.1883 579.9086)"><tspan x="0" y="0" class="st3 st8 st29">Funcionalidades</tspan><tspan x="0" y="30.6" class="st3 st8 st29">Instalação e desenvolvimento</tspan></text>
<g>
	<text transform="matrix(1 0 0 1 444.1577 546.6595)" class="st27 st25 st28">Cursos</text>
</g>
<text transform="matrix(1 0 0 1 444.1576 579.9086)" class="st3 st8 st29">Listas de cursos</text>
<g>
	<text transform="matrix(1 0 0 1 611.4205 546.6595)" class="st27 st25 st28">Rede</text>
</g>
<text transform="matrix(1 0 0 1 611.4205 579.9086)"><tspan x="0" y="0" class="st3 st8 st29">Conheça a Rede TIM Tec</tspan><tspan x="0" y="30.6" class="st3 st8 st29">FAQ</tspan><tspan x="0" y="61.2" class="st3 st8 st29">Fórum</tspan></text>
<g>
	<text transform="matrix(1 0 0 1 340.491 849.2405)" class="st27 st8 st32">Copyright TIM Celular 2016 - Todos direitos reservados.</text>
</g>
<text transform="matrix(1 0 0 1 32.8722 91.8907)" class="st3 st8 st9">Portal TIM</text>
<rect id="rect2985_1_" y="240.9" inkscape:export-filename="/home/system/instituto_tim/headers_e_footers/instituto_tim_header_footer.png" inkscape:export-xdpi="90" inkscape:export-ydpi="90" class="st1" width="1024" height="29">
</rect>
<rect id="rect3757_1_" y="269.9" inkscape:export-filename="/home/system/instituto_tim/headers_e_footers/instituto_tim_header_footer.png" inkscape:export-xdpi="90" inkscape:export-ydpi="90" class="st2" width="1024" height="2">
</rect>
<path id="path44-3_3_" inkscape:connector-curvature="0" inkscape:export-filename="/home/system/instituto_tim/headers_e_footers/instituto_tim_header_footer.png" inkscape:export-xdpi="90" inkscape:export-ydpi="90" class="st3" d="
	M21.8,259.9h-4.1c-0.2,0-0.3,0.1-0.4,0.2c-0.1,0.1-0.2,0.2-0.2,0.4v1c0,0.2,0.1,0.3,0.2,0.4s0.2,0.2,0.4,0.2h4.1V259.9L21.8,259.9z
	 M28.7,260.1c-0.1-0.1-0.2-0.2-0.4-0.2h-4.1v2.1h4.1c0.2,0,0.3-0.1,0.4-0.2s0.2-0.2,0.2-0.4v-1C28.8,260.3,28.8,260.2,28.7,260.1
	 M28.7,256.2c-0.1-0.1-0.2-0.2-0.4-0.2h-4.1v2.1h4.1c0.2,0,0.3-0.1,0.4-0.2s0.2-0.2,0.2-0.4v-1C28.8,256.5,28.8,256.3,28.7,256.2
	 M21.8,256.1h-4.1c-0.2,0-0.3,0.1-0.4,0.2s-0.2,0.2-0.2,0.4v1c0,0.2,0.1,0.3,0.2,0.4c0.1,0.1,0.2,0.2,0.4,0.2h4.1V256.1z
	 M28.3,254.3H17.7c-0.2,0-0.3-0.1-0.4-0.2c-0.1-0.1-0.2-0.2-0.2-0.4v-1c0-0.2,0.1-0.3,0.2-0.4s0.2-0.2,0.4-0.2h10.5
	c0.2,0,0.3,0.1,0.4,0.2c0.1,0.1,0.2,0.2,0.2,0.4v1c0,0.2-0.1,0.3-0.2,0.4C28.6,254.3,28.4,254.3,28.3,254.3"/>
<text transform="matrix(1 0 0 1 32.8722 261.0399)" class="st3 st8 st9">Portal TIM</text>
<rect id="rect3755-6-5_10_" y="271.5" inkscape:export-filename="/home/system/instituto_tim/headers_e_footers/instituto_tim_header_footer.png" inkscape:export-xdpi="90" inkscape:export-ydpi="90" class="st5" width="1024" height="90">
</rect>
<rect id="rect3755-6-5_9_" y="271.5" inkscape:export-filename="/home/system/instituto_tim/headers_e_footers/instituto_tim_header_footer.png" inkscape:export-xdpi="90" inkscape:export-ydpi="90" class="st5" width="1024" height="90">
</rect>
<path id="path24-9-2_5_" inkscape:connector-curvature="0" inkscape:export-filename="/home/system/instituto_tim/headers_e_footers/instituto_tim_header_footer.png" inkscape:export-xdpi="90" inkscape:export-ydpi="90" class="st3" d="
	M21.3,324c-0.3,0-0.4-0.1-0.5-0.1s-0.1-0.1-0.1-0.2v-18.7c0-0.1,0-0.2,0.1-0.2s0.2-0.1,0.5-0.1c0.3,0,0.6,0,0.9,0h0.3
	c0.6,0,1.1,0,1.3,0.1c0.2,0,0.3,0.1,0.3,0.3v18.7c0,0.2-0.1,0.3-0.3,0.3s-0.6,0.1-1.3,0.1h-0.3C21.9,324,21.6,324,21.3,324"/>
<path id="path26-1-5_5_" inkscape:connector-curvature="0" inkscape:export-filename="/home/system/instituto_tim/headers_e_footers/instituto_tim_header_footer.png" inkscape:export-xdpi="90" inkscape:export-ydpi="90" class="st3" d="
	M28.4,323.9c-0.2-0.1-0.3-0.2-0.3-0.3v-8.2c0-1.9,0-3.7-0.1-5.1c0-0.2,0.1-0.3,0.2-0.4c0.2-0.1,0.6-0.1,1.1-0.1h0.2
	c0.6,0,0.9,0,1.1,0.1c0.2,0,0.3,0.1,0.3,0.3c0.1,0.5,0.1,0.8,0.1,1.3c0.5-0.6,1-1,1.7-1.4c0.7-0.4,1.5-0.5,2.4-0.5
	c1.7,0,2.9,0.5,3.8,1.4c0.5,0.5,0.7,1.1,1,1.8c0.2,0.7,0.3,1.6,0.3,2.6v8.3c0,0.2-0.1,0.3-0.3,0.3c-0.2,0.1-0.6,0.1-1.2,0.1h-0.2
	c-0.6,0-1.1,0-1.2-0.1c-0.2-0.1-0.3-0.2-0.3-0.3v-7.2c0-1,0-1.7-0.1-2.2c-0.1-0.5-0.3-0.8-0.6-1.1c-0.5-0.5-1.2-0.7-2.1-0.7
	c-0.9,0-1.7,0.3-2.3,0.7c-0.5,0.4-0.7,0.9-0.7,1.6c0,0.5-0.1,1.5-0.1,3v6c0,0.2-0.1,0.3-0.3,0.3c-0.2,0.1-0.6,0.1-1.2,0.1h-0.1
	C29,324,28.6,324,28.4,323.9"/>
<path id="path28-2-4_5_" inkscape:connector-curvature="0" inkscape:export-filename="/home/system/instituto_tim/headers_e_footers/instituto_tim_header_footer.png" inkscape:export-xdpi="90" inkscape:export-ydpi="90" class="st3" d="
	M45.4,323.9c-0.8-0.3-1.6-0.6-2.1-1c-0.1-0.1-0.2-0.2-0.2-0.3c0-0.1,0.1-0.4,0.4-0.8l0.2-0.4c0.2-0.3,0.3-0.5,0.4-0.6
	c0.1-0.1,0.2-0.2,0.3-0.2c0,0,0.1,0,0.2,0.1c1.4,0.7,2.6,1.1,3.8,1.1c0.7,0,1.3-0.2,1.7-0.5c0.5-0.3,0.6-0.7,0.6-1.2
	s-0.2-0.9-0.6-1.1c-0.5-0.3-1.3-0.6-2.5-0.8c-1.4-0.4-2.4-0.9-3-1.6c-0.6-0.6-0.9-1.5-0.9-2.7c0-1.4,0.5-2.4,1.5-3.2
	c1-0.7,2.2-1.2,3.9-1.2c0.8,0,1.7,0.1,2.4,0.4s1.5,0.6,2,1c0.1,0.1,0.2,0.2,0.2,0.3c0,0.1-0.2,0.4-0.5,0.8l-0.2,0.3
	c-0.3,0.4-0.4,0.6-0.6,0.6c-0.1,0.1-0.2,0.1-0.4,0c-1-0.6-1.9-0.9-2.9-0.9c-0.7,0-1.4,0.1-1.7,0.4c-0.4,0.3-0.6,0.6-0.6,1.2
	c0,0.4,0.1,0.6,0.4,0.8c0.3,0.2,0.6,0.4,0.9,0.6c0.4,0.1,0.9,0.3,1.7,0.6c1.5,0.5,2.6,0.9,3.2,1.6c0.6,0.6,1,1.5,1,2.6
	c0,1.5-0.5,2.6-1.5,3.4c-1,0.8-2.3,1.2-4,1.2C47.1,324.3,46.2,324.2,45.4,323.9"/>
<path id="path30-7-7_5_" inkscape:connector-curvature="0" inkscape:export-filename="/home/system/instituto_tim/headers_e_footers/instituto_tim_header_footer.png" inkscape:export-xdpi="90" inkscape:export-ydpi="90" class="st3" d="
	M58.3,323.3c-0.4-0.4-0.6-0.8-0.8-1.4c-0.2-0.6-0.3-1.3-0.3-2.2v-7.4H55c-0.1,0-0.2-0.1-0.3-0.2c0-0.1-0.1-0.4-0.1-0.7v-0.2
	c0-0.4,0-0.6,0.1-0.6c0-0.1,0.1-0.2,0.3-0.2c0.7-0.2,1.4-0.5,1.7-0.8c0.4-0.3,0.7-0.7,0.9-1.2c0.2-0.5,0.4-1.2,0.5-2
	c0-0.1,0.1-0.2,0.2-0.2c0.1,0,0.4,0,0.7,0h0.2c0.4,0,0.6,0,0.8,0.1c0.1,0,0.2,0.1,0.2,0.3v3.6h3.4c0.1,0,0.2,0.1,0.3,0.2
	c0,0.1,0.1,0.5,0.1,0.9v0.2c0,0.5,0,0.8-0.1,0.9c0,0.1-0.1,0.2-0.3,0.2h-3.4v7.2c0,0.5,0,0.8,0.1,1.1c0.1,0.3,0.2,0.5,0.4,0.6
	c0.3,0.3,0.7,0.5,1.4,0.5c0.6,0,1-0.1,1.6-0.3c0.1,0,0.2,0,0.3,0.1c0.1,0.1,0.2,0.4,0.4,0.8l0.2,0.1c0.1,0.4,0.2,0.6,0.2,0.7
	c0,0.2-0.1,0.3-0.3,0.4c-0.5,0.2-0.9,0.4-1.5,0.5c-0.6,0.1-1,0.2-1.6,0.2C60,324.3,59,323.9,58.3,323.3"/>
<path id="path32-0-4_5_" inkscape:connector-curvature="0" inkscape:export-filename="/home/system/instituto_tim/headers_e_footers/instituto_tim_header_footer.png" inkscape:export-xdpi="90" inkscape:export-ydpi="90" class="st3" d="
	M67.4,323.9c-0.2,0-0.3-0.2-0.3-0.3v-13.5c0-0.2,0.1-0.3,0.3-0.3s0.6-0.1,1.2-0.1h0.2c0.6,0,1,0,1.2,0.1c0.2,0,0.3,0.2,0.3,0.3v13.5
	c0,0.1-0.1,0.2-0.3,0.3c-0.2,0.1-0.6,0.1-1.2,0.1h-0.2C67.9,324,67.5,324,67.4,323.9L67.4,323.9z M67.3,306.7
	c-0.4-0.4-0.6-0.8-0.6-1.4c0-0.6,0.2-1,0.6-1.4c0.4-0.4,0.8-0.6,1.4-0.6c0.6,0,1,0.2,1.4,0.6c0.4,0.4,0.6,0.8,0.6,1.4
	c0,0.6-0.2,1-0.6,1.4c-0.4,0.4-0.8,0.6-1.4,0.6C68.1,307.4,67.6,307.1,67.3,306.7"/>
<path id="path34-9-4_5_" inkscape:connector-curvature="0" inkscape:export-filename="/home/system/instituto_tim/headers_e_footers/instituto_tim_header_footer.png" inkscape:export-xdpi="90" inkscape:export-ydpi="90" class="st3" d="
	M76.4,323.3c-0.4-0.4-0.6-0.8-0.8-1.4c-0.2-0.6-0.3-1.3-0.3-2.2v-7.4h-2.2c-0.1,0-0.2-0.1-0.3-0.2c0-0.1-0.1-0.4-0.1-0.7v-0.2
	c0-0.4,0-0.6,0.1-0.6c0-0.1,0.1-0.2,0.3-0.2c0.7-0.2,1.4-0.5,1.7-0.8c0.4-0.3,0.7-0.7,0.9-1.2c0.2-0.5,0.4-1.2,0.5-2
	c0-0.1,0.1-0.2,0.2-0.2s0.4,0,0.7,0h0.2c0.4,0,0.6,0,0.8,0.1c0.1,0,0.2,0.1,0.2,0.3v3.6h3.4c0.1,0,0.2,0.1,0.3,0.2
	c0,0.1,0.1,0.5,0.1,0.9v0.2c0,0.5,0,0.8-0.1,0.9c0,0.1-0.1,0.2-0.3,0.2h-3.4v7.2c0,0.5,0,0.8,0.1,1.1c0.1,0.3,0.2,0.5,0.4,0.6
	c0.3,0.3,0.7,0.5,1.4,0.5c0.6,0,1-0.1,1.6-0.3c0.1,0,0.2,0,0.3,0.1c0.1,0.1,0.2,0.4,0.4,0.8l0.1,0.3c0.1,0.4,0.2,0.6,0.2,0.7
	c0,0.2-0.1,0.3-0.3,0.4c-0.5,0.2-0.9,0.4-1.5,0.5s-1,0.2-1.6,0.2C78.1,324.3,77.1,323.9,76.4,323.3"/>
<path id="path36-3-3_5_" inkscape:connector-curvature="0" inkscape:export-filename="/home/system/instituto_tim/headers_e_footers/instituto_tim_header_footer.png" inkscape:export-xdpi="90" inkscape:export-ydpi="90" class="st3" d="
	M86.3,322.9c-0.5-0.5-0.7-1.1-1-1.8c-0.2-0.7-0.3-1.6-0.3-2.6v-8.3c0-0.2,0.1-0.3,0.3-0.3c0.2-0.1,0.6-0.1,1.2-0.1h0.2
	c0.6,0,1.1,0,1.2,0.1c0.2,0.1,0.3,0.2,0.3,0.3v7.2c0,1,0,1.7,0.1,2.2c0.1,0.5,0.3,0.8,0.6,1.1c0.5,0.5,1.2,0.7,2,0.7
	c0.5,0,0.9-0.1,1.3-0.2c0.4-0.1,0.7-0.3,1-0.6c0.5-0.4,0.7-0.9,0.7-1.6c0-0.5,0.1-1.5,0.1-3v-6c0-0.2,0.1-0.3,0.3-0.3
	c0.2-0.1,0.6-0.1,1.2-0.1h0.1c0.6,0,1.1,0,1.3,0.1s0.3,0.2,0.3,0.3v8.2c0,1.9,0,3.7,0.1,5.1c0,0.2-0.1,0.3-0.2,0.4
	c-0.2,0.1-0.6,0.1-1.1,0.1h-0.2c-0.6,0-0.9,0-1.1-0.1c-0.2,0-0.3-0.1-0.3-0.3c-0.1-0.5-0.1-0.8-0.1-1.3c-0.5,0.6-1,1-1.7,1.4
	c-0.7,0.4-1.5,0.5-2.4,0.5C88.4,324.3,87.2,323.8,86.3,322.9"/>
<path id="path38-6-0_5_" inkscape:connector-curvature="0" inkscape:export-filename="/home/system/instituto_tim/headers_e_footers/instituto_tim_header_footer.png" inkscape:export-xdpi="90" inkscape:export-ydpi="90" class="st3" d="
	M102.6,323.3c-0.4-0.4-0.6-0.8-0.8-1.4c-0.2-0.6-0.3-1.3-0.3-2.2v-7.4h-2.2c-0.1,0-0.2-0.1-0.3-0.2c0-0.1-0.1-0.4-0.1-0.7v-0.2
	c0-0.4,0-0.6,0.1-0.6c0-0.1,0.1-0.2,0.3-0.2c0.7-0.2,1.4-0.5,1.7-0.8c0.4-0.3,0.7-0.7,0.9-1.2c0.2-0.5,0.4-1.2,0.5-2
	c0-0.1,0.1-0.2,0.2-0.2c0.1,0,0.4,0,0.7,0h0.2c0.4,0,0.6,0,0.8,0.1c0.1,0,0.2,0.1,0.2,0.3v3.6h3.4c0.1,0,0.2,0.1,0.3,0.2
	c0,0.1,0.1,0.5,0.1,0.9v0.2c0,0.5,0,0.8-0.1,0.9c0,0.1-0.1,0.2-0.3,0.2h-3.4v7.2c0,0.5,0,0.8,0.1,1.1c0.1,0.3,0.2,0.5,0.4,0.6
	c0.3,0.3,0.7,0.5,1.4,0.5c0.6,0,1-0.1,1.6-0.3c0.1,0,0.2,0,0.3,0.1c0.1,0.1,0.2,0.4,0.3,0.8l0.1,0.3c0.1,0.4,0.2,0.6,0.2,0.7
	c0,0.2-0.1,0.3-0.3,0.4c-0.5,0.2-0.9,0.4-1.5,0.5s-1,0.2-1.6,0.2C104.4,324.3,103.4,323.9,102.6,323.3"/>
<path id="path40-0-7_5_" inkscape:connector-curvature="0" inkscape:export-filename="/home/system/instituto_tim/headers_e_footers/instituto_tim_header_footer.png" inkscape:export-xdpi="90" inkscape:export-ydpi="90" class="st3" d="
	M119.6,320.4c0.6-0.8,0.9-2,0.9-3.6c0-1.4-0.3-2.6-0.7-3.3c-0.6-0.8-1.4-1.2-2.5-1.2c-1.1,0-2,0.4-2.6,1.2c-0.6,0.8-0.9,2-0.9,3.6
	c0,1.4,0.3,2.5,0.7,3.3c0.6,0.8,1.3,1.2,2.4,1.2C118.1,321.6,119,321.2,119.6,320.4L119.6,320.4z M112.2,322.5
	c-1.1-1.2-1.7-2.9-1.7-5.2c0-2.5,0.6-4.3,1.7-5.7c1.2-1.3,2.8-1.9,5.1-1.9c2,0,3.6,0.6,4.7,1.8c1.1,1.2,1.7,2.9,1.7,5.2
	c0,2.5-0.6,4.3-1.7,5.7c-1.2,1.3-2.8,1.9-5.1,1.9C114.9,324.3,113.3,323.7,112.2,322.5"/>
<path id="path42-6-8_5_" inkscape:connector-curvature="0" inkscape:export-filename="/home/system/instituto_tim/headers_e_footers/instituto_tim_header_footer.png" inkscape:export-xdpi="90" inkscape:export-ydpi="90" class="st3" d="
	M207.6,304.7h-1.3c-1.7,0-1.7,0.2-1.9,0.5l-2.6,6.2c-0.8,2-1.7,4.2-2.1,5.4c-0.3-1.1-0.9-2.7-2.1-5.5l-2.6-6.1
	c-0.2-0.4-0.8-0.5-2.2-0.5h-1.5c-1.5,0-1.7,0.1-1.7,0.5v18.7c0,0.4,0.3,0.5,1.7,0.5h0.8c1.5,0,1.8-0.1,1.8-0.5v-11.1h0.1
	c0,0,0.1,0.6,0.4,1l2.9,7c0.1,0.3,0.3,0.5,1.7,0.5h0.9c1.4,0,1.5-0.1,1.7-0.5l2.7-6.7c0.3-0.6,0.5-1.3,0.5-1.3h0.1v11.1
	c0,0.4,0.3,0.5,1.8,0.5h0.7c1.5,0,1.8-0.1,1.8-0.5v-18.7C209.4,304.8,209,304.7,207.6,304.7 M186.1,305.1c0-0.3-0.5-0.5-1.8-0.5
	h-0.8c-1.5,0-1.7,0.1-1.7,0.5v18.7c0,0.4,0.3,0.5,1.7,0.5h0.8c1.5,0,1.8-0.1,1.8-0.5V305.1z M178.1,304.7c0.4,0,0.5,0.1,0.5,1.5v1.3
	c0,1.3-0.1,1.5-0.5,1.5h-4.4v14.9c0,0.4-0.5,0.5-1.9,0.5H171c-1.5,0-1.7-0.1-1.7-0.5V309h-4.4c-0.4,0-0.5-0.1-0.5-1.5v-1.3
	c0-1.5,0.1-1.5,0.5-1.5H178.1"/>
<path id="path44-2-6_5_" inkscape:connector-curvature="0" inkscape:export-filename="/home/system/instituto_tim/headers_e_footers/instituto_tim_header_footer.png" inkscape:export-xdpi="90" inkscape:export-ydpi="90" class="st4" d="
	M145.2,320.1H137c-0.3,0-0.6,0.1-0.8,0.4c-0.2,0.2-0.4,0.5-0.4,0.8v1.9c0,0.3,0.1,0.6,0.4,0.8c0.2,0.2,0.5,0.4,0.8,0.4h8.2V320.1
	L145.2,320.1z M158.8,320.3c-0.2-0.2-0.5-0.4-0.8-0.4h-8.2v4.1h8.2c0.3,0,0.6-0.1,0.8-0.4c0.2-0.2,0.4-0.5,0.4-0.8V321
	C159.2,320.8,159.1,320.5,158.8,320.3 M158.8,312.7c-0.2-0.2-0.5-0.4-0.8-0.4h-8.2v4.1h8.2c0.3,0,0.6-0.1,0.8-0.4
	c0.2-0.2,0.4-0.5,0.4-0.8v-1.9C159.2,313.2,159.1,312.9,158.8,312.7 M145.2,312.4H137c-0.3,0-0.6,0.1-0.8,0.4
	c-0.2,0.2-0.4,0.5-0.4,0.8v1.9c0,0.3,0.1,0.6,0.4,0.8c0.2,0.2,0.5,0.4,0.8,0.4h8.2V312.4L145.2,312.4z M158.1,308.9h-21.1
	c-0.3,0-0.6-0.1-0.8-0.4c-0.2-0.2-0.4-0.5-0.4-0.8v-1.9c0-0.3,0.1-0.6,0.4-0.8c0.2-0.2,0.5-0.4,0.8-0.4h21.1c0.3,0,0.6,0.1,0.8,0.4
	c0.2,0.2,0.4,0.5,0.4,0.8v1.9c0,0.3-0.1,0.6-0.4,0.8C158.6,308.8,158.3,308.9,158.1,308.9"/>
<rect id="rect3039-6-8_9_" x="368.7" y="319.7" inkscape:export-filename="/home/system/instituto_tim/headers_e_footers/instituto_tim_header_footer.png" inkscape:export-xdpi="90" inkscape:export-ydpi="90" class="st2" width="634.4" height="1">
</rect>
<path id="rect3913-6-5_5_" inkscape:export-filename="/home/system/instituto_tim/headers_e_footers/instituto_tim_header_footer.png" inkscape:export-xdpi="90" inkscape:export-ydpi="90" class="st3" d="
	M379.8,283h315.4c1.6,0,2.8,1.3,2.8,2.8v21.6c0,1.6-1.3,2.8-2.8,2.8H379.8c-1.6,0-2.8-1.3-2.8-2.8v-21.6
	C376.9,284.3,378.2,283,379.8,283z"/>
<g id="g3083-6-1_5_" transform="matrix(0.02322948,0,0,0.02322948,737.75606,819.54814)" inkscape:export-filename="/home/system/instituto_tim/headers_e_footers/instituto_tim_header_footer.png" inkscape:export-xdpi="90" inkscape:export-ydpi="90">
	<path id="path3085-5-5_5_" inkscape:connector-curvature="0" class="st6" d="M-2352.7-22230.6c-1.7-0.5-6.3-1.8-10.3-2.8
		c-15.8-4.2-13.1-1.8-93.4-81.9c-40.6-40.4-73.7-74-73.7-74.6s3.7-3.6,8.3-6.7c23-15.8,50.4-43.3,65.7-66.1c2.5-3.7,5-6.7,5.5-6.7
		c0.6,0,34.1,33.2,74.6,73.7c78.6,78.8,77.4,77.5,81.2,91.3c0.9,3,2.2,8,3.1,11c1.5,5.3,1.4,8.1-0.4,12.5c-0.5,1.1-1.4,4.3-2.1,7
		c-4.6,18.9-20.4,35.1-39,40c-3.6,0.9-7.4,2.1-8.5,2.5C-2345.2-22230-2349.6-22229.7-2352.7-22230.6z M-2696.7-22388.6
		c-54.9-3-109.5-27.8-149.4-67.9c-36.2-36.4-59.6-83.5-65.7-132.5c-0.9-7.2-2.1-14.8-2.8-17c-1.5-5-1.4-25.1,0.1-30.2
		c0.6-2.1,1.9-9.7,2.8-16.8c4.8-38.2,20.6-76.2,45.1-108.8c9.9-13.1,30.9-34.2,44-44c32.6-24.6,70.8-40.4,108.9-45.2
		c7.2-0.9,14.6-2.1,16.5-2.8c4.4-1.4,29.2-1.5,32.3-0.1c1.2,0.6,8.3,1.8,15.7,2.8c84,10.7,158.1,70.9,186.8,151.5
		c9.4,26.5,13.3,49.3,13.4,78c0,23-1.7,37.8-7.1,59c-14.7,58.4-53.3,110-105.5,141.2C-2602.6-22396.8-2647.6-22385.9-2696.7-22388.6
		z M-2656.9-22444.5c29.5-4.4,57.4-16,81.7-33.8c9.5-7,28.9-26.3,36.1-36.1c17.5-23.5,29.1-51.8,33.8-82c1.6-10.1,1.3-40-0.5-51
		c-6.2-38.4-22.6-70.7-49.6-98.1c-45.2-45.7-110.9-63.4-172.9-46.5c-66.9,18.3-116.6,73.6-128.6,143.1c-2.6,14.8-2.3,44.2,0.5,59.5
		c11.3,61.9,54.7,113.6,113.5,135.4c20.6,7.6,36.4,10.4,60.6,10.5C-2672.4-22443.5-2660.9-22443.9-2656.9-22444.5z M-2816.2-22627.8
		c0-10.1,3.9-28.5,8.7-41.1c16.2-42.8,54.3-74.8,99.9-84c6.7-1.4,15-2.5,18.3-2.5h6.1v17.4v17.4l-3.8,0.5c-2.1,0.3-6.5,0.8-9.8,1.2
		c-7.9,0.9-20.2,4.8-29.5,9.5c-18.8,9.4-34.6,25.3-44,44c-6.4,12.8-8.3,19.5-10.6,38.3l-0.6,4.8h-17.4h-17.4
		C-2816.2-22622.5-2816.2-22627.8-2816.2-22627.8z"/>
</g>
<text transform="matrix(1 0 0 1 384.4144 300.9776)" class="st10 st8 st11">O que você procura?</text>
<g id="icon_7_">
	<path class="st3" d="M922.4,292.4v-0.2l-0.2-0.1c-0.7-0.3-1.6-0.5-2.5-0.5c-1.6,0-2.9,0.6-4,1.6c-1,1-1.6,2.4-1.6,3.7
		c0,1.9,1.3,2.9,2.6,2.9c1.3,0,2.3-0.5,3.1-1.6c0.1,0.4,0.2,0.8,0.5,1.1c0.3,0.3,0.8,0.5,1.4,0.5c2.1,0,4.2-1.8,4.2-5.3
		c0-3.8-2.8-6.5-6.8-6.5c-2.5,0-4.6,0.9-6.2,2.5c-1.5,1.6-2.3,3.7-2.3,6c0,4,2.9,6.9,7.1,6.9c1.6,0,2.9-0.2,4.2-0.9l0.2-0.1
		l-0.1-0.2l-0.3-0.9l-0.1-0.2l-0.2,0.1c-0.9,0.5-2,0.7-3.3,0.7c-3.3,0-5.6-2.3-5.6-5.6c0-4.1,2.8-7,6.6-7c3.3,0,5.3,2,5.3,5.2
		c0,2.3-1.1,3.8-2.2,3.8c0,0,0,0-0.1,0c-0.2,0-0.3-0.1-0.4-0.2c-0.2-0.2-0.3-0.7-0.1-2L922.4,292.4z M917.4,298.3
		c-1.1,0-1.3-1-1.3-1.5c0-2,1.6-3.7,3.4-3.7c0.4,0,0.7,0.1,0.9,0.1l-0.4,2.3C919.8,297,918.7,298.3,917.4,298.3z"/>
</g>
<path class="st3" d="M956.9,303.2v-6.7h2.3l0.3-2.7h-2.6c0,0,0-0.9,0-2s1.6-0.9,1.6-0.9h1.1v-2.5c0,0,0,0-2.5,0
	c-2.8,0.1-3.1,3.1-3.1,3.1v2.4h-2.3v2.7h2.3v6.8L956.9,303.2L956.9,303.2z"/>
<g>
	<polyline class="st7" points="438,338.8 442,343.6 446.4,338.8 	"/>
	<text transform="matrix(1 0 0 1 384.4142 344.7046)" class="st3 st8 st9">o QUE É?</text>
</g>
<g>
	<polyline class="st7" points="562.2,338.8 566.3,343.6 570.6,338.8 	"/>
	<text transform="matrix(1 0 0 1 470.757 344.7046)" class="st3 st8 st9">COMO FAZEMOS</text>
</g>
<g>
	<polyline class="st7" points="645.4,338.8 649.4,343.6 653.8,338.8 	"/>
	<text transform="matrix(1 0 0 1 595.3369 344.7046)" class="st3 st8 st9">aGENDA</text>
</g>
<g>
	<polyline class="st7" points="753.3,338.8 757.3,343.6 761.7,338.8 	"/>
	<text transform="matrix(1 0 0 1 678.0229 344.7046)" class="st3 st8 st9">iNSCREVA-SE</text>
</g>
<g>
	<polyline class="st7" points="841.6,338.8 845.7,343.6 850,338.8 	"/>
	<text transform="matrix(1 0 0 1 786.3438 344.7046)" class="st3 st8 st9">nOTícias</text>
</g>
<g>
	<polyline class="st7" points="901.6,338.8 905.6,343.6 910,338.8 	"/>
	<text transform="matrix(1 0 0 1 873.4896 344.7046)" class="st3 st8 st9">FAQ</text>
</g>
<g>
	<polyline class="st7" points="994.7,338.8 998.7,343.6 1003.1,338.8 	"/>
	<text transform="matrix(1 0 0 1 935.5546 344.7046)" class="st3 st8 st9">Participe</text>
</g>
<text transform="matrix(1 0 0 1 236.6768 324.2984)" class="st3 st8 st33">awc</text>
<rect id="rect3039-6-8_8_" x="223.2" y="302.1" inkscape:export-filename="/home/system/instituto_tim/headers_e_footers/instituto_tim_header_footer.png" inkscape:export-xdpi="90" inkscape:export-ydpi="90" class="st12" width="1" height="23.8">
</rect>
<path class="st3" d="M985.4,301.4c0,0,3.7,3.1,9.9,0.4c5.8-3.2,5.1-9,5.1-9s0.9-0.4,1.7-1.8c-1.7,0.4-1.7,0.4-1.7,0.4s1-0.6,1.3-1.9
	c-0.7,0.4-1.9,1-2.1,0.8c-0.2-0.1-2.4-2.3-5-0.1c-1.1,1-1,2.8-1,3.1c-0.6,0.1-3.4,0.2-6.9-3.4c0,0-1.9,1.9,0.7,4.4
	c0,0,0.4,0.4-1.4-0.4c0.1,2.9,2.6,3.4,2.6,3.4l-1.2,0.1c0,0-0.1,1.9,2.9,2.4C988.6,301.6,985.4,301.4,985.4,301.4z"/>
<g id="icon_5_">
	<path class="st3" d="M874.6,123.1v-0.2l-0.2-0.1c-0.7-0.3-1.6-0.5-2.5-0.5c-1.6,0-2.9,0.6-4,1.6c-1,1-1.6,2.4-1.6,3.7
		c0,1.9,1.3,2.9,2.6,2.9c1.3,0,2.3-0.5,3.1-1.6c0.1,0.4,0.2,0.8,0.5,1.1c0.3,0.3,0.8,0.5,1.4,0.5c2.1,0,4.2-1.8,4.2-5.3
		c0-3.8-2.8-6.5-6.8-6.5c-2.5,0-4.6,0.9-6.2,2.5c-1.5,1.6-2.3,3.7-2.3,6c0,4,2.9,6.9,7.1,6.9c1.6,0,2.9-0.2,4.2-0.9l0.2-0.1
		l-0.1-0.2l-0.3-0.9l-0.1-0.2l-0.2,0.1c-0.9,0.5-2,0.7-3.3,0.7c-3.3,0-5.6-2.3-5.6-5.6c0-4.1,2.8-7,6.6-7c3.3,0,5.3,2,5.3,5.2
		c0,2.3-1.1,3.8-2.2,3.8c0,0,0,0-0.1,0c-0.2,0-0.3-0.1-0.4-0.2c-0.2-0.2-0.3-0.7-0.1-2L874.6,123.1z M869.7,129.1
		c-1.1,0-1.3-1-1.3-1.5c0-2,1.6-3.7,3.4-3.7c0.4,0,0.7,0.1,0.9,0.1l-0.4,2.3C872,127.7,870.9,129.1,869.7,129.1z"/>
</g>
<path class="st3" d="M908.8,134v-6.7h2.3l0.3-2.7h-2.6c0,0,0-0.9,0-2s1.6-0.9,1.6-0.9h1.1v-2.5c0,0,0,0-2.5,0
	c-2.8,0.1-3.1,3.1-3.1,3.1v2.4h-2.3v2.7h2.3v6.8L908.8,134L908.8,134z"/>
<path class="st3" d="M954.7,119.1h-12.1c0,0-5.2,0-5.2,5.2v4.6c0,0,0,5.2,5.2,5.2h12.1c0,0,5.2,0,5.2-5.2v-4.6
	C959.9,124.3,959.9,119.1,954.7,119.1z M946,129.6v-6l6,3L946,129.6z"/>
<g>
	<path class="st3" d="M987.8,134v-7.8h-2.1v-2.3h2.1c0,0-0.5-4.6,3-4.7c1.7,0,3,0,3,0v2.4h-1.5c0,0-1,0-1,2.2c2.5,0,2.5,0,2.5,0v2.4
		h-2.5l0,7.8H987.8z"/>
	<path class="st3" d="M994.8,123.7h3.2v1.9c0,0,0.7-2.2,2.9-2.2c1.1,0,1.2,0,1.2,0v3.1c0,0-3.7-0.6-3.8,2.2c0,3.2,0,5.2,0,5.2h-3.7
		L994.8,123.7L994.8,123.7z"/>
</g>
<g id="icon_3_">
	<path class="st3" d="M882.7,615.5v-0.2l-0.2-0.1c-0.7-0.3-1.6-0.5-2.5-0.5c-1.6,0-2.9,0.6-4,1.6c-1,1-1.6,2.4-1.6,3.7
		c0,1.9,1.3,2.9,2.6,2.9c1.3,0,2.3-0.5,3.1-1.6c0.1,0.4,0.2,0.8,0.5,1.1c0.3,0.3,0.8,0.5,1.4,0.5c2.1,0,4.2-1.8,4.2-5.3
		c0-3.8-2.8-6.5-6.8-6.5c-2.5,0-4.6,0.9-6.2,2.5c-1.5,1.6-2.3,3.7-2.3,6c0,4,2.9,6.9,7.1,6.9c1.6,0,2.9-0.2,4.2-0.9l0.2-0.1
		l-0.1-0.2l-0.3-0.9l-0.1-0.2l-0.2,0.1c-0.9,0.5-2,0.7-3.3,0.7c-3.3,0-5.6-2.3-5.6-5.6c0-4.1,2.8-7,6.6-7c3.3,0,5.3,2,5.3,5.2
		c0,2.3-1.1,3.8-2.2,3.8c0,0,0,0-0.1,0c-0.2,0-0.3-0.1-0.4-0.2c-0.2-0.2-0.3-0.7-0.1-2L882.7,615.5z M877.7,621.5
		c-1.1,0-1.3-1-1.3-1.5c0-2,1.6-3.7,3.4-3.7c0.4,0,0.7,0.1,0.9,0.1l-0.4,2.3C880.1,620.1,878.9,621.5,877.7,621.5z"/>
</g>
<path class="st3" d="M916.1,626.4v-6.7h2.3l0.3-2.7h-2.6c0,0,0-0.9,0-2s1.6-0.9,1.6-0.9h1.1v-2.5c0,0,0,0-2.5,0
	c-2.8,0.1-3.1,3.1-3.1,3.1v2.4h-2.3v2.7h2.3v6.8L916.1,626.4L916.1,626.4z"/>
<path class="st3" d="M943.9,624.6c0,0,3.7,3.1,9.9,0.4c5.8-3.2,5.1-9,5.1-9s0.9-0.4,1.7-1.8c-1.7,0.4-1.7,0.4-1.7,0.4s1-0.6,1.3-1.9
	c-0.7,0.4-1.9,1-2.1,0.8c-0.2-0.1-2.4-2.3-5-0.1c-1.1,1-1,2.8-1,3.1c-0.6,0.1-3.4,0.2-6.9-3.4c0,0-1.9,1.9,0.7,4.4
	c0,0,0.4,0.4-1.4-0.4c0.1,2.9,2.6,3.4,2.6,3.4l-1.2,0.1c0,0-0.1,1.9,2.9,2.4C947.1,624.7,943.9,624.6,943.9,624.6z"/>
<line class="st34" x1="25.1" y1="399.3" x2="998.9" y2="399.3"/>
<text transform="matrix(1 0 0 1 481.7004 444.807)" class="st30 st8 st31">Footer</text>
<text transform="matrix(1 0 0 1 869.885 595.4221)" class="st27 st25 st28">TIM NA REDE:</text>
<g id="rect4030_1_" inkscape:export-filename="/home/system/instituto_tim/headers_e_footers/instituto_tim_header_footer.png" inkscape:export-xdpi="90" inkscape:export-ydpi="90">
	
		<image style="overflow:visible;opacity:0.33;" width="8" height="277" xlink:href="45754E0ABF8D3720.png"  transform="matrix(1 0 0 1 153 523.5455)">
	</image>
	<g>
		<polygon class="st35" points="155.5,527 156.1,527 156,797.1 155.5,797.1 		"/>
	</g>
</g>
<g id="rect4030_2_" inkscape:export-filename="/home/system/instituto_tim/headers_e_footers/instituto_tim_header_footer.png" inkscape:export-xdpi="90" inkscape:export-ydpi="90">
	
		<image style="overflow:visible;opacity:0.33;" width="7" height="277" xlink:href="45754E0ABF8D3721.png"  transform="matrix(1 0 0 1 404 523.5455)">
	</image>
	<g>
		<polygon class="st35" points="406.2,527 406.8,527 406.7,797.1 406.2,797.1 		"/>
	</g>
</g>
<g id="rect4030_4_" inkscape:export-filename="/home/system/instituto_tim/headers_e_footers/instituto_tim_header_footer.png" inkscape:export-xdpi="90" inkscape:export-ydpi="90">
	
		<image style="overflow:visible;opacity:0.33;" width="7" height="277" xlink:href="45754E0ABF8D3727.png"  transform="matrix(1 0 0 1 572.2604 523.5455)">
	</image>
	<g>
		<polygon class="st35" points="574.4,527 575,527 575,797.1 574.4,797.1 		"/>
	</g>
</g>
<g id="rect4030_6_" inkscape:export-filename="/home/system/instituto_tim/headers_e_footers/instituto_tim_header_footer.png" inkscape:export-xdpi="90" inkscape:export-ydpi="90">
	
		<image style="overflow:visible;opacity:0.33;" width="8" height="277" xlink:href="45754E0ABF8D3722.png"  transform="matrix(1 0 0 1 807 523.5455)">
	</image>
	<g>
		<polygon class="st35" points="809.5,527 810.2,527 810.1,797.1 809.5,797.1 		"/>
	</g>
</g>
</svg>
